<?xml version="1.0" standalone="no"?>
<!DOCTYPE svg PUBLIC "-//W3C//DTD SVG 1.1//EN" "http://www.w3.org/Graphics/SVG/1.1/DTD/svg11.dtd" >
<svg xmlns="http://www.w3.org/2000/svg" xmlns:xlink="http://www.w3.org/1999/xlink" version="1.1">
<metadata>
Created by FontForge 20160405 at Thu Mar 22 05:07:08 2018
 By www-data
(c) 2011 Sergiy S. Tkachenko / 4th february
(c) 2011 Movavi.com
http://creativecommons.org/licenses/by-nc-nd/3.0
http://creativecommons.org/licenses/by-nc-nd/3.0/deed.ru
</metadata>
<defs>
<font id="MovaviGrotesqueBlack" horiz-adv-x="630" >
  <font-face 
    font-family="Movavi Grotesque Black"
    font-weight="900"
    font-stretch="normal"
    units-per-em="1000"
    panose-1="2 11 8 3 3 0 0 2 0 4"
    ascent="775"
    descent="-225"
    x-height="530"
    cap-height="710"
    bbox="-119.965 -415 1154 1158"
    underline-thickness="50"
    underline-position="-150"
    unicode-range="U+0020-FB01"
  />
<missing-glyph horiz-adv-x="653" 
d="M333 0v138h-293v32q0 52 14.5 95t34.5 92l139 353h240l-176 -377h53q12 61 55 119l57 78h96v-182h85v-210h-85v-138h-220zM412 309v14q0 4 1.5 7t7.5 3t7 -3t1 -7v-14h-17zM456 309v18q0 4 1.5 7t7.5 3t7 -3t1 -7v-18h-17zM515 77h-51v48h-40v-48h-10v52h-41v-96h142v44z
M515 245h-41v-52h-10v48h-40v-48h-10v52h-41v-96h142v96zM515 333v13.5t-3.5 16t-11.5 13t-24 5.5q-25 0 -31 -19h-1q-5 6 -12.5 10.5t-18.5 4.5q-16 0 -24 -5.5t-11.5 -13t-4 -16t-0.5 -13.5v-64h142v68z" />
    <glyph glyph-name="fi" unicode="fi" horiz-adv-x="665" 
d="M425 0v360h-166v-360h-190v360h-64v170h66q2 46 9.5 90t36 78.5t86 55.5t159.5 21q49 0 86.5 -5t67.5 -14t54 -21t47 -26l-64 -160q-21 9 -45.5 16.5t-47.5 12t-44 7t-36 2.5q-36 0 -58.5 -1.5t-35.5 -7.5t-18.5 -17t-8.5 -31h356v-530h-190z" />
    <glyph glyph-name=".notdef" horiz-adv-x="653" 
d="M333 0v138h-293v32q0 52 14.5 95t34.5 92l139 353h240l-176 -377h53q12 61 55 119l57 78h96v-182h85v-210h-85v-138h-220zM412 309v14q0 4 1.5 7t7.5 3t7 -3t1 -7v-14h-17zM456 309v18q0 4 1.5 7t7.5 3t7 -3t1 -7v-18h-17zM515 77h-51v48h-40v-48h-10v52h-41v-96h142v44z
M515 245h-41v-52h-10v48h-40v-48h-10v52h-41v-96h142v96zM515 333v13.5t-3.5 16t-11.5 13t-24 5.5q-25 0 -31 -19h-1q-5 6 -12.5 10.5t-18.5 4.5q-16 0 -24 -5.5t-11.5 -13t-4 -16t-0.5 -13.5v-64h142v68z" />
    <glyph glyph-name=".null" horiz-adv-x="0" 
 />
    <glyph glyph-name="nonmarkingreturn" horiz-adv-x="333" 
 />
    <glyph glyph-name="space" unicode=" " horiz-adv-x="300" 
 />
    <glyph glyph-name="exclam" unicode="!" horiz-adv-x="314" 
d="M81 259l-32 451h216l-32 -451h-152zM158 -10q-22 0 -41.5 4t-34 16t-23 33t-8.5 54t8.5 54t23 32.5t34 15.5t41.5 4t41.5 -4t33.5 -15.5t22.5 -32.5t8.5 -54t-8.5 -54t-22.5 -33t-33.5 -16t-41.5 -4z" />
    <glyph glyph-name="quotedbl" unicode="&#x22;" horiz-adv-x="380" 
d="M210 560v190h120l-30 -190h-90zM50 560v190h120l-30 -190h-90z" />
    <glyph glyph-name="numbersign" unicode="#" horiz-adv-x="700" 
d="M348 0l28 203h-96l-28 -203h-96l28 203l-133 1v95h147l16 114h-134v96h148l27 201h96l-27 -201h96l27 201h96l-27 -201h135v-96h-149l-16 -114h134v-96h-148l-28 -203h-96zM406 413h-95l-16 -114h95z" />
    <glyph glyph-name="dollar" unicode="$" horiz-adv-x="629" 
d="M224 -100v95q-65 9 -115 24.5t-69 27.5l76 187q19 -9 48 -15.5t58.5 -11t55.5 -6.5t39 -2q26 0 32.5 7.5t6.5 15.5q0 14 -7 21t-18 11q-16 6 -42.5 7.5t-56.5 6.5t-60.5 16.5t-55.5 35.5t-40.5 63.5t-15.5 102.5q0 42 8.5 79t28 66t50.5 49.5t77 31.5v98h180v-93
q60 -8 107 -21.5t68 -27.5l-66 -187q-19 9 -46.5 15.5t-56 11t-55 5.5t-44.5 -2q-17 -3 -22.5 -9t-5.5 -15q0 -12 7 -17.5t18 -8.5q16 -4 43.5 -6t58.5 -7.5t63 -18t58 -37.5t42 -65t16 -102q0 -45 -10 -83t-32 -68t-57 -50t-86 -29v-95h-180z" />
    <glyph glyph-name="percent" unicode="%" horiz-adv-x="730" 
d="M256 555q0 18 -4 28.5t-11 15.5t-16.5 6t-19.5 1q-11 0 -20 -1t-16 -6t-11 -15.5t-4 -28.5t4 -28.5t11 -15.5t16 -6t20 -1q10 0 19.5 1t16.5 6t11 15.5t4 28.5zM205 390q-34 0 -64 6t-52.5 23.5t-35.5 50t-13 85.5t13 85.5t35.5 50t52.5 23.5t64 6t64 -6t52.5 -23.5
t35.5 -50t13 -85.5t-13 -85.5t-35.5 -50t-52.5 -23.5t-64 -6zM576 155q0 18 -4 28.5t-11 15.5t-16.5 6t-19.5 1q-11 0 -20 -1t-16 -6t-11 -15.5t-4 -28.5t4 -28.5t11 -15.5t16 -6t20 -1q10 0 19.5 1t16.5 6t11 15.5t4 28.5zM525 -10q-34 0 -64 6t-52.5 23.5t-35.5 50
t-13 85.5t13 85.5t35.5 50t52.5 23.5t64 6t64 -6t52.5 -23.5t35.5 -50t13 -85.5t-13 -85.5t-35.5 -50t-52.5 -23.5t-64 -6zM30 -7v190l310 200v-190zM390 327v190l310 200v-190z" />
    <glyph glyph-name="ampersand" unicode="&#x26;" horiz-adv-x="730" 
d="M650 -2q-41 5 -86.5 18t-88.5 38q-39 -30 -82 -47t-98 -17q-50 0 -94.5 7.5t-78 31t-53 67t-19.5 116.5q0 49 8 79t22 49t33 32t42 30q-17 22 -26 46.5t-9 56.5q0 61 19 97t49.5 55t69.5 24.5t79 5.5q35 0 72.5 -5t68.5 -22.5t51 -52t20 -93.5q0 -49 -24.5 -88t-59.5 -66
l30 -33q23 14 42.5 31t37.5 40l115 -125q-27 -38 -55 -56q11 -5 26 -9t31 -7zM277 268q-11 -9 -17.5 -17t-6.5 -28q0 -30 12.5 -35t32.5 -5q14 0 24 3t21 9zM338 469q15 11 23 20.5t8 20.5t-13 14t-24 3q-8 0 -15 -6t-5 -14q4 -13 11 -21.5t15 -16.5z" />
    <glyph glyph-name="quotesingle" unicode="'" horiz-adv-x="220" 
d="M50 560v190h120l-30 -190h-90z" />
    <glyph glyph-name="parenleft" unicode="(" horiz-adv-x="328" 
d="M196 -214q-16 18 -32 47t-29.5 57.5t-22.5 50.5t-10 26q-29 79 -41 155t-12 160t12 159.5t41 155.5q1 4 10 26t22.5 50.5t29.5 57.5t32 47l143 -125q-8 -9 -17.5 -28t-18.5 -39.5t-15.5 -36.5t-7.5 -19q-23 -61 -32 -120.5t-9 -127.5t9 -127.5t32 -120.5q1 -3 7.5 -19
t15.5 -36.5t18.5 -39.5t17.5 -28l-143 -125v0z" />
    <glyph glyph-name="parenright" unicode=")" horiz-adv-x="328" 
d="M-8 -89q7 9 16.5 26.5t18 37t15 36t9.5 23.5q23 61 32 120.5t9 127.5t-9 127.5t-32 120.5q-1 3 -7.5 19t-15.5 36.5t-18.5 39.5t-17.5 28l143 125q15 -17 31 -45.5t29.5 -57t22.5 -51l11 -27.5q29 -76 41 -156.5t12 -158.5t-12 -158.5t-41 -156.5q-2 -4 -10.5 -26
t-22 -50.5t-29.5 -57.5t-32 -47l-143 125v0z" />
    <glyph glyph-name="asterisk" unicode="*" horiz-adv-x="472" 
d="M363 390q-5 3 -16.5 12.5t-24.5 20.5t-25 21l-18 15q1 -8 2 -23.5t2.5 -32.5t2.5 -32t1 -21h-102q0 6 1 21t2.5 32t2.5 32.5t2 23.5l-18 -15t-25 -21t-24.5 -20.5t-16.5 -12.5l-59 84q5 3 17.5 11t27.5 16.5t28.5 16.5t20.5 12q-7 4 -20.5 12t-28.5 16.5t-27.5 16.5
t-17.5 11l59 84q5 -3 16.5 -12.5t24.5 -20.5t25 -21l18 -15q-1 8 -2 23.5t-2.5 32.5t-2.5 32t-1 21h102q0 -6 -1 -21t-2.5 -32t-2.5 -32.5t-2 -23.5l18 15t25 21t24.5 20.5t16.5 12.5l59 -84q-5 -3 -17.5 -11t-27.5 -16.5t-28.5 -16.5t-20.5 -12q7 -4 20.5 -12t28.5 -16.5
t27.5 -16.5t17.5 -11z" />
    <glyph glyph-name="plus" unicode="+" horiz-adv-x="625" 
d="M231 102v171h-171v163h171v171h164v-171h170v-163h-170v-171h-164z" />
    <glyph glyph-name="comma" unicode="," horiz-adv-x="313" 
d="M4 -31l30 11q20 8 38.5 17t29.5 6l11 -3l5 4q-30 7 -49 28.5t-19 69.5q0 31 8.5 51t23.5 31t34.5 15t41.5 4q26 0 46 -5t33 -18t19.5 -35t6.5 -56q0 -39 -12 -82.5t-50 -83.5q-36 -35 -74 -55t-80 -32z" />
    <glyph glyph-name="hyphen" unicode="-" horiz-adv-x="359" 
d="M50 273v163h259v-163h-259z" />
    <glyph glyph-name="period" unicode="." horiz-adv-x="313" 
d="M157 -10q-22 0 -41.5 4t-34 16t-23 33t-8.5 54t8.5 54t23 32.5t34 15.5t41.5 4t41.5 -4t33.5 -15.5t22.5 -32.5t8.5 -54t-8.5 -54t-22.5 -33t-33.5 -16t-41.5 -4z" />
    <glyph glyph-name="slash" unicode="/" horiz-adv-x="474" 
d="M-10 -45l315 865l179 -65l-315 -865z" />
    <glyph glyph-name="zero" unicode="0" horiz-adv-x="631" 
d="M315 197q36 0 44 40t8 118t-8 119t-44 41q-18 0 -28 -10.5t-15.5 -31t-6.5 -50t-1 -68.5q0 -78 7.5 -118t43.5 -40zM315 -10q-79 0 -131.5 20t-84.5 64t-45.5 113.5t-13.5 167.5t13.5 167.5t45.5 114t84.5 65t131.5 20.5t132 -20.5t85 -65t45.5 -114t13.5 -167.5
t-13.5 -167t-45.5 -113t-85 -64.5t-132 -20.5z" />
    <glyph glyph-name="one" unicode="1" horiz-adv-x="385" 
d="M116 0v501h-111v104l161 105h169v-710h-219z" />
    <glyph glyph-name="two" unicode="2" horiz-adv-x="631" 
d="M57 0l1 150q1 66 27.5 113t64.5 82q31 28 73 53t102 62q11 7 18 12.5t7 16.5q0 8 -6 12.5t-15 7t-19.5 3.5t-18.5 1q-20 0 -43 -2.5t-46.5 -6.5t-44.5 -10t-37 -13l-66 187q13 9 40.5 18.5t61.5 17.5t71 13t69 5q52 0 100.5 -15t86 -43.5t60 -69.5t22.5 -94t-18 -92
t-47.5 -68.5t-67.5 -52t-78 -43.5q-17 -8 -33 -16.5t-33 -17.5h293v-210h-524z" />
    <glyph glyph-name="three" unicode="3" horiz-adv-x="629" 
d="M210 299v127l70 74h-195v210h476v-150l-89 -117q52 -32 84.5 -86.5t32.5 -121.5q0 -38 -13.5 -81t-44.5 -80t-82.5 -61.5t-126.5 -24.5q-46 0 -91 6t-83.5 15t-66.5 19.5t-41 18.5l76 187q18 -8 43.5 -14t52.5 -10.5t52 -7t41 -3.5q20 2 33 16t13 34q0 21 -14.5 35.5
t-35.5 14.5h-91z" />
    <glyph glyph-name="four" unicode="4" horiz-adv-x="618" 
d="M303 0v138h-293v32q0 52 14.5 95t34.5 92l139 353h240l-176 -377h53q12 61 55 119l57 78h96v-182h85v-210h-85v-138h-220z" />
    <glyph glyph-name="five" unicode="5" horiz-adv-x="635" 
d="M313 499v-28h26q48 0 92.5 -17.5t78.5 -48.5t54.5 -74.5t20.5 -95.5q0 -38 -13.5 -81t-44.5 -80t-82.5 -61.5t-126.5 -24.5q-46 0 -91 6t-83.5 15t-66.5 19.5t-41 18.5l76 187q18 -8 43.5 -14.5t52.5 -11t52 -7t41 -2.5q20 0 33 15t13 35q0 21 -14.5 35.5t-35.5 14.5
q-26 0 -54 -4.5t-49 -10.5l-97 86l32 340h425v-211h-241z" />
    <glyph glyph-name="six" unicode="6" horiz-adv-x="628" 
d="M387 236q0 18 -4 28t-10.5 15t-16 6t-19.5 1q-11 0 -20 -1t-15.5 -6t-10.5 -15t-4 -28t4 -28t10.5 -15t15.5 -6t20 -1q10 0 19.5 1t16 6t10.5 15t4 28zM503 476q-16 7 -34 13.5t-35.5 11t-33 7t-26.5 3.5q-30 2 -53.5 -5t-40 -17.5t-25 -21t-8.5 -16.5q0 -7 11.5 -4.5
t27 8t32 11.5t26.5 6q49 0 93.5 -9t78 -34.5t53 -70.5t19.5 -116t-19.5 -119t-54.5 -77.5t-82.5 -42.5t-104.5 -13q-69 0 -122.5 19t-90 61.5t-55.5 111.5t-19 168q0 109 22.5 181t63.5 114.5t99 59.5t129 17q48 0 84.5 -6t63.5 -15t45.5 -19.5t31.5 -18.5z" />
    <glyph glyph-name="seven" unicode="7" horiz-adv-x="560" 
d="M76 0v45q0 53 11 97t36 91l144 267h-257v210h540v-107q0 -19 -6.5 -36t-15.5 -35q-29 -56 -66 -126t-75.5 -142t-74.5 -141t-62 -123h-174z" />
    <glyph glyph-name="eight" unicode="8" horiz-adv-x="600" 
d="M491 390q32 -29 50.5 -68.5t18.5 -87.5q0 -75 -21 -122.5t-56.5 -74.5t-83 -37t-100.5 -10q-54 0 -101.5 10t-82.5 37t-55 74.5t-20 122.5q0 48 18 87t49 68q-20 25 -30.5 54t-10.5 67q0 67 18.5 109t50 64.5t74 30.5t90.5 8q47 0 89.5 -8t74.5 -30.5t51 -64.5t19 -109
q0 -33 -10.5 -63.5t-31.5 -56.5zM354 234q0 19 -4 30t-11.5 16.5t-17.5 7t-22 1.5t-22 -1.5t-17.5 -7t-11.5 -16.5t-4 -30t4 -30t11.5 -16.5t17.5 -7t22 -1.5t22 1.5t17.5 7t11.5 16.5t4 30zM254 510q0 -17 3.5 -26t9.5 -13.5t14.5 -5t17.5 -0.5t17.5 0.5t14.5 5t9.5 13.5
t3.5 26t-3.5 26t-9.5 13.5t-14.5 5t-17.5 0.5t-17.5 -0.5t-14.5 -5t-9.5 -13.5t-3.5 -26z" />
    <glyph glyph-name="nine" unicode="9" horiz-adv-x="628" 
d="M341 476q0 18 -4 28t-10.5 15t-16 6t-19.5 1q-11 0 -20 -1t-15.5 -6t-10.5 -15t-4 -28t4 -28t10.5 -15t15.5 -6t20 -1q10 0 19.5 1t16 6t10.5 15t4 28zM125 236q16 -8 34 -14t35.5 -10.5t33 -7t26.5 -3.5q30 -2 53.5 5t40 17.5t25 21t8.5 16.5q0 7 -11.5 4.5t-27 -8
t-32 -11.5t-26.5 -6q-50 0 -94 9t-77.5 34.5t-53 70.5t-19.5 116q0 70 19.5 118.5t54.5 78t82.5 42.5t104.5 13q69 0 122.5 -19t90 -61.5t55.5 -111.5t19 -168q0 -110 -22.5 -181.5t-63.5 -114t-99 -59.5t-129 -17q-48 0 -84.5 6t-63.5 15t-45.5 19.5t-31.5 18.5z" />
    <glyph glyph-name="colon" unicode=":" horiz-adv-x="313" 
d="M157 -10q-22 0 -41.5 4t-34 16t-23 33t-8.5 54t8.5 54t23 32.5t34 15.5t41.5 4t41.5 -4t33.5 -15.5t22.5 -32.5t8.5 -54t-8.5 -54t-22.5 -33t-33.5 -16t-41.5 -4zM157 258q-22 0 -41.5 4t-34 16t-23 33t-8.5 54t8.5 54t23 32.5t34 15.5t41.5 4t41.5 -4t33.5 -15.5
t22.5 -32.5t8.5 -54t-8.5 -54t-22.5 -33t-33.5 -16t-41.5 -4z" />
    <glyph glyph-name="semicolon" unicode=";" horiz-adv-x="313" 
d="M157 258q-22 0 -41.5 4t-34 16t-23 33t-8.5 54t8.5 54t23 32.5t34 15.5t41.5 4t41.5 -4t33.5 -15.5t22.5 -32.5t8.5 -54t-8.5 -54t-22.5 -33t-33.5 -16t-41.5 -4zM-3 -10l30 11q20 8 37.5 8t37.5 -6l11 -3l5 4q-30 7 -49 28.5t-19 69.5q0 31 8.5 51t23.5 31t34.5 15
t41.5 4q26 0 46 -5t33 -18t19.5 -35t6.5 -56q0 -39 -12 -82.5t-50 -83.5q-36 -35 -74 -55t-80 -32z" />
    <glyph glyph-name="less" unicode="&#x3c;" horiz-adv-x="534" 
d="M494 137q-34 0 -63 6.5t-60 20.5l-341 136v108l341 136q31 14 60 20.5t63 6.5h10v-143l-123 -39q-32 -10 -61.5 -16.5t-62.5 -11.5l-57 -7l57 -7q33 -5 62.5 -11.5t61.5 -16.5l123 -39v-143h-10z" />
    <glyph glyph-name="equal" unicode="=" horiz-adv-x="605" 
d="M50 386v140h505v-140h-505zM50 183v140h505v-140h-505z" />
    <glyph glyph-name="greater" unicode="&#x3e;" horiz-adv-x="534" 
d="M163 164q-31 -14 -60 -20.5t-63 -6.5h-10v143l123 39q32 10 61.5 16.5t62.5 11.5l57 7l-57 7q-33 5 -62.5 11.5t-61.5 16.5l-123 39v143h10q34 0 63 -6.5t60 -20.5l341 -136v-108z" />
    <glyph glyph-name="question" unicode="?" horiz-adv-x="581" 
d="M175 249q0 35 12 66t31.5 57t42.5 46t46 34q11 7 15 16.5t4 20.5q0 8 -6 12.5t-15 7t-19.5 3.5t-18.5 1q-20 0 -43 -2.5t-46.5 -6.5t-44.5 -10t-37 -13l-66 187q13 9 40.5 18.5t61.5 17.5t71 13t69 5q52 0 100.5 -15t86 -43.5t60 -69.5t22.5 -94q0 -43 -11 -73.5
t-27.5 -53t-36 -38.5t-35 -30t-25.5 -27t-8 -29h-223zM292 -10q-22 0 -41.5 4t-34 16t-23 33t-8.5 54t8.5 54t23 32.5t34 15.5t41.5 4t41.5 -4t33.5 -15.5t22.5 -32.5t8.5 -54t-8.5 -54t-22.5 -33t-33.5 -16t-41.5 -4z" />
    <glyph glyph-name="at" unicode="@" horiz-adv-x="777" 
d="M736 30q-59 -12 -134.5 -26t-180.5 -14q-81 0 -151 13.5t-121 53.5t-80 111.5t-29 187.5q0 103 24 173.5t71 113t116.5 61t159.5 18.5q115 0 180.5 -26.5t97.5 -74.5t39.5 -115.5t7.5 -148.5v-88q0 -74 -34 -106t-103 -32q-44 0 -72 12q-10 4 -20.5 10.5t-36.5 25.5
q-14 -14 -26 -22.5t-23.5 -13t-24 -6t-27.5 -1.5q-56 0 -94 15t-61.5 43.5t-34 69t-10.5 91.5t10 91.5t34 69t62.5 43.5t95.5 15q19 0 48.5 -1.5t62.5 -4t64.5 -5t54.5 -4.5v-348q0 -12 8 -14t17 0q30 5 40 21t10 51v142q0 55 -8 101t-35.5 79.5t-80.5 52t-143 18.5
q-76 0 -134 -15t-97 -50.5t-58.5 -94t-19.5 -144.5q0 -99 24.5 -159.5t67.5 -93.5t100.5 -44t122.5 -11q52 0 99 4.5t88.5 10.5t75 13t58.5 12v-60zM414 287q14 0 21.5 5.5t10.5 15t3.5 21.5t0.5 26v52q0 16 -16 16h-45q-23 0 -36.5 -2t-20.5 -9t-9 -20.5t-2 -36.5t2 -36.5
t9 -20.5t20.5 -9t36.5 -2h25z" />
    <glyph glyph-name="A" unicode="A" horiz-adv-x="636" 
d="M447 0l-30 100h-192l-29 -100h-186v43q0 53 8 98.5t27 95.5l174 473h202l171 -472q18 -50 26 -95.5t8 -98.5v-44h-179zM356 310q-11 49 -18 100l-18 118l-19 -118q-7 -51 -18 -100h73z" />
    <glyph glyph-name="B" unicode="B" horiz-adv-x="670" 
d="M50 0v710h322h41.5t51 -4t52.5 -15t46.5 -33t33.5 -57t13 -87q0 -57 -21 -94.5t-52 -62.5v-3q49 -17 71 -59t22 -99q0 -52 -13 -87t-33.5 -57t-46.5 -33t-52.5 -15t-51 -4h-41.5h-342zM270 255v-60h70q21 0 35.5 3t14.5 27t-14.5 27t-35.5 3h-70zM270 514v-60h70
q21 0 35.5 3t14.5 27t-14.5 27t-35.5 3h-70z" />
    <glyph glyph-name="C" unicode="C" horiz-adv-x="657" 
d="M617 56q-12 -8 -34.5 -19.5t-52.5 -22t-67 -17.5t-77 -7q-84 0 -148.5 21t-108.5 65t-66.5 113.5t-22.5 166.5t22.5 166.5t66.5 113.5t108.5 65t148.5 21q42 0 79 -7.5t67 -18t51.5 -21.5t33.5 -19l-76 -187q-20 9 -42.5 15.5t-44.5 11t-41.5 6.5t-32.5 2q-29 0 -51 -4.5
t-38 -19.5t-24 -44.5t-8 -79.5t8 -79t24 -44.5t38 -20t51 -4.5q13 0 32.5 2t41.5 6.5t44.5 11t42.5 15.5z" />
    <glyph glyph-name="D" unicode="D" horiz-adv-x="710" 
d="M313 208q27 0 52.5 4.5t44.5 19.5t30.5 44.5t11.5 79.5t-11.5 79t-31.5 44t-47 19t-57 4h-36v-294h44zM50 0v710h255q91 0 159.5 -19t114 -61t68.5 -109.5t23 -164.5t-21.5 -165t-65 -110.5t-110.5 -61.5t-158 -19h-265z" />
    <glyph glyph-name="E" unicode="E" horiz-adv-x="579" 
d="M50 0v710h479v-205h-259v-50h239v-200h-239v-50h259v-205h-479z" />
    <glyph glyph-name="F" unicode="F" horiz-adv-x="539" 
d="M50 0v710h479v-205h-259v-50h239v-200h-239v-255h-220z" />
    <glyph glyph-name="G" unicode="G" horiz-adv-x="714" 
d="M662 55q-13 -8 -38.5 -19.5t-60 -21.5t-75 -16.5t-82.5 -6.5q-92 0 -160.5 21t-114 65t-68.5 113.5t-23 166.5t23 166t69.5 113.5t116 65t163.5 20.5q42 0 79 -7.5t67 -18t51.5 -21.5t33.5 -19l-76 -187q-20 9 -42.5 15.5t-44.5 11t-41.5 6.5t-32.5 2q-31 0 -57.5 -4
t-46.5 -19t-31.5 -44.5t-11.5 -79.5t11.5 -79t31.5 -44t46.5 -19.5t57.5 -4.5v-2q10 0 25 1t33 3v58h-58v170h258v-384z" />
    <glyph glyph-name="H" unicode="H" horiz-adv-x="728" 
d="M458 0v250h-188v-250h-220v710h220v-250h188v250h220v-710h-220z" />
    <glyph glyph-name="I" unicode="I" horiz-adv-x="320" 
d="M50 0v710h220v-710h-220z" />
    <glyph glyph-name="J" unicode="J" horiz-adv-x="482" 
d="M212 710h220v-491q0 -68 -20 -112.5t-51.5 -70.5t-70.5 -36.5t-77 -10.5q-72 0 -119.5 13.5t-83.5 36.5l69 188q37 -17 62 -22t54 -5q10 0 13.5 5t3.5 10v495z" />
    <glyph glyph-name="K" unicode="K" horiz-adv-x="685" 
d="M441 0l-118 250h-53v-250h-220v710h220v-250h53l118 250h234l-168 -356l168 -354h-234z" />
    <glyph glyph-name="L" unicode="L" horiz-adv-x="498" 
d="M50 0v710h220v-500h218v-210h-438z" />
    <glyph glyph-name="M" unicode="M" horiz-adv-x="958" 
d="M688 0v110q0 53 4.5 99.5t13.5 98.5l12 62h-4l-155 -370h-160l-155 370h-4l12 -62q9 -52 13.5 -98.5t4.5 -99.5v-110h-220v710h232l129 -260q23 -48 37 -92.5t22 -96.5l9 -58l9 58q8 52 22 96.5t37 92.5l129 260h232v-710h-220z" />
    <glyph glyph-name="N" unicode="N" horiz-adv-x="722" 
d="M501 0l-251 364l10 -85q5 -42 7.5 -79.5t2.5 -79.5v-120h-220v710h171l251 -367l-10 88q-5 42 -7.5 79.5t-2.5 79.5v120h220v-710h-171z" />
    <glyph glyph-name="O" unicode="O" horiz-adv-x="771" 
d="M386 -10q-84 0 -148.5 21t-108.5 65t-66.5 113.5t-22.5 166.5t22.5 166.5t66.5 113.5t108.5 65t148.5 21t148 -21t108 -65t66.5 -113.5t22.5 -166.5t-22.5 -166.5t-66.5 -113.5t-108 -65t-148 -21zM386 209q30 0 54 4.5t40 19.5t24.5 44t8.5 79t-8.5 79.5t-24.5 44.5
t-40 19t-54 4q-31 0 -54.5 -4t-39.5 -19t-24.5 -44.5t-8.5 -79.5t8.5 -79t24.5 -44t39.5 -19.5t54.5 -4.5z" />
    <glyph glyph-name="P" unicode="P" horiz-adv-x="650" 
d="M50 0v710h322q45 0 87.5 -4.5t76 -28t54 -73t20.5 -139.5t-20.5 -140.5t-54 -74.5t-76.5 -29.5t-87 -5.5h-102v-215h-220zM340 415q10 0 19.5 1t16 6t10.5 15t4 28t-4 28t-10.5 15t-16 6t-19.5 1h-70v-100h70z" />
    <glyph glyph-name="Q" unicode="Q" horiz-adv-x="771" 
d="M213 20l-7 3q-81 37 -123.5 118t-42.5 215q0 97 22.5 166.5t66.5 113.5t108.5 65t148.5 21t148 -21t108 -65t66.5 -113.5t22.5 -166.5q0 -87 -18.5 -142t-54 -86t-88 -43t-120.5 -14v-11h28q53 0 99 -7t97 -22l56 -17l-66 -187zM386 209q30 0 54 4.5t40 19.5t24.5 44
t8.5 79t-8.5 79.5t-24.5 44.5t-40 19t-54 4q-31 0 -54.5 -4t-39.5 -19t-24.5 -44.5t-8.5 -79.5t8.5 -79t24.5 -44t39.5 -19.5t54.5 -4.5z" />
    <glyph glyph-name="R" unicode="R" horiz-adv-x="685" 
d="M411 0l-84 225h-57v-225h-220v710h342q45 0 87.5 -4.5t76 -28t54 -73t20.5 -139.5q0 -82 -24.5 -130t-62.5 -74l102 -261h-234zM360 415q10 0 19.5 1t16 6t10.5 15t4 28t-4 28t-10.5 15t-16 6t-19.5 1h-90v-100h90z" />
    <glyph glyph-name="S" unicode="S" horiz-adv-x="629" 
d="M116 234q19 -9 48 -15.5t58.5 -11t55.5 -6.5t39 -2q26 0 32.5 7.5t6.5 15.5q0 14 -7 21t-18 11q-16 6 -42.5 7.5t-56.5 6.5t-60.5 16.5t-55.5 35.5t-40.5 63.5t-15.5 102.5q0 52 13 95.5t44 75t81.5 48.5t124.5 17q41 0 81 -5t74.5 -13t60.5 -17.5t40 -18.5l-66 -187
q-19 9 -46.5 15.5t-56 11t-55 5.5t-44.5 -2q-17 -3 -22.5 -9t-5.5 -15q0 -12 7 -17.5t18 -8.5q16 -4 43.5 -6t58.5 -7.5t63 -18t58 -37.5t42 -65t16 -102q0 -53 -14 -96.5t-45.5 -75t-82.5 -48.5t-125 -17q-46 0 -91 6t-83.5 15t-66.5 19.5t-41 18.5z" />
    <glyph glyph-name="T" unicode="T" horiz-adv-x="558" 
d="M169 0v500h-159v210h538v-210h-159v-500h-220z" />
    <glyph glyph-name="U" unicode="U" horiz-adv-x="738" 
d="M460 710h218v-419q0 -90 -24.5 -148.5t-67 -92.5t-98.5 -47.5t-119 -13.5t-119.5 13.5t-98.5 47.5t-66.5 92.5t-24.5 148.5v419h218v-412q0 -37 5.5 -57.5t17 -30t28 -11t39.5 -1.5q22 0 39.5 1.5t29 11t17.5 30t6 57.5v412z" />
    <glyph glyph-name="V" unicode="V" horiz-adv-x="636" 
d="M219 0l-174 473q-19 50 -27 95.5t-8 98.5v43h186l62 -215q15 -51 25 -97t18 -98l19 -118l18 118q8 52 18.5 98t25.5 97l65 215h179v-44q0 -53 -8 -98.5t-26 -95.5l-171 -472h-202z" />
    <glyph glyph-name="W" unicode="W" horiz-adv-x="888" 
d="M532 0l-29 92q-15 51 -26.5 96.5t-21.5 97.5l-12 122l-12 -122q-9 -52 -20.5 -97.5t-26.5 -96.5l-28 -92h-209l-114 494q-12 51 -17.5 97.5t-5.5 99.5v19h199l17 -81q11 -52 18.5 -98.5t14.5 -98.5l10 -134l14 135q10 52 21.5 97.5t25.5 96.5l25 83h175l26 -84
q15 -51 26.5 -96.5t21.5 -97.5l15 -134l10 133q7 52 14.5 98.5t18.5 98.5l16 82h200v-19q0 -53 -5.5 -99.5t-17.5 -97.5l-115 -494h-208z" />
    <glyph glyph-name="X" unicode="X" horiz-adv-x="594" 
d="M390 0l-57 134q-11 24 -17 46.5t-11 48.5l-8 49l-8 -49q-5 -26 -11 -48.5t-17 -46.5l-57 -134h-194v33q0 53 12.5 96.5t39.5 88.5l84 137l-84 137q-27 45 -39.5 88.5t-12.5 96.5v33h194l57 -134q11 -24 17 -46.5t11 -48.5l8 -49l8 49q5 26 11 48.5t17 46.5l57 134h194
v-33q0 -53 -12.5 -96.5t-39.5 -88.5l-84 -137l84 -137q27 -45 39.5 -88.5t12.5 -96.5v-33h-194z" />
    <glyph glyph-name="Y" unicode="Y" horiz-adv-x="614" 
d="M197 0v221l-129 269q-11 24 -21.5 45.5t-18.5 43t-13 44.5t-5 49v38h179l39 -88q22 -49 36 -93.5t26 -95.5l17 -83l17 83q12 51 26.5 96t35.5 93l38 88h180v-39q0 -26 -4.5 -49t-12.5 -44.5t-18.5 -43t-22.5 -45.5l-129 -268v-221h-220z" />
    <glyph glyph-name="Z" unicode="Z" horiz-adv-x="666" 
d="M50 0v48q0 53 14 95.5t44 85.5l195 271h-245v210h542v-49q0 -53 -13.5 -95.5t-44.5 -85.5l-194 -270h268v-210h-566z" />
    <glyph glyph-name="bracketleft" unicode="[" horiz-adv-x="470" 
d="M50 -105v915h370v-170h-180v-575h180v-170h-370z" />
    <glyph glyph-name="backslash" unicode="\" horiz-adv-x="474" 
d="M305 -110l-315 865l179 65l315 -865z" />
    <glyph glyph-name="bracketright" unicode="]" horiz-adv-x="470" 
d="M50 -105v170h180v575h-180v170h370v-915h-370z" />
    <glyph glyph-name="asciicircum" unicode="^" horiz-adv-x="490" 
d="M316 387l-71 170l-71 -170l-144 94l110 200q6 12 12.5 24t14.5 22t17.5 16.5t22.5 6.5h76q13 0 22.5 -6.5t17.5 -16.5t14.5 -22t12.5 -24l110 -200z" />
    <glyph glyph-name="underscore" unicode="_" horiz-adv-x="578" 
d="M0 -155v125h578v-125h-578z" />
    <glyph glyph-name="grave" unicode="`" horiz-adv-x="357" 
d="M50 629l61 129l196 -124l-30 -64z" />
    <glyph glyph-name="a" unicode="a" horiz-adv-x="563" 
d="M428 0l-69 45q-12 -17 -26 -27.5t-27.5 -17t-26 -9t-20.5 -2.5q-66 0 -110 7t-72 24t-40.5 46.5t-15.5 74.5q-3 46 6 77t30.5 50t57.5 27t88 8h122q-1 17 -7.5 26.5t-17 14t-24 5t-28.5 0.5q-24 0 -41 -1t-32.5 -3t-33 -6t-41.5 -11l-56 172q30 11 80 25t127 14
q135 0 203.5 -64.5t68.5 -210.5v-264h-95zM242 183q-19 0 -23 -8t-4 -19t4 -19t23 -8h22q12 0 24 1.5t20.5 6.5t13 16t2.5 30h-82z" />
    <glyph glyph-name="b" unicode="b" horiz-adv-x="640" 
d="M145 0h-95v710l21 9q39 17 75.5 24t78.5 7h15v-231q14 6 25 10t22.5 6t23.5 3t28 1q69 0 118 -14.5t81 -47t47 -83.5t15 -124q0 -150 -62.5 -214.5t-189.5 -64.5q-23 0 -40.5 2t-33 8t-30 16.5t-30.5 27.5zM325 181q29 0 46 2.5t25.5 11t11 25.5t2.5 46t-2.5 46t-11 25.5
t-25.5 11t-46 2.5h-41q-17 0 -26.5 -7.5t-13.5 -19.5t-4.5 -28t-0.5 -33t0.5 -32t4.5 -26t13.5 -17.5t26.5 -6.5h41z" />
    <glyph glyph-name="c" unicode="c" horiz-adv-x="552" 
d="M512 42q-18 -11 -37 -20.5t-41.5 -16t-50.5 -10t-64 -3.5q-74 0 -127 16.5t-87 50t-49.5 85.5t-15.5 123t16 123t50 85.5t87 49.5t127 16q40 0 69.5 -4.5t52 -11t39 -15.5t31.5 -18l-67 -164q-19 8 -34 13.5t-28.5 8.5t-26 4t-27.5 1q-33 0 -53 -5t-30 -16t-13 -27.5
t-3 -39.5t3 -39.5t13 -27.5t30 -16t53 -5q15 0 27.5 1t26 4t28.5 8.5t34 13.5z" />
    <glyph glyph-name="d" unicode="d" horiz-adv-x="640" 
d="M495 0l-69 45q-16 -17 -30.5 -27.5t-30 -16.5t-33 -8t-40.5 -2q-64 0 -111 15.5t-78.5 49t-47 86.5t-15.5 128q0 73 15 124t47 83.5t81 47t118 14.5q16 0 28 -1t23.5 -3t22.5 -6t25 -10v191l21 9q39 17 75.5 24t78.5 7h15v-750h-95zM356 181q17 0 26.5 6.5t13.5 17.5
t4.5 26t0.5 32t-0.5 33t-4.5 28t-13.5 19.5t-26.5 7.5h-41q-29 0 -46 -5.5t-25.5 -16t-11 -26.5t-2.5 -37t2.5 -37t11 -26.5t25.5 -16t46 -5.5h41z" />
    <glyph glyph-name="e" unicode="e" horiz-adv-x="590" 
d="M539 30q-15 -6 -38 -13t-52 -13t-63.5 -10.5t-73.5 -4.5q-135 0 -203.5 64.5t-68.5 210.5q0 73 17 125t49.5 85.5t80 49t108.5 15.5t108.5 -15.5t80 -49t49.5 -85.5t17 -125q-48 -26 -92.5 -32.5t-97.5 -6.5h-122q1 -17 7.5 -26.5t17 -14t24 -5t28.5 -0.5q24 0 44 1.5
t39.5 4t40 6.5t44.5 11zM351 305q1 21 -4 32t-13.5 16t-18 5.5t-16.5 0.5q-12 0 -24 -1.5t-20.5 -6.5t-13 -16t-2.5 -30h112z" />
    <glyph glyph-name="f" unicode="f" horiz-adv-x="427" 
d="M74 0v360h-64v170h64q2 73 15 120t37 75t60 39t86 11q18 0 40.5 -1.5t46 -5.5t46 -11.5t42.5 -18.5l-67 -164q-21 7 -40.5 9t-37.5 2q-11 0 -18.5 -1.5t-12 -6.5t-6 -16.5t-1.5 -30.5h142v-170h-142v-360h-190z" />
    <glyph glyph-name="g" unicode="g" horiz-adv-x="640" 
d="M155 -16q18 -8 40.5 -13t45 -8t42 -4.5t30.5 -1.5q49 0 66.5 14.5t19.5 48.5q-27 -12 -47 -15.5t-51 -3.5q-69 0 -118 13t-81 43.5t-47 80t-15 122.5q0 75 15.5 128t47 86.5t78.5 49t111 15.5q23 0 40.5 -2.5t33 -8.5t30 -16.5t30.5 -26.5l69 45h95v-486
q0 -143 -62.5 -208.5t-200.5 -65.5q-36 0 -71.5 4t-67.5 11t-58 16t-42 19zM356 179q17 0 26.5 7.5t13.5 19.5t4.5 28t0.5 33t-0.5 32t-4.5 26t-13.5 17.5t-26.5 6.5h-41q-29 0 -46 -2.5t-25.5 -11t-11 -25.5t-2.5 -46t2.5 -46t11 -25.5t25.5 -11t46 -2.5h41z" />
    <glyph glyph-name="h" unicode="h" horiz-adv-x="620" 
d="M390 0v266q0 21 -2.5 37t-11 26.5t-25.5 16t-46 5.5h-21q-17 0 -26.5 -7.5t-13.5 -19.5t-4.5 -28t-0.5 -33v-263h-189v710l21 9q39 17 75.5 24t78.5 7h15v-231q28 12 45 16t34 4q69 0 118 -14.5t81 -47t47 -83.5t15 -124v-270h-190z" />
    <glyph glyph-name="i" unicode="i" horiz-adv-x="290" 
d="M50 0v490l21 9q39 17 75.5 24t78.5 7h15v-530h-190zM145 550q-20 0 -37 3.5t-30 13.5t-20.5 28.5t-7.5 49.5t7.5 49.5t20.5 28.5t30 13.5t37 3.5q19 0 36.5 -3.5t30.5 -13.5t20.5 -28.5t7.5 -49.5t-7.5 -49.5t-20.5 -28.5t-30.5 -13.5t-36.5 -3.5z" />
    <glyph glyph-name="j" unicode="j" horiz-adv-x="357" 
d="M42 -29q14 -7 21.5 -9t20.5 -2q10 0 16.5 1.5t10.5 7t5.5 16.5t1.5 30v475l21 9q39 17 75.5 24t78.5 7h15v-515q0 -73 -12.5 -120.5t-37 -75t-62 -38.5t-86.5 -11q-37 0 -66.5 7t-68.5 30zM213 550q-20 0 -37 3.5t-30 13.5t-20.5 28.5t-7.5 49.5t7.5 49.5t20.5 28.5
t30 13.5t37 3.5q19 0 36.5 -3.5t30.5 -13.5t20.5 -28.5t7.5 -49.5t-7.5 -49.5t-20.5 -28.5t-30.5 -13.5t-36.5 -3.5z" />
    <glyph glyph-name="k" unicode="k" horiz-adv-x="611" 
d="M365 0l-105 175h-20v-175h-190v710l21 9q39 17 75.5 24t78.5 7h15v-394h20l107 174h229l-184 -265l184 -265h-231z" />
    <glyph glyph-name="l" unicode="l" horiz-adv-x="383" 
d="M383 27q-39 -23 -68.5 -30t-66.5 -7q-50 0 -87 11t-61.5 38.5t-37 75t-12.5 120.5v475l21 9q39 17 75.5 24t78.5 7h15v-515q0 -19 1.5 -30t5.5 -16.5t10.5 -7t16.5 -1.5q13 0 20.5 2t21.5 9z" />
    <glyph glyph-name="m" unicode="m" horiz-adv-x="922" 
d="M692 0v266q0 29 -2.5 46t-11 25.5t-25.5 11t-46 2.5q-18 0 -27 -7.5t-13.5 -19.5t-5.5 -27t-1 -31v-266h-190v266q0 29 -2.5 46t-11 25.5t-25.5 11t-46 2.5q-18 0 -27 -7.5t-13.5 -19.5t-5 -28t-0.5 -33v-263h-189v530h95l69 -45q16 17 28.5 28t24 17t23 8.5t25.5 2.5
q120 0 182 -63q7 13 17 25t26.5 20t40 13t56.5 5q60 0 106 -15t76.5 -48t46.5 -85.5t16 -126.5v-266h-190z" />
    <glyph glyph-name="n" unicode="n" horiz-adv-x="620" 
d="M390 0v266q0 29 -2.5 46t-11 25.5t-25.5 11t-46 2.5h-21q-17 0 -26.5 -7.5t-13.5 -19.5t-4.5 -28t-0.5 -33v-263h-189v530h95l69 -45q16 17 29 28t26 17t28.5 8.5t37.5 2.5q60 0 106 -15t76.5 -48t46.5 -85.5t16 -126.5v-266h-190z" />
    <glyph glyph-name="o" unicode="o" 
d="M315 -11q-137 0 -206 64.5t-69 210.5t69 210.5t206 64.5t206 -64.5t69 -210.5t-69 -210.5t-206 -64.5zM400 264q0 29 -6.5 46t-18 25.5t-27 11t-33.5 2.5t-33.5 -2.5t-27 -11t-18 -25.5t-6.5 -46t6.5 -46t18 -25.5t27 -11t33.5 -2.5t33.5 2.5t27 11t18 25.5t6.5 46z" />
    <glyph glyph-name="p" unicode="p" horiz-adv-x="640" 
d="M50 -220v750h95l69 -45q16 16 30.5 26.5t30 16.5t33 8.5t40.5 2.5q127 0 189.5 -64.5t62.5 -214.5q0 -73 -15 -124t-47 -83.5t-81 -47t-118 -14.5q-16 0 -28 1t-23.5 3t-22.5 6t-25 10v-231h-190zM325 179q29 0 46 5.5t25.5 16t11 26.5t2.5 37t-2.5 37t-11 26.5t-25.5 16
t-46 5.5h-41q-17 0 -26.5 -6.5t-13.5 -17.5t-4.5 -26t-0.5 -32t0.5 -33t4.5 -28t13.5 -19.5t26.5 -7.5h41z" />
    <glyph glyph-name="q" unicode="q" horiz-adv-x="640" 
d="M400 -220v231q-14 -6 -25 -10t-22.5 -6t-23.5 -3t-28 -1q-69 0 -118 14.5t-81 47t-47 83.5t-15 124q0 75 15.5 128t47 86.5t78.5 49t111 15.5q23 0 40.5 -2.5t33 -8.5t30 -16.5t30.5 -26.5l69 45h95v-750h-190zM356 179q17 0 26.5 7.5t13.5 19.5t4.5 28t0.5 33t-0.5 32
t-4.5 26t-13.5 17.5t-26.5 6.5h-41q-29 0 -46 -5.5t-25.5 -16t-11 -26.5t-2.5 -37t2.5 -37t11 -26.5t25.5 -16t46 -5.5h41z" />
    <glyph glyph-name="r" unicode="r" horiz-adv-x="390" 
d="M50 0v530h95l69 -45q17 20 48 37t72 17q17 0 27 -3t19 -6l-30 -181h-65q-17 0 -26.5 -6.5t-13.5 -17.5t-4.5 -26t-0.5 -32v-267h-190z" />
    <glyph glyph-name="s" unicode="s" horiz-adv-x="520" 
d="M93 186q11 -2 28.5 -7t40 -9.5t47.5 -8t51 -3.5q19 0 25.5 2.5t6.5 7.5t-3.5 10t-6.5 6q-54 13 -97.5 22t-73.5 25.5t-46 46t-16 84.5q0 51 14 85.5t41 55t66.5 29t89.5 8.5q36 0 71 -3.5t65 -9t53 -12.5t35 -14l-53 -153q-16 7 -42.5 12.5t-53.5 9t-50.5 4t-33.5 -1.5
q-8 -2 -10.5 -5.5t-2.5 -5.5q0 -4 4 -7.5t7 -4.5q54 -12 98 -22t76 -27.5t49.5 -48t17.5 -85.5q0 -51 -15 -84.5t-43 -54t-67.5 -29t-88.5 -8.5q-40 0 -79 4.5t-72.5 11t-58.5 14t-36 13.5z" />
    <glyph glyph-name="t" unicode="t" horiz-adv-x="447" 
d="M437 42q-38 -21 -78.5 -34t-91.5 -13q-48 0 -84 14t-60 46t-36.5 85t-12.5 130v90h-64v170h64v84l21 9q39 17 75.5 24t78.5 7h15v-124h142v-170h-142v-94q0 -26 1 -41.5t5 -24.5t11.5 -12t20.5 -3q17 0 30.5 5t37.5 16z" />
    <glyph glyph-name="u" unicode="u" 
d="M485 0l-69 45q-15 -17 -28 -27.5t-26 -17t-27 -9t-32 -2.5q-65 0 -112.5 15.5t-78.5 48.5t-46.5 85t-15.5 126v266h190v-266q0 -29 2.5 -46t11 -25.5t25.5 -11t46 -2.5h21q17 0 26.5 7.5t13.5 19.5t4.5 28t0.5 33v263h189v-530h-95z" />
    <glyph glyph-name="v" unicode="v" horiz-adv-x="562" 
d="M188 0l-145 364q-17 38 -25 74.5t-8 78.5v13h178l49 -154q13 -40 21 -76.5t14 -78.5l9 -71l9 71q6 42 14 78.5t21 76.5l49 154h178v-13q0 -42 -8 -78.5t-25 -74.5l-145 -364h-186z" />
    <glyph glyph-name="w" unicode="w" horiz-adv-x="791" 
d="M462 0l-22 67q-11 38 -19.5 72.5t-16.5 72.5l-9 92l-9 -92q-7 -38 -15.5 -72.5t-19.5 -72.5l-21 -67h-187l-115 368q-9 38 -13.5 73.5t-4.5 74.5v14h180l12 -60q8 -39 14 -74t11 -74l8 -101l10 102q8 38 16 72.5t19 72.5l19 62h191l20 -63q11 -38 19.5 -72t16.5 -73
l11 -101l8 100q5 39 10.5 74t13.5 74l12 61h180v-14q0 -39 -4 -74.5t-13 -73.5l-116 -368h-186z" />
    <glyph glyph-name="x" unicode="x" horiz-adv-x="542" 
d="M374 0l-33 41q-25 31 -40 62t-23 70l-7 31l-7 -32q-9 -38 -24 -69t-40 -63l-33 -40h-157v29q0 40 10.5 71.5t34.5 63.5l88 119l-64 84q-24 32 -34.5 63.5t-10.5 71.5v28h160l5 -9q15 -29 26.5 -55t22.5 -55l23 -67l23 67q11 29 22.5 55t26.5 55l5 9h159v-28
q0 -40 -10.5 -71.5t-34.5 -63.5l-63 -84l88 -119q23 -32 34 -63.5t11 -71.5v-29h-158z" />
    <glyph glyph-name="y" unicode="y" horiz-adv-x="558" 
d="M77 -50q10 -5 16 -5.5t17 -2.5q7 -1 12.5 -0.5t10 4t9 11t9.5 21.5l30 77l-128 271q-23 48 -33 93t-10 98v13h157l65 -139q23 -48 33.5 -93t12.5 -98h2q2 53 12.5 98t33.5 93l65 139h157v-13q0 -53 -10 -98t-32 -93l-167 -361q-20 -43 -38 -77t-40.5 -58t-52.5 -36.5
t-74 -12.5q-24 0 -52 5t-57 22z" />
    <glyph glyph-name="z" unicode="z" horiz-adv-x="537" 
d="M40 0v85q0 19 8 34t19 29l176 212h-203v170h457v-85q0 -19 -8 -34t-19 -29l-176 -212h203v-170h-457z" />
    <glyph glyph-name="braceleft" unicode="{" horiz-adv-x="383" 
d="M383 -173q-39 -23 -68.5 -30t-66.5 -7q-50 0 -87 11t-61.5 38.5t-37 75t-12.5 120.5v183h-70v163h70v124q0 73 12.5 120t37 75t61.5 39t87 11q37 0 66.5 -7t68.5 -30l-67 -164q-14 7 -21.5 9t-20.5 2q-10 0 -16.5 -1.5t-10.5 -7t-5.5 -16.5t-1.5 -30v-470q0 -19 1.5 -30
t5.5 -16.5t10.5 -7t16.5 -1.5q13 0 20.5 2t21.5 9z" />
    <glyph glyph-name="bar" unicode="|" horiz-adv-x="290" 
d="M50 -105v920h190v-920h-190z" />
    <glyph glyph-name="braceright" unicode="}" horiz-adv-x="383" 
d="M313 218v-183q0 -73 -12.5 -120.5t-37 -75t-62 -38.5t-86.5 -11q-37 0 -66.5 7t-68.5 30l67 164q14 -7 21.5 -9t20.5 -2q10 0 16.5 1.5t10.5 7t5.5 16.5t1.5 30v470q0 37 -7.5 46t-26.5 9q-13 0 -20.5 -2t-21.5 -9l-67 164q39 23 68.5 30t66.5 7q49 0 86.5 -11t62 -39
t37 -75t12.5 -120v-124h70v-163h-70z" />
    <glyph glyph-name="asciitilde" unicode="~" horiz-adv-x="609" 
d="M531 198q-20 -29 -55 -47t-83 -18q-32 0 -62.5 11.5t-58.5 23.5q-17 8 -32 14.5t-23 6.5q-6 0 -12.5 -4.5t-11.5 -11.5l-47 -58l-116 124l48 68q20 29 55 47t83 18q33 0 63.5 -11.5t57.5 -23.5q18 -8 33 -14.5t22 -6.5q6 0 12.5 4.5t11.5 11.5l47 58l116 -124z" />
    <glyph glyph-name="nonbreakingspace" unicode="&#xa0;" horiz-adv-x="500" 
 />
    <glyph glyph-name="exclamdown" unicode="&#xa1;" horiz-adv-x="314" 
d="M49 -223l32 451h152l32 -451h-216zM264 390q0 -33 -8.5 -54t-22.5 -32.5t-33.5 -15.5t-41.5 -4t-41.5 4t-34 15.5t-23 32.5t-8.5 54t8.5 54t23 33t34 16t41.5 4t41.5 -4t33.5 -16t22.5 -33t8.5 -54z" />
    <glyph glyph-name="cent" unicode="&#xa2;" horiz-adv-x="552" 
d="M224 -100v100q-98 20 -141 84.5t-43 182.5q0 117 43.5 181.5t140.5 83.5v108h180v-106q38 -7 62.5 -18.5t45.5 -23.5l-67 -164q-19 8 -34 13.5t-28.5 8.5t-26 4t-27.5 1q-33 0 -53 -5t-30 -16t-13 -27.5t-3 -39.5t3 -39.5t13 -27.5t30 -16t53 -5q15 0 27.5 1t26 4
t28.5 8.5t34 13.5l67 -164q-24 -15 -49 -26t-59 -17v-99h-180z" />
    <glyph glyph-name="brokenbar" unicode="&#xa6;" horiz-adv-x="290" 
d="M50 -105v378h190v-378h-190zM50 436v379h190v-379h-190z" />
    <glyph glyph-name="dieresis" unicode="&#xa8;" horiz-adv-x="489" 
d="M348 568q-19 0 -35.5 3t-29 12.5t-19.5 27.5t-7 48t7 48t19.5 27.5t29 12.5t35.5 3t35.5 -3t29 -12.5t19.5 -27.5t7 -48t-7 -48t-19.5 -27.5t-29 -12.5t-35.5 -3zM141 568q-19 0 -35.5 3t-29 12.5t-19.5 27.5t-7 48t7 48t19.5 27.5t29 12.5t35.5 3t35.5 -3t29 -12.5
t19.5 -27.5t7 -48t-7 -48t-19.5 -27.5t-29 -12.5t-35.5 -3z" />
    <glyph glyph-name="copyright" unicode="&#xa9;" horiz-adv-x="836" 
d="M418 -12q-76 0 -143 29t-117 79t-79 117t-29 143t29 143t79 117t117 79t143 29t143 -29t117 -79t79 -117t29 -143t-29 -143t-79 -117t-117 -79t-143 -29zM696 356q0 58 -22 108.5t-59.5 88t-88 59.5t-108.5 22t-108.5 -22t-88 -59.5t-59.5 -88t-22 -108.5t22 -108.5
t59.5 -88t88 -59.5t108.5 -22t108.5 22t88 59.5t59.5 88t22 108.5zM548 203q-12 -8 -43.5 -20.5t-71.5 -12.5q-85 0 -129 42.5t-44 140.5q0 97 44 140t129 43q42 0 73 -12.5t42 -20.5l-38 -94q-20 9 -43.5 13.5t-36.5 4.5q-14 0 -25.5 -2.5t-19.5 -10t-12 -22t-4 -39.5
t4 -40t12 -22.5t19.5 -9.5t25.5 -2q13 0 36.5 4.5t43.5 12.5z" />
    <glyph glyph-name="guillemotleft" unicode="&#xab;" horiz-adv-x="614" 
d="M130 93l-100 186l110 188l164 -95l-56 -96l50 -94zM400 93l-100 186l110 188l164 -95l-56 -96l50 -94z" />
    <glyph glyph-name="logicalnot" unicode="&#xac;" 
d="M460 78v227h-410v120h530v-347h-120z" />
    <glyph glyph-name="registered" unicode="&#xae;" horiz-adv-x="836" 
d="M418 -12q-76 0 -143 29t-117 79t-79 117t-29 143t29 143t79 117t117 79t143 29t143 -29t117 -79t79 -117t29 -143t-29 -143t-79 -117t-117 -79t-143 -29zM696 356q0 58 -22 108.5t-59.5 88t-88 59.5t-108.5 22t-108.5 -22t-88 -59.5t-59.5 -88t-22 -108.5t22 -108.5
t59.5 -88t88 -59.5t108.5 -22t108.5 22t88 59.5t59.5 88t22 108.5zM450 175l-42 112h-28v-112h-110v355h171q22 0 43.5 -2.5t38 -14t27 -36.5t10.5 -70q0 -41 -12 -65t-32 -37l51 -130h-117zM425 382q11 0 18 3.5t7 21.5t-7 21.5t-18 3.5h-45v-50h45z" />
    <glyph glyph-name="degree" unicode="&#xb0;" horiz-adv-x="422" 
d="M294 563q0 34 -24.5 58.5t-58.5 24.5t-58.5 -24.5t-24.5 -58.5t24.5 -58.5t58.5 -24.5t58.5 24.5t24.5 58.5zM211 402q-33 0 -62.5 12.5t-51.5 34.5t-34.5 51.5t-12.5 62.5t12.5 62.5t34.5 51.5t51.5 34.5t62.5 12.5t62.5 -12.5t51.5 -34.5t34.5 -51.5t12.5 -62.5
t-12.5 -62.5t-34.5 -51.5t-51.5 -34.5t-62.5 -12.5z" />
    <glyph glyph-name="plusminus" unicode="&#xb1;" 
d="M375 354v-124h-120v124h-205v120h205v124h120v-124h205v-120h-205zM50 80v120h530v-120h-530z" />
    <glyph glyph-name="acute" unicode="&#xb4;" horiz-adv-x="357" 
d="M80 570l-30 64l196 124l61 -129z" />
    <glyph glyph-name="paragraph" unicode="&#xb6;" horiz-adv-x="660" 
d="M490 -152v774h-97v-774h-120v515q-109 0 -166 45t-57 126q0 54 19 88.5t52 54.5t78 27.5t97 7.5h314v-864h-120z" />
    <glyph glyph-name="periodcentered" unicode="&#xb7;" horiz-adv-x="256" 
d="M128 203q-16 0 -30.5 3t-25 12t-16.5 24t-6 39t6 39t16.5 24t25 12t30.5 3t30.5 -3t25 -12t16.5 -24t6 -39t-6 -39t-16.5 -24t-25 -12t-30.5 -3z" />
    <glyph glyph-name="cedilla" unicode="&#xb8;" horiz-adv-x="288" 
d="M76 -156q15 -6 25 -8t22 -2q26 0 32.5 3t6.5 22q0 18 -6.5 21.5t-32.5 3.5h-7h-23.5t-17.5 4.5t-9.5 15t0.5 30.5l14 107l9 4q16 6 30 9t31 3h6l-14 -99q51 -4 73.5 -25t22.5 -74q0 -57 -25.5 -78.5t-85.5 -21.5q-29 0 -46 5.5t-31 14.5z" />
    <glyph glyph-name="guillemotright" unicode="&#xbb;" horiz-adv-x="614" 
d="M316 182l50 94l-56 96l164 95l110 -188l-100 -186zM46 182l50 94l-56 96l164 95l110 -188l-100 -186z" />
    <glyph glyph-name="questiondown" unicode="&#xbf;" horiz-adv-x="581" 
d="M551 -179q-13 -9 -40.5 -18.5t-61.5 -17.5t-71 -13t-69 -5q-52 0 -100.5 15t-86 43.5t-60 69.5t-22.5 94q0 43 11 73.5t27.5 53t36 38.5t35 30t25.5 27t8 29h223q0 -35 -12 -66t-31.5 -57t-43 -46.5t-45.5 -33.5q-11 -7 -15 -16.5t-4 -20.5q0 -8 6 -12.5t15 -7t19.5 -3.5
t18.5 -1q19 0 42.5 2.5t46.5 6.5t44.5 10t37.5 13zM396 392q0 -33 -8.5 -54t-23 -32.5t-34 -15.5t-41.5 -4t-41.5 4t-33.5 15.5t-22.5 32.5t-8.5 54t8.5 54t22.5 33t33.5 16t41.5 4t41.5 -4t34 -16t23 -33t8.5 -54z" />
    <glyph glyph-name="Agrave" unicode="&#xc0;" horiz-adv-x="636" 
d="M447 0l-30 100h-192l-29 -100h-186v43q0 53 8 98.5t27 95.5l174 473h202l171 -472q18 -50 26 -95.5t8 -98.5v-44h-179zM356 310q-11 49 -18 100l-18 118l-19 -118q-7 -51 -18 -100h73zM189 809l61 129l196 -124l-30 -64z" />
    <glyph glyph-name="Aacute" unicode="&#xc1;" horiz-adv-x="636" 
d="M447 0l-30 100h-192l-29 -100h-186v43q0 53 8 98.5t27 95.5l174 473h202l171 -472q18 -50 26 -95.5t8 -98.5v-44h-179zM356 310q-11 49 -18 100l-18 118l-19 -118q-7 -51 -18 -100h73zM219 750l-30 64l196 124l61 -129z" />
    <glyph glyph-name="Acircumflex" unicode="&#xc2;" horiz-adv-x="636" 
d="M447 0l-30 100h-192l-29 -100h-186v43q0 53 8 98.5t27 95.5l174 473h202l171 -472q18 -50 26 -95.5t8 -98.5v-44h-179zM356 310q-11 49 -18 100l-18 118l-19 -118q-7 -51 -18 -100h73zM318 825l-126 -75l-61 129l187 59l187 -59l-61 -129z" />
    <glyph glyph-name="Atilde" unicode="&#xc3;" horiz-adv-x="636" 
d="M447 0l-30 100h-192l-29 -100h-186v43q0 53 8 98.5t27 95.5l174 473h202l171 -472q18 -50 26 -95.5t8 -98.5v-44h-179zM356 310q-11 49 -18 100l-18 118l-19 -118q-7 -51 -18 -100h73zM455 803q-13 -18 -35 -28.5t-46 -10.5q-15 0 -33.5 5t-41.5 16q-11 5 -19.5 9
t-13.5 4q-4 0 -7.5 -3t-6.5 -7l-29 -35l-70 86l29 40q13 17 34 28t47 11q22 0 40.5 -6.5t34.5 -14.5q11 -5 20 -9t13 -4q3 0 7 3t7 7l29 35l69 -86z" />
    <glyph glyph-name="Adieresis" unicode="&#xc4;" horiz-adv-x="636" 
d="M447 0l-30 100h-192l-29 -100h-186v43q0 53 8 98.5t27 95.5l174 473h202l171 -472q18 -50 26 -95.5t8 -98.5v-44h-179zM356 310q-11 49 -18 100l-18 118l-19 -118q-7 -51 -18 -100h73zM421 748q-19 0 -35.5 3t-29 12.5t-19.5 27.5t-7 48t7 48t19.5 27.5t29 12.5t35.5 3
t35.5 -3t29 -12.5t19.5 -27.5t7 -48t-7 -48t-19.5 -27.5t-29 -12.5t-35.5 -3zM214 748q-19 0 -35.5 3t-29 12.5t-19.5 27.5t-7 48t7 48t19.5 27.5t29 12.5t35.5 3t35.5 -3t29 -12.5t19.5 -27.5t7 -48t-7 -48t-19.5 -27.5t-29 -12.5t-35.5 -3z" />
    <glyph glyph-name="Aring" unicode="&#xc5;" horiz-adv-x="636" 
d="M447 0l-30 100h-192l-29 -100h-186v43q0 53 8 98.5t27 95.5l174 473h202l171 -472q18 -50 26 -95.5t8 -98.5v-44h-179zM356 310q-11 49 -18 100l-18 118l-19 -118q-7 -51 -18 -100h73zM318 749q-16 0 -29.5 2.5t-24 10.5t-16.5 23t-6 40t6 40t16.5 23t24 10.5t29.5 2.5
t29.5 -2.5t24 -10.5t16.5 -23t6 -40t-6 -40t-16.5 -23t-24 -10.5t-29.5 -2.5zM318 779q19 0 32.5 8t13.5 38t-13.5 38t-32.5 8t-32.5 -8t-13.5 -38t13.5 -38t32.5 -8z" />
    <glyph glyph-name="AE" unicode="&#xc6;" horiz-adv-x="801" 
d="M322 0v100h-97l-29 -100h-186v43q0 53 8 98.5t27 95.5l174 473h542v-205h-219v-50h199v-200h-199v-50h219v-205h-439zM322 515l-2 13l-19 -118q-7 -51 -18 -100h39v205z" />
    <glyph glyph-name="Ccedilla" unicode="&#xc7;" horiz-adv-x="657" 
d="M320 -156q15 -6 25 -8t22 -2q26 0 32.5 3t6.5 22q0 18 -6.5 21.5t-32.5 3.5h-7h-23.5t-17.5 4.5t-9.5 15t0.5 30.5l8 60q-136 16 -207 102t-71 260q0 97 22.5 166.5t66.5 113.5t108.5 65t148.5 21q42 0 79 -7.5t67 -18t51.5 -21.5t33.5 -19l-76 -187q-20 9 -42.5 15.5
t-44.5 11t-41.5 6.5t-32.5 2q-29 0 -51 -4.5t-38 -19.5t-24 -44.5t-8 -79.5t8 -79t24 -44.5t38 -20t51 -4.5q13 0 32.5 2t41.5 6.5t44.5 11t42.5 15.5l76 -187q-12 -8 -34.5 -19.5t-52 -21.5t-65 -17.5t-75.5 -7.5l-4 -32q51 -4 73.5 -25t22.5 -74q0 -57 -25.5 -78.5
t-85.5 -21.5q-29 0 -46 5.5t-31 14.5z" />
    <glyph glyph-name="Egrave" unicode="&#xc8;" horiz-adv-x="579" 
d="M50 0v710h479v-205h-259v-50h239v-200h-239v-50h259v-205h-479zM161 809l61 129l196 -124l-30 -64z" />
    <glyph glyph-name="Eacute" unicode="&#xc9;" horiz-adv-x="579" 
d="M50 0v710h479v-205h-259v-50h239v-200h-239v-50h259v-205h-479zM191 750l-30 64l196 124l61 -129z" />
    <glyph glyph-name="Ecircumflex" unicode="&#xca;" horiz-adv-x="579" 
d="M50 0v710h479v-205h-259v-50h239v-200h-239v-50h259v-205h-479zM289 825l-126 -75l-61 129l187 59l187 -59l-61 -129z" />
    <glyph glyph-name="Edieresis" unicode="&#xcb;" horiz-adv-x="579" 
d="M50 0v710h479v-205h-259v-50h239v-200h-239v-50h259v-205h-479zM388 748q-19 0 -35.5 3t-29 12.5t-19.5 27.5t-7 48t7 48t19.5 27.5t29 12.5t35.5 3t35.5 -3t29 -12.5t19.5 -27.5t7 -48t-7 -48t-19.5 -27.5t-29 -12.5t-35.5 -3zM181 748q-19 0 -35.5 3t-29 12.5
t-19.5 27.5t-7 48t7 48t19.5 27.5t29 12.5t35.5 3t35.5 -3t29 -12.5t19.5 -27.5t7 -48t-7 -48t-19.5 -27.5t-29 -12.5t-35.5 -3z" />
    <glyph glyph-name="Igrave" unicode="&#xcc;" horiz-adv-x="320" 
d="M50 0v710h220v-710h-220zM33 809l61 129l196 -124l-30 -64z" />
    <glyph glyph-name="Iacute" unicode="&#xcd;" horiz-adv-x="320" 
d="M50 0v710h220v-710h-220zM63 750l-30 64l196 124l61 -129z" />
    <glyph glyph-name="Icircumflex" unicode="&#xce;" horiz-adv-x="320" 
d="M50 0v710h220v-710h-220zM161 825l-126 -75l-61 129l187 59l187 -59l-61 -129z" />
    <glyph glyph-name="Idieresis" unicode="&#xcf;" horiz-adv-x="320" 
d="M50 0v710h220v-710h-220zM265 748q-19 0 -35.5 3t-29 12.5t-19.5 27.5t-7 48t7 48t19.5 27.5t29 12.5t35.5 3t35.5 -3t29 -12.5t19.5 -27.5t7 -48t-7 -48t-19.5 -27.5t-29 -12.5t-35.5 -3zM58 748q-19 0 -35.5 3t-29 12.5t-19.5 27.5t-7 48t7 48t19.5 27.5t29 12.5
t35.5 3t35.5 -3t29 -12.5t19.5 -27.5t7 -48t-7 -48t-19.5 -27.5t-29 -12.5t-35.5 -3z" />
    <glyph glyph-name="Eth" unicode="&#xd0;" horiz-adv-x="710" 
d="M50 0v273h-50v163h50v274h255q91 0 159.5 -19t114 -61t68.5 -109.5t23 -164.5t-21.5 -165t-65 -110.5t-110.5 -61.5t-158 -19h-265zM269 273v-65h44q27 0 52.5 4.5t44.5 19.5t30.5 44.5t11.5 79.5t-11.5 79t-31.5 44t-47 19t-57 4h-36v-66h67v-163h-67z" />
    <glyph glyph-name="Ntilde" unicode="&#xd1;" horiz-adv-x="722" 
d="M501 0l-251 364l10 -85q5 -42 7.5 -79.5t2.5 -79.5v-120h-220v710h171l251 -367l-10 88q-5 42 -7.5 79.5t-2.5 79.5v120h220v-710h-171zM498 803q-13 -18 -35 -28.5t-46 -10.5q-15 0 -33.5 5t-41.5 16q-11 5 -19.5 9t-13.5 4q-4 0 -7.5 -3t-6.5 -7l-29 -35l-70 86l29 40
q13 17 34 28t47 11q22 0 40.5 -6.5t34.5 -14.5q11 -5 20 -9t13 -4q3 0 7 3t7 7l29 35l69 -86z" />
    <glyph glyph-name="Ograve" unicode="&#xd2;" horiz-adv-x="771" 
d="M386 -10q-84 0 -148.5 21t-108.5 65t-66.5 113.5t-22.5 166.5t22.5 166.5t66.5 113.5t108.5 65t148.5 21t148 -21t108 -65t66.5 -113.5t22.5 -166.5t-22.5 -166.5t-66.5 -113.5t-108 -65t-148 -21zM386 209q30 0 54 4.5t40 19.5t24.5 44t8.5 79t-8.5 79.5t-24.5 44.5
t-40 19t-54 4q-31 0 -54.5 -4t-39.5 -19t-24.5 -44.5t-8.5 -79.5t8.5 -79t24.5 -44t39.5 -19.5t54.5 -4.5zM257 809l61 129l196 -124l-30 -64z" />
    <glyph glyph-name="Oacute" unicode="&#xd3;" horiz-adv-x="771" 
d="M386 -10q-84 0 -148.5 21t-108.5 65t-66.5 113.5t-22.5 166.5t22.5 166.5t66.5 113.5t108.5 65t148.5 21t148 -21t108 -65t66.5 -113.5t22.5 -166.5t-22.5 -166.5t-66.5 -113.5t-108 -65t-148 -21zM386 209q30 0 54 4.5t40 19.5t24.5 44t8.5 79t-8.5 79.5t-24.5 44.5
t-40 19t-54 4q-31 0 -54.5 -4t-39.5 -19t-24.5 -44.5t-8.5 -79.5t8.5 -79t24.5 -44t39.5 -19.5t54.5 -4.5zM287 750l-30 64l196 124l61 -129z" />
    <glyph glyph-name="Ocircumflex" unicode="&#xd4;" horiz-adv-x="771" 
d="M386 -10q-84 0 -148.5 21t-108.5 65t-66.5 113.5t-22.5 166.5t22.5 166.5t66.5 113.5t108.5 65t148.5 21t148 -21t108 -65t66.5 -113.5t22.5 -166.5t-22.5 -166.5t-66.5 -113.5t-108 -65t-148 -21zM386 209q30 0 54 4.5t40 19.5t24.5 44t8.5 79t-8.5 79.5t-24.5 44.5
t-40 19t-54 4q-31 0 -54.5 -4t-39.5 -19t-24.5 -44.5t-8.5 -79.5t8.5 -79t24.5 -44t39.5 -19.5t54.5 -4.5zM385 825l-126 -75l-61 129l187 59l187 -59l-61 -129z" />
    <glyph glyph-name="Otilde" unicode="&#xd5;" horiz-adv-x="771" 
d="M386 -10q-84 0 -148.5 21t-108.5 65t-66.5 113.5t-22.5 166.5t22.5 166.5t66.5 113.5t108.5 65t148.5 21t148 -21t108 -65t66.5 -113.5t22.5 -166.5t-22.5 -166.5t-66.5 -113.5t-108 -65t-148 -21zM386 209q30 0 54 4.5t40 19.5t24.5 44t8.5 79t-8.5 79.5t-24.5 44.5
t-40 19t-54 4q-31 0 -54.5 -4t-39.5 -19t-24.5 -44.5t-8.5 -79.5t8.5 -79t24.5 -44t39.5 -19.5t54.5 -4.5zM522 803q-13 -18 -35 -28.5t-46 -10.5q-15 0 -33.5 5t-41.5 16q-11 5 -19.5 9t-13.5 4q-4 0 -7.5 -3t-6.5 -7l-29 -35l-70 86l29 40q13 17 34 28t47 11
q22 0 40.5 -6.5t34.5 -14.5q11 -5 20 -9t13 -4q3 0 7 3t7 7l29 35l69 -86z" />
    <glyph glyph-name="Odieresis" unicode="&#xd6;" horiz-adv-x="791" 
d="M396 -10q-84 0 -148.5 21t-108.5 65t-66.5 113.5t-22.5 166.5t22.5 166.5t66.5 113.5t108.5 65t148.5 21t148 -21t108 -65t66.5 -113.5t22.5 -166.5t-22.5 -166.5t-66.5 -113.5t-108 -65t-148 -21zM396 209q30 0 54 4.5t40 19.5t24.5 44t8.5 79t-8.5 79.5t-24.5 44.5
t-40 19t-54 4q-31 0 -54.5 -4t-39.5 -19t-24.5 -44.5t-8.5 -79.5t8.5 -79t24.5 -44t39.5 -19.5t54.5 -4.5zM499 748q-19 0 -35.5 3t-29 12.5t-19.5 27.5t-7 48t7 48t19.5 27.5t29 12.5t35.5 3t35.5 -3t29 -12.5t19.5 -27.5t7 -48t-7 -48t-19.5 -27.5t-29 -12.5t-35.5 -3z
M292 748q-19 0 -35.5 3t-29 12.5t-19.5 27.5t-7 48t7 48t19.5 27.5t29 12.5t35.5 3t35.5 -3t29 -12.5t19.5 -27.5t7 -48t-7 -48t-19.5 -27.5t-29 -12.5t-35.5 -3z" />
    <glyph glyph-name="multiply" unicode="&#xd7;" horiz-adv-x="573" 
d="M286 239l-120 -121l-116 116l121 120l-121 121l116 116l121 -121l120 121l116 -116l-121 -120l121 -121l-116 -116z" />
    <glyph glyph-name="Oslash" unicode="&#xd8;" horiz-adv-x="771" 
d="M16 64l66 78q-42 82 -42 214q0 97 22.5 166.5t66.5 113.5t108.5 65t148.5 21q47 0 86.5 -6t74.5 -20l61 73l146 -123l-65 -77q42 -83 42 -213q0 -97 -22.5 -166.5t-66.5 -113.5t-108 -65t-148 -21q-94 0 -162 25l-62 -74zM386 209q30 0 54 4.5t40 19.5t24.5 44t8.5 79
t-8.5 79.5t-24.5 44.5t-40 19t-54 4q-31 0 -54.5 -4t-39.5 -19t-24.5 -44.5t-8.5 -79.5t8.5 -79t24.5 -44t39.5 -19.5t54.5 -4.5z" />
    <glyph glyph-name="Ugrave" unicode="&#xd9;" horiz-adv-x="738" 
d="M460 710h218v-419q0 -90 -24.5 -148.5t-67 -92.5t-98.5 -47.5t-119 -13.5t-119.5 13.5t-98.5 47.5t-66.5 92.5t-24.5 148.5v419h218v-412q0 -37 5.5 -57.5t17 -30t28 -11t39.5 -1.5q22 0 39.5 1.5t29 11t17.5 30t6 57.5v412zM240 809l61 129l196 -124l-30 -64z" />
    <glyph glyph-name="Uacute" unicode="&#xda;" horiz-adv-x="738" 
d="M460 710h218v-419q0 -90 -24.5 -148.5t-67 -92.5t-98.5 -47.5t-119 -13.5t-119.5 13.5t-98.5 47.5t-66.5 92.5t-24.5 148.5v419h218v-412q0 -37 5.5 -57.5t17 -30t28 -11t39.5 -1.5q22 0 39.5 1.5t29 11t17.5 30t6 57.5v412zM270 750l-30 64l196 124l61 -129z" />
    <glyph glyph-name="Ucircumflex" unicode="&#xdb;" horiz-adv-x="738" 
d="M460 710h218v-419q0 -90 -24.5 -148.5t-67 -92.5t-98.5 -47.5t-119 -13.5t-119.5 13.5t-98.5 47.5t-66.5 92.5t-24.5 148.5v419h218v-412q0 -37 5.5 -57.5t17 -30t28 -11t39.5 -1.5q22 0 39.5 1.5t29 11t17.5 30t6 57.5v412zM369 825l-126 -75l-61 129l187 59l187 -59
l-61 -129z" />
    <glyph glyph-name="Udieresis" unicode="&#xdc;" horiz-adv-x="738" 
d="M460 710h218v-419q0 -90 -24.5 -148.5t-67 -92.5t-98.5 -47.5t-119 -13.5t-119.5 13.5t-98.5 47.5t-66.5 92.5t-24.5 148.5v419h218v-412q0 -37 5.5 -57.5t17 -30t28 -11t39.5 -1.5q22 0 39.5 1.5t29 11t17.5 30t6 57.5v412zM472 748q-19 0 -35.5 3t-29 12.5t-19.5 27.5
t-7 48t7 48t19.5 27.5t29 12.5t35.5 3t35.5 -3t29 -12.5t19.5 -27.5t7 -48t-7 -48t-19.5 -27.5t-29 -12.5t-35.5 -3zM265 748q-19 0 -35.5 3t-29 12.5t-19.5 27.5t-7 48t7 48t19.5 27.5t29 12.5t35.5 3t35.5 -3t29 -12.5t19.5 -27.5t7 -48t-7 -48t-19.5 -27.5t-29 -12.5
t-35.5 -3z" />
    <glyph glyph-name="Yacute" unicode="&#xdd;" horiz-adv-x="614" 
d="M197 0v221l-129 269q-11 24 -21.5 45.5t-18.5 43t-13 44.5t-5 49v38h179l39 -88q22 -49 36 -93.5t26 -95.5l17 -83l17 83q12 51 26.5 96t35.5 93l38 88h180v-39q0 -26 -4.5 -49t-12.5 -44.5t-18.5 -43t-22.5 -45.5l-129 -268v-221h-220zM208 750l-30 64l196 124l61 -129z
" />
    <glyph glyph-name="Thorn" unicode="&#xde;" horiz-adv-x="625" 
d="M50 0v710h220v-100h102q45 0 87.5 -4.5t76 -28t54 -73t20.5 -139.5t-20.5 -140.5t-54 -74.5t-76.5 -29.5t-87 -5.5h-102v-115h-220zM340 315q10 0 19.5 1t16 6t10.5 15t4 28t-4 28t-10.5 15t-16 6t-19.5 1h-70v-100h70z" />
    <glyph glyph-name="germandbls" unicode="&#xdf;" horiz-adv-x="620" 
d="M310 0v195h30q10 0 19.5 1t16 5.5t10.5 13.5t4 25q0 31 -14.5 38t-35.5 7h-30v189h30h19.5t16 3t10.5 9.5t4 18.5q0 21 -11 25t-31 4q-28 0 -48.5 -3.5t-34 -15.5t-20 -35t-6.5 -63v-417h-189v356q0 102 15 172t51.5 113t97.5 62t152 19q11 0 29.5 -1t40 -7t43.5 -18
t40 -34t29.5 -56t11.5 -83q0 -35 -6 -58t-15.5 -39.5t-23 -28.5t-28.5 -25v-3q49 -17 71 -66t22 -112q0 -72 -24 -110.5t-60 -56.5t-77.5 -21t-76.5 -3h-32z" />
    <glyph glyph-name="agrave" unicode="&#xe0;" horiz-adv-x="563" 
d="M428 0l-69 45q-12 -17 -26 -27.5t-27.5 -17t-26 -9t-20.5 -2.5q-66 0 -110 7t-72 24t-40.5 46.5t-15.5 74.5q-3 46 6 77t30.5 50t57.5 27t88 8h122q-1 17 -7.5 26.5t-17 14t-24 5t-28.5 0.5q-24 0 -41 -1t-32.5 -3t-33 -6t-41.5 -11l-56 172q30 11 80 25t127 14
q135 0 203.5 -64.5t68.5 -210.5v-264h-95zM242 183q-19 0 -23 -8t-4 -19t4 -19t23 -8h22q12 0 24 1.5t20.5 6.5t13 16t2.5 30h-82zM153 629l61 129l196 -124l-30 -64z" />
    <glyph glyph-name="aacute" unicode="&#xe1;" horiz-adv-x="563" 
d="M428 0l-69 45q-12 -17 -26 -27.5t-27.5 -17t-26 -9t-20.5 -2.5q-66 0 -110 7t-72 24t-40.5 46.5t-15.5 74.5q-3 46 6 77t30.5 50t57.5 27t88 8h122q-1 17 -7.5 26.5t-17 14t-24 5t-28.5 0.5q-24 0 -41 -1t-32.5 -3t-33 -6t-41.5 -11l-56 172q30 11 80 25t127 14
q135 0 203.5 -64.5t68.5 -210.5v-264h-95zM242 183q-19 0 -23 -8t-4 -19t4 -19t23 -8h22q12 0 24 1.5t20.5 6.5t13 16t2.5 30h-82zM183 570l-30 64l196 124l61 -129z" />
    <glyph glyph-name="acircumflex" unicode="&#xe2;" horiz-adv-x="563" 
d="M428 0l-69 45q-12 -17 -26 -27.5t-27.5 -17t-26 -9t-20.5 -2.5q-66 0 -110 7t-72 24t-40.5 46.5t-15.5 74.5q-3 46 6 77t30.5 50t57.5 27t88 8h122q-1 17 -7.5 26.5t-17 14t-24 5t-28.5 0.5q-24 0 -41 -1t-32.5 -3t-33 -6t-41.5 -11l-56 172q30 11 80 25t127 14
q135 0 203.5 -64.5t68.5 -210.5v-264h-95zM242 183q-19 0 -23 -8t-4 -19t4 -19t23 -8h22q12 0 24 1.5t20.5 6.5t13 16t2.5 30h-82zM281 645l-126 -75l-61 129l187 59l187 -59l-61 -129z" />
    <glyph glyph-name="atilde" unicode="&#xe3;" horiz-adv-x="563" 
d="M428 0l-69 45q-12 -17 -26 -27.5t-27.5 -17t-26 -9t-20.5 -2.5q-66 0 -110 7t-72 24t-40.5 46.5t-15.5 74.5q-3 46 6 77t30.5 50t57.5 27t88 8h122q-1 17 -7.5 26.5t-17 14t-24 5t-28.5 0.5q-24 0 -41 -1t-32.5 -3t-33 -6t-41.5 -11l-56 172q30 11 80 25t127 14
q135 0 203.5 -64.5t68.5 -210.5v-264h-95zM242 183q-19 0 -23 -8t-4 -19t4 -19t23 -8h22q12 0 24 1.5t20.5 6.5t13 16t2.5 30h-82zM418 623q-13 -18 -35 -28.5t-46 -10.5q-15 0 -33.5 5t-41.5 16q-11 5 -19.5 9t-13.5 4q-4 0 -7.5 -3t-6.5 -7l-29 -35l-70 86l29 40
q13 17 34 28t47 11q22 0 40.5 -6.5t34.5 -14.5q11 -5 20 -9t13 -4q3 0 7 3t7 7l29 35l69 -86z" />
    <glyph glyph-name="adieresis" unicode="&#xe4;" horiz-adv-x="563" 
d="M428 0l-69 45q-12 -17 -26 -27.5t-27.5 -17t-26 -9t-20.5 -2.5q-66 0 -110 7t-72 24t-40.5 46.5t-15.5 74.5q-3 46 6 77t30.5 50t57.5 27t88 8h122q-1 17 -7.5 26.5t-17 14t-24 5t-28.5 0.5q-24 0 -41 -1t-32.5 -3t-33 -6t-41.5 -11l-56 172q30 11 80 25t127 14
q135 0 203.5 -64.5t68.5 -210.5v-264h-95zM242 183q-19 0 -23 -8t-4 -19t4 -19t23 -8h22q12 0 24 1.5t20.5 6.5t13 16t2.5 30h-82zM375 568q-19 0 -35.5 3t-29 12.5t-19.5 27.5t-7 48t7 48t19.5 27.5t29 12.5t35.5 3t35.5 -3t29 -12.5t19.5 -27.5t7 -48t-7 -48t-19.5 -27.5
t-29 -12.5t-35.5 -3zM168 568q-19 0 -35.5 3t-29 12.5t-19.5 27.5t-7 48t7 48t19.5 27.5t29 12.5t35.5 3t35.5 -3t29 -12.5t19.5 -27.5t7 -48t-7 -48t-19.5 -27.5t-29 -12.5t-35.5 -3z" />
    <glyph glyph-name="aring" unicode="&#xe5;" horiz-adv-x="563" 
d="M428 0l-69 45q-12 -17 -26 -27.5t-27.5 -17t-26 -9t-20.5 -2.5q-66 0 -110 7t-72 24t-40.5 46.5t-15.5 74.5q-3 46 6 77t30.5 50t57.5 27t88 8h122q-1 17 -7.5 26.5t-17 14t-24 5t-28.5 0.5q-24 0 -41 -1t-32.5 -3t-33 -6t-41.5 -11l-56 172q30 11 80 25t127 14
q135 0 203.5 -64.5t68.5 -210.5v-264h-95zM242 183q-19 0 -23 -8t-4 -19t4 -19t23 -8h22q12 0 24 1.5t20.5 6.5t13 16t2.5 30h-82zM281 569q-16 0 -29.5 2.5t-24 10.5t-16.5 23t-6 40t6 40t16.5 23t24 10.5t29.5 2.5t29.5 -2.5t24 -10.5t16.5 -23t6 -40t-6 -40t-16.5 -23
t-24 -10.5t-29.5 -2.5zM281 599q19 0 32.5 8t13.5 38t-13.5 38t-32.5 8t-32.5 -8t-13.5 -38t13.5 -38t32.5 -8z" />
    <glyph glyph-name="ae" unicode="&#xe6;" horiz-adv-x="895" 
d="M844 30q-15 -6 -38 -13t-52 -13t-63.5 -10.5t-73.5 -4.5q-55 0 -102 11h-67l-69 45q-12 -17 -26 -27.5t-27.5 -17t-26 -9t-20.5 -2.5q-66 0 -110 7t-72 24t-40.5 46.5t-15.5 74.5q-3 46 6 77t30.5 50t57.5 27t88 8h122q-1 17 -7.5 26.5t-17 14t-24 5t-28.5 0.5
q-24 0 -44 -1.5t-39.5 -4t-40 -6.5t-44.5 -11l-56 172q15 6 38 13t52 13t63.5 10.5t73.5 4.5q107 0 171 -39q31 20 70.5 29.5t87.5 9.5q61 0 108.5 -15.5t80 -49t49.5 -85.5t17 -125q-48 -26 -92.5 -32.5t-97.5 -6.5h-122q1 -17 7.5 -26.5t17 -14t24 -5t28.5 -0.5
q24 0 44 1.5t39.5 4t40 6.5t44.5 11zM656 305q1 21 -4 32t-13.5 16t-18 5.5t-16.5 0.5q-12 0 -24 -1.5t-20.5 -6.5t-13 -16t-2.5 -30h112zM262 183q-19 0 -23 -8t-4 -19t4 -19t23 -8h22q12 0 24 1.5t20.5 6.5t13 16t2.5 30h-82z" />
    <glyph glyph-name="ccedilla" unicode="&#xe7;" horiz-adv-x="552" 
d="M250 -156q15 -6 25 -8t22 -2q26 0 32.5 3t6.5 22q0 18 -6.5 21.5t-32.5 3.5h-7h-23.5t-17.5 4.5t-9.5 15t0.5 30.5l8 63q-110 14 -159 80t-49 190q0 71 16 123t50 85.5t87 49.5t127 16q40 0 69.5 -4.5t52 -11t39 -15.5t31.5 -18l-67 -164q-19 8 -34 13.5t-28.5 8.5t-26 4
t-27.5 1q-33 0 -53 -5t-30 -16t-13 -27.5t-3 -39.5t3 -39.5t13 -27.5t30 -16t53 -5q15 0 27.5 1t26 4t28.5 8.5t34 13.5l67 -164q-18 -11 -37 -20t-41.5 -15.5t-50 -10.5t-62.5 -4l-5 -34q51 -4 73.5 -25t22.5 -74q0 -57 -25.5 -78.5t-85.5 -21.5q-29 0 -46 5.5t-31 14.5z
" />
    <glyph glyph-name="egrave" unicode="&#xe8;" horiz-adv-x="590" 
d="M539 30q-15 -6 -38 -13t-52 -13t-63.5 -10.5t-73.5 -4.5q-135 0 -203.5 64.5t-68.5 210.5q0 73 17 125t49.5 85.5t80 49t108.5 15.5t108.5 -15.5t80 -49t49.5 -85.5t17 -125q-48 -26 -92.5 -32.5t-97.5 -6.5h-122q1 -17 7.5 -26.5t17 -14t24 -5t28.5 -0.5q24 0 44 1.5
t39.5 4t40 6.5t44.5 11zM351 305q1 21 -4 32t-13.5 16t-18 5.5t-16.5 0.5q-12 0 -24 -1.5t-20.5 -6.5t-13 -16t-2.5 -30h112zM166 629l61 129l196 -124l-30 -64z" />
    <glyph glyph-name="eacute" unicode="&#xe9;" horiz-adv-x="590" 
d="M539 30q-15 -6 -38 -13t-52 -13t-63.5 -10.5t-73.5 -4.5q-135 0 -203.5 64.5t-68.5 210.5q0 73 17 125t49.5 85.5t80 49t108.5 15.5t108.5 -15.5t80 -49t49.5 -85.5t17 -125q-48 -26 -92.5 -32.5t-97.5 -6.5h-122q1 -17 7.5 -26.5t17 -14t24 -5t28.5 -0.5q24 0 44 1.5
t39.5 4t40 6.5t44.5 11zM351 305q1 21 -4 32t-13.5 16t-18 5.5t-16.5 0.5q-12 0 -24 -1.5t-20.5 -6.5t-13 -16t-2.5 -30h112zM230 570l-30 64l196 124l61 -129z" />
    <glyph glyph-name="ecircumflex" unicode="&#xea;" horiz-adv-x="590" 
d="M539 30q-15 -6 -38 -13t-52 -13t-63.5 -10.5t-73.5 -4.5q-135 0 -203.5 64.5t-68.5 210.5q0 73 17 125t49.5 85.5t80 49t108.5 15.5t108.5 -15.5t80 -49t49.5 -85.5t17 -125q-48 -26 -92.5 -32.5t-97.5 -6.5h-122q1 -17 7.5 -26.5t17 -14t24 -5t28.5 -0.5q24 0 44 1.5
t39.5 4t40 6.5t44.5 11zM351 305q1 21 -4 32t-13.5 16t-18 5.5t-16.5 0.5q-12 0 -24 -1.5t-20.5 -6.5t-13 -16t-2.5 -30h112zM295 645l-126 -75l-61 129l187 59l187 -59l-61 -129z" />
    <glyph glyph-name="edieresis" unicode="&#xeb;" horiz-adv-x="590" 
d="M539 30q-15 -6 -38 -13t-52 -13t-63.5 -10.5t-73.5 -4.5q-135 0 -203.5 64.5t-68.5 210.5q0 73 17 125t49.5 85.5t80 49t108.5 15.5t108.5 -15.5t80 -49t49.5 -85.5t17 -125q-48 -26 -92.5 -32.5t-97.5 -6.5h-122q1 -17 7.5 -26.5t17 -14t24 -5t28.5 -0.5q24 0 44 1.5
t39.5 4t40 6.5t44.5 11zM351 305q1 21 -4 32t-13.5 16t-18 5.5t-16.5 0.5q-12 0 -24 -1.5t-20.5 -6.5t-13 -16t-2.5 -30h112zM398 568q-19 0 -35.5 3t-29 12.5t-19.5 27.5t-7 48t7 48t19.5 27.5t29 12.5t35.5 3t35.5 -3t29 -12.5t19.5 -27.5t7 -48t-7 -48t-19.5 -27.5
t-29 -12.5t-35.5 -3zM191 568q-19 0 -35.5 3t-29 12.5t-19.5 27.5t-7 48t7 48t19.5 27.5t29 12.5t35.5 3t35.5 -3t29 -12.5t19.5 -27.5t7 -48t-7 -48t-19.5 -27.5t-29 -12.5t-35.5 -3z" />
    <glyph glyph-name="igrave" unicode="&#xec;" horiz-adv-x="290" 
d="M50 0v490l21 9q39 17 75.5 24t78.5 7h15v-530h-190zM18 629l61 129l196 -124l-30 -64z" />
    <glyph glyph-name="iacute" unicode="&#xed;" horiz-adv-x="290" 
d="M50 0v490l21 9q39 17 75.5 24t78.5 7h15v-530h-190zM48 570l-30 64l196 124l61 -129z" />
    <glyph glyph-name="icircumflex" unicode="&#xee;" horiz-adv-x="290" 
d="M50 0v490l21 9q39 17 75.5 24t78.5 7h15v-530h-190zM146 645l-126 -75l-61 129l187 59l187 -59l-61 -129z" />
    <glyph glyph-name="idieresis" unicode="&#xef;" horiz-adv-x="290" 
d="M50 0v490l21 9q39 17 75.5 24t78.5 7h15v-530h-190zM250 568q-19 0 -35.5 3t-29 12.5t-19.5 27.5t-7 48t7 48t19.5 27.5t29 12.5t35.5 3t35.5 -3t29 -12.5t19.5 -27.5t7 -48t-7 -48t-19.5 -27.5t-29 -12.5t-35.5 -3zM43 568q-19 0 -35.5 3t-29 12.5t-19.5 27.5t-7 48
t7 48t19.5 27.5t29 12.5t35.5 3t35.5 -3t29 -12.5t19.5 -27.5t7 -48t-7 -48t-19.5 -27.5t-29 -12.5t-35.5 -3z" />
    <glyph glyph-name="ntilde" unicode="&#xf1;" horiz-adv-x="620" 
d="M390 0v266q0 29 -2.5 46t-11 25.5t-25.5 11t-46 2.5h-21q-17 0 -26.5 -7.5t-13.5 -19.5t-4.5 -28t-0.5 -33v-263h-189v530h95l69 -45q16 17 29 28t26 17t28.5 8.5t37.5 2.5q60 0 106 -15t76.5 -48t46.5 -85.5t16 -126.5v-266h-190zM447 623q-13 -18 -35 -28.5t-46 -10.5
q-15 0 -33.5 5t-41.5 16q-11 5 -19.5 9t-13.5 4q-4 0 -7.5 -3t-6.5 -7l-29 -35l-70 86l29 40q13 17 34 28t47 11q22 0 40.5 -6.5t34.5 -14.5q11 -5 20 -9t13 -4q3 0 7 3t7 7l29 35l69 -86z" />
    <glyph glyph-name="ograve" unicode="&#xf2;" 
d="M315 -11q-137 0 -206 64.5t-69 210.5t69 210.5t206 64.5t206 -64.5t69 -210.5t-69 -210.5t-206 -64.5zM400 264q0 29 -6.5 46t-18 25.5t-27 11t-33.5 2.5t-33.5 -2.5t-27 -11t-18 -25.5t-6.5 -46t6.5 -46t18 -25.5t27 -11t33.5 -2.5t33.5 2.5t27 11t18 25.5t6.5 46z
M186 629l61 129l196 -124l-30 -64z" />
    <glyph glyph-name="oacute" unicode="&#xf3;" 
d="M315 -11q-137 0 -206 64.5t-69 210.5t69 210.5t206 64.5t206 -64.5t69 -210.5t-69 -210.5t-206 -64.5zM400 264q0 29 -6.5 46t-18 25.5t-27 11t-33.5 2.5t-33.5 -2.5t-27 -11t-18 -25.5t-6.5 -46t6.5 -46t18 -25.5t27 -11t33.5 -2.5t33.5 2.5t27 11t18 25.5t6.5 46z
M216 570l-30 64l196 124l61 -129z" />
    <glyph glyph-name="ocircumflex" unicode="&#xf4;" 
d="M315 -11q-137 0 -206 64.5t-69 210.5t69 210.5t206 64.5t206 -64.5t69 -210.5t-69 -210.5t-206 -64.5zM400 264q0 29 -6.5 46t-18 25.5t-27 11t-33.5 2.5t-33.5 -2.5t-27 -11t-18 -25.5t-6.5 -46t6.5 -46t18 -25.5t27 -11t33.5 -2.5t33.5 2.5t27 11t18 25.5t6.5 46z
M315 645l-126 -75l-61 129l187 59l187 -59l-61 -129z" />
    <glyph glyph-name="otilde" unicode="&#xf5;" 
d="M315 -11q-137 0 -206 64.5t-69 210.5t69 210.5t206 64.5t206 -64.5t69 -210.5t-69 -210.5t-206 -64.5zM400 264q0 29 -6.5 46t-18 25.5t-27 11t-33.5 2.5t-33.5 -2.5t-27 -11t-18 -25.5t-6.5 -46t6.5 -46t18 -25.5t27 -11t33.5 -2.5t33.5 2.5t27 11t18 25.5t6.5 46z
M452 623q-13 -18 -35 -28.5t-46 -10.5q-15 0 -33.5 5t-41.5 16q-11 5 -19.5 9t-13.5 4q-4 0 -7.5 -3t-6.5 -7l-29 -35l-70 86l29 40q13 17 34 28t47 11q22 0 40.5 -6.5t34.5 -14.5q11 -5 20 -9t13 -4q3 0 7 3t7 7l29 35l69 -86z" />
    <glyph glyph-name="odieresis" unicode="&#xf6;" 
d="M315 -11q-137 0 -206 64.5t-69 210.5t69 210.5t206 64.5t206 -64.5t69 -210.5t-69 -210.5t-206 -64.5zM400 264q0 29 -6.5 46t-18 25.5t-27 11t-33.5 2.5t-33.5 -2.5t-27 -11t-18 -25.5t-6.5 -46t6.5 -46t18 -25.5t27 -11t33.5 -2.5t33.5 2.5t27 11t18 25.5t6.5 46z
M418 568q-19 0 -35.5 3t-29 12.5t-19.5 27.5t-7 48t7 48t19.5 27.5t29 12.5t35.5 3t35.5 -3t29 -12.5t19.5 -27.5t7 -48t-7 -48t-19.5 -27.5t-29 -12.5t-35.5 -3zM211 568q-19 0 -35.5 3t-29 12.5t-19.5 27.5t-7 48t7 48t19.5 27.5t29 12.5t35.5 3t35.5 -3t29 -12.5
t19.5 -27.5t7 -48t-7 -48t-19.5 -27.5t-29 -12.5t-35.5 -3z" />
    <glyph glyph-name="divide" unicode="&#xf7;" 
d="M50 193v120h530v-120h-530zM315 -32q-32 0 -55 23t-23 55t23 55t55 23t55 -23t23 -55t-23 -55t-55 -23zM315 382q-32 0 -55 23t-23 55t23 55t55 23t55 -23t23 -55t-23 -55t-55 -23z" />
    <glyph glyph-name="oslash" unicode="&#xf8;" 
d="M400 264q0 29 -6.5 46t-18 25.5t-27 11t-33.5 2.5t-33.5 -2.5t-27 -11t-18 -25.5t-6.5 -46t6.5 -46t18 -25.5t27 -11t33.5 -2.5t33.5 2.5t27 11t18 25.5t6.5 46zM580 365q10 -43 10 -101q0 -146 -69 -210.5t-206 -64.5q-85 0 -145 24l-66 -66l-135 135l81 81
q-10 43 -10 101q0 146 69 210.5t206 64.5q85 0 145 -24l66 66l135 -135z" />
    <glyph glyph-name="ugrave" unicode="&#xf9;" 
d="M485 0l-69 45q-15 -17 -28 -27.5t-26 -17t-27 -9t-32 -2.5q-65 0 -112.5 15.5t-78.5 48.5t-46.5 85t-15.5 126v266h190v-266q0 -29 2.5 -46t11 -25.5t25.5 -11t46 -2.5h21q17 0 26.5 7.5t13.5 19.5t4.5 28t0.5 33v263h189v-530h-95zM186 629l61 129l196 -124l-30 -64z
" />
    <glyph glyph-name="uacute" unicode="&#xfa;" 
d="M485 0l-69 45q-15 -17 -28 -27.5t-26 -17t-27 -9t-32 -2.5q-65 0 -112.5 15.5t-78.5 48.5t-46.5 85t-15.5 126v266h190v-266q0 -29 2.5 -46t11 -25.5t25.5 -11t46 -2.5h21q17 0 26.5 7.5t13.5 19.5t4.5 28t0.5 33v263h189v-530h-95zM216 570l-30 64l196 124l61 -129z" />
    <glyph glyph-name="ucircumflex" unicode="&#xfb;" 
d="M485 0l-69 45q-15 -17 -28 -27.5t-26 -17t-27 -9t-32 -2.5q-65 0 -112.5 15.5t-78.5 48.5t-46.5 85t-15.5 126v266h190v-266q0 -29 2.5 -46t11 -25.5t25.5 -11t46 -2.5h21q17 0 26.5 7.5t13.5 19.5t4.5 28t0.5 33v263h189v-530h-95zM315 645l-126 -75l-61 129l187 59
l187 -59l-61 -129z" />
    <glyph glyph-name="udieresis" unicode="&#xfc;" 
d="M485 0l-69 45q-15 -17 -28 -27.5t-26 -17t-27 -9t-32 -2.5q-65 0 -112.5 15.5t-78.5 48.5t-46.5 85t-15.5 126v266h190v-266q0 -29 2.5 -46t11 -25.5t25.5 -11t46 -2.5h21q17 0 26.5 7.5t13.5 19.5t4.5 28t0.5 33v263h189v-530h-95zM418 568q-19 0 -35.5 3t-29 12.5
t-19.5 27.5t-7 48t7 48t19.5 27.5t29 12.5t35.5 3t35.5 -3t29 -12.5t19.5 -27.5t7 -48t-7 -48t-19.5 -27.5t-29 -12.5t-35.5 -3zM211 568q-19 0 -35.5 3t-29 12.5t-19.5 27.5t-7 48t7 48t19.5 27.5t29 12.5t35.5 3t35.5 -3t29 -12.5t19.5 -27.5t7 -48t-7 -48t-19.5 -27.5
t-29 -12.5t-35.5 -3z" />
    <glyph glyph-name="yacute" unicode="&#xfd;" horiz-adv-x="558" 
d="M77 -50q10 -5 16 -5.5t17 -2.5q7 -1 12.5 -0.5t10 4t9 11t9.5 21.5l30 77l-128 271q-23 48 -33 93t-10 98v13h157l65 -139q23 -48 33.5 -93t12.5 -98h2q2 53 12.5 98t33.5 93l65 139h157v-13q0 -53 -10 -98t-32 -93l-167 -361q-20 -43 -38 -77t-40.5 -58t-52.5 -36.5
t-74 -12.5q-24 0 -52 5t-57 22zM180 570l-30 64l196 124l61 -129z" />
    <glyph glyph-name="thorn" unicode="&#xfe;" horiz-adv-x="611" 
d="M50 -222v932l21 9q39 17 75.5 24t78.5 7h16v-231q14 6 25 10t22.5 6t23.5 3t28 1q61 0 105 -14.5t72 -47t41 -83.5t13 -124q0 -146 -54.5 -211.5t-176.5 -65.5q-16 0 -28 1t-23.5 3t-22.5 6t-25 10v-235h-191zM296 181q29 0 46 5.5t25.5 16t11 26.5t2.5 37t-2.5 37
t-11 26.5t-25.5 16t-46 5.5h-11q-17 0 -26.5 -6.5t-13.5 -17.5t-4.5 -26t-0.5 -32t0.5 -33t4.5 -28t13.5 -19.5t26.5 -7.5h11z" />
    <glyph glyph-name="ydieresis" unicode="&#xff;" horiz-adv-x="568" 
d="M82 -50q10 -5 16 -5.5t17 -2.5q7 -1 12.5 -0.5t10 4t9 11t9.5 21.5l30 77l-128 271q-23 48 -33 93t-10 98v13h157l65 -139q23 -48 33.5 -93t12.5 -98h2q2 53 12.5 98t33.5 93l65 139h157v-13q0 -53 -10 -98t-32 -93l-167 -361q-20 -43 -38 -77t-40.5 -58t-52.5 -36.5
t-74 -12.5q-24 0 -52 5t-57 22zM387 568q-19 0 -35.5 3t-29 12.5t-19.5 27.5t-7 48t7 48t19.5 27.5t29 12.5t35.5 3t35.5 -3t29 -12.5t19.5 -27.5t7 -48t-7 -48t-19.5 -27.5t-29 -12.5t-35.5 -3zM180 568q-19 0 -35.5 3t-29 12.5t-19.5 27.5t-7 48t7 48t19.5 27.5t29 12.5
t35.5 3t35.5 -3t29 -12.5t19.5 -27.5t7 -48t-7 -48t-19.5 -27.5t-29 -12.5t-35.5 -3z" />
    <glyph glyph-name="Amacron" unicode="&#x100;" horiz-adv-x="636" 
d="M447 0l-30 100h-192l-29 -100h-186v43q0 53 8 98.5t27 95.5l174 473h202l171 -472q18 -50 26 -95.5t8 -98.5v-44h-179zM356 310q-11 49 -18 100l-18 118l-19 -118q-7 -51 -18 -100h73zM118 790v100h400v-100h-400z" />
    <glyph glyph-name="amacron" unicode="&#x101;" horiz-adv-x="563" 
d="M428 0l-69 45q-12 -17 -26 -27.5t-27.5 -17t-26 -9t-20.5 -2.5q-66 0 -110 7t-72 24t-40.5 46.5t-15.5 74.5q-3 46 6 77t30.5 50t57.5 27t88 8h122q-1 17 -7.5 26.5t-17 14t-24 5t-28.5 0.5q-24 0 -41 -1t-32.5 -3t-33 -6t-41.5 -11l-56 172q30 11 80 25t127 14
q135 0 203.5 -64.5t68.5 -210.5v-264h-95zM242 183q-19 0 -23 -8t-4 -19t4 -19t23 -8h22q12 0 24 1.5t20.5 6.5t13 16t2.5 30h-82zM81 610v100h400v-100h-400z" />
    <glyph glyph-name="Abreve" unicode="&#x102;" horiz-adv-x="636" 
d="M447 0l-30 100h-192l-29 -100h-186v43q0 53 8 98.5t27 95.5l174 473h202l171 -472q18 -50 26 -95.5t8 -98.5v-44h-179zM356 310q-11 49 -18 100l-18 118l-19 -118q-7 -51 -18 -100h73zM499 803q-9 -5 -24.5 -14t-38 -17.5t-52 -15t-66.5 -6.5t-66.5 6.5t-52 15t-38 17.5
t-24.5 14l49 120q23 -10 56 -24t76 -14t76 14t56 24z" />
    <glyph glyph-name="abreve" unicode="&#x103;" horiz-adv-x="563" 
d="M428 0l-69 45q-12 -17 -26 -27.5t-27.5 -17t-26 -9t-20.5 -2.5q-66 0 -110 7t-72 24t-40.5 46.5t-15.5 74.5q-3 46 6 77t30.5 50t57.5 27t88 8h122q-1 17 -7.5 26.5t-17 14t-24 5t-28.5 0.5q-24 0 -41 -1t-32.5 -3t-33 -6t-41.5 -11l-56 172q30 11 80 25t127 14
q135 0 203.5 -64.5t68.5 -210.5v-264h-95zM242 183q-19 0 -23 -8t-4 -19t4 -19t23 -8h22q12 0 24 1.5t20.5 6.5t13 16t2.5 30h-82zM462 623q-9 -5 -24.5 -14t-38 -17.5t-52 -15t-66.5 -6.5t-66.5 6.5t-52 15t-38 17.5t-24.5 14l49 120q23 -10 56 -24t76 -14t76 14t56 24z
" />
    <glyph glyph-name="Aogonek" unicode="&#x104;" horiz-adv-x="636" 
d="M622 -220q-14 -9 -31 -14.5t-46 -5.5q-60 0 -86 26.5t-26 83.5q0 28 7 46.5t21 31t35 21.5t49 20q6 2 14 4t17 7h-129l-30 100h-192l-29 -100h-186v43q0 53 8 98.5t27 95.5l174 473h202l171 -472q18 -50 26 -95.5t8 -98.5v-50q0 -26 -10.5 -42.5t-36.5 -25.5l-30 -11
q-26 -9 -33 -18t-7 -27q0 -19 6.5 -27t33.5 -8q11 0 21 2t25 8zM356 310q-11 49 -18 100l-18 118l-19 -118q-7 -51 -18 -100h73z" />
    <glyph glyph-name="aogonek" unicode="&#x105;" horiz-adv-x="563" 
d="M519 -220q-14 -9 -31 -14.5t-46 -5.5q-60 0 -86 26.5t-26 83.5q0 28 7 46.5t21 31t35 21.5t49 20q6 2 14 4t17 7h-45l-69 45q-12 -17 -26 -27.5t-27.5 -17t-26 -9t-20.5 -2.5q-66 0 -110 7t-72 24t-40.5 46.5t-15.5 74.5q-3 46 6 77t30.5 50t57.5 27t88 8h122
q-1 17 -7.5 26.5t-17 14t-24 5t-28.5 0.5q-24 0 -41 -1t-32.5 -3t-33 -6t-41.5 -11l-56 172q30 11 80 25t127 14q135 0 203.5 -64.5t68.5 -210.5v-270q0 -26 -10.5 -42.5t-36.5 -25.5l-30 -11q-26 -9 -33 -18t-7 -27q0 -19 6.5 -27t33.5 -8q11 0 21 2t25 8zM242 183
q-19 0 -23 -8t-4 -19t4 -19t23 -8h22q12 0 24 1.5t20.5 6.5t13 16t2.5 30h-82z" />
    <glyph glyph-name="Cacute" unicode="&#x106;" horiz-adv-x="657" 
d="M617 56q-12 -8 -34.5 -19.5t-52.5 -22t-67 -17.5t-77 -7q-84 0 -148.5 21t-108.5 65t-66.5 113.5t-22.5 166.5t22.5 166.5t66.5 113.5t108.5 65t148.5 21q42 0 79 -7.5t67 -18t51.5 -21.5t33.5 -19l-76 -187q-20 9 -42.5 15.5t-44.5 11t-41.5 6.5t-32.5 2q-29 0 -51 -4.5
t-38 -19.5t-24 -44.5t-8 -79.5t8 -79t24 -44.5t38 -20t51 -4.5q13 0 32.5 2t41.5 6.5t44.5 11t42.5 15.5zM290 750l-30 64l196 124l61 -129z" />
    <glyph glyph-name="cacute" unicode="&#x107;" horiz-adv-x="552" 
d="M512 42q-18 -11 -37 -20.5t-41.5 -16t-50.5 -10t-64 -3.5q-74 0 -127 16.5t-87 50t-49.5 85.5t-15.5 123t16 123t50 85.5t87 49.5t127 16q40 0 69.5 -4.5t52 -11t39 -15.5t31.5 -18l-67 -164q-19 8 -34 13.5t-28.5 8.5t-26 4t-27.5 1q-33 0 -53 -5t-30 -16t-13 -27.5
t-3 -39.5t3 -39.5t13 -27.5t30 -16t53 -5q15 0 27.5 1t26 4t28.5 8.5t34 13.5zM219 570l-30 64l196 124l61 -129z" />
    <glyph glyph-name="Ccircumflex" unicode="&#x108;" horiz-adv-x="657" 
d="M617 56q-12 -8 -34.5 -19.5t-52.5 -22t-67 -17.5t-77 -7q-84 0 -148.5 21t-108.5 65t-66.5 113.5t-22.5 166.5t22.5 166.5t66.5 113.5t108.5 65t148.5 21q42 0 79 -7.5t67 -18t51.5 -21.5t33.5 -19l-76 -187q-20 9 -42.5 15.5t-44.5 11t-41.5 6.5t-32.5 2q-29 0 -51 -4.5
t-38 -19.5t-24 -44.5t-8 -79.5t8 -79t24 -44.5t38 -20t51 -4.5q13 0 32.5 2t41.5 6.5t44.5 11t42.5 15.5zM363 825l-126 -75l-61 129l187 59l187 -59l-61 -129z" />
    <glyph glyph-name="ccircumflex" unicode="&#x109;" horiz-adv-x="552" 
d="M512 42q-18 -11 -37 -20.5t-41.5 -16t-50.5 -10t-64 -3.5q-74 0 -127 16.5t-87 50t-49.5 85.5t-15.5 123t16 123t50 85.5t87 49.5t127 16q40 0 69.5 -4.5t52 -11t39 -15.5t31.5 -18l-67 -164q-19 8 -34 13.5t-28.5 8.5t-26 4t-27.5 1q-33 0 -53 -5t-30 -16t-13 -27.5
t-3 -39.5t3 -39.5t13 -27.5t30 -16t53 -5q15 0 27.5 1t26 4t28.5 8.5t34 13.5zM299 645l-126 -75l-61 129l187 59l187 -59l-61 -129z" />
    <glyph glyph-name="Cdotaccent" unicode="&#x10a;" horiz-adv-x="657" 
d="M617 56q-12 -8 -34.5 -19.5t-52.5 -22t-67 -17.5t-77 -7q-84 0 -148.5 21t-108.5 65t-66.5 113.5t-22.5 166.5t22.5 166.5t66.5 113.5t108.5 65t148.5 21q42 0 79 -7.5t67 -18t51.5 -21.5t33.5 -19l-76 -187q-20 9 -42.5 15.5t-44.5 11t-41.5 6.5t-32.5 2q-29 0 -51 -4.5
t-38 -19.5t-24 -44.5t-8 -79.5t8 -79t24 -44.5t38 -20t51 -4.5q13 0 32.5 2t41.5 6.5t44.5 11t42.5 15.5zM363 750q-20 0 -37 3.5t-30 13.5t-20.5 28.5t-7.5 49.5t7.5 49.5t20.5 28.5t30 13.5t37 3.5q19 0 36.5 -3.5t30.5 -13.5t20.5 -28.5t7.5 -49.5t-7.5 -49.5
t-20.5 -28.5t-30.5 -13.5t-36.5 -3.5z" />
    <glyph glyph-name="cdotaccent" unicode="&#x10b;" horiz-adv-x="552" 
d="M512 42q-18 -11 -37 -20.5t-41.5 -16t-50.5 -10t-64 -3.5q-74 0 -127 16.5t-87 50t-49.5 85.5t-15.5 123t16 123t50 85.5t87 49.5t127 16q40 0 69.5 -4.5t52 -11t39 -15.5t31.5 -18l-67 -164q-19 8 -34 13.5t-28.5 8.5t-26 4t-27.5 1q-33 0 -53 -5t-30 -16t-13 -27.5
t-3 -39.5t3 -39.5t13 -27.5t30 -16t53 -5q15 0 27.5 1t26 4t28.5 8.5t34 13.5zM304 570q-20 0 -37 3.5t-30 13.5t-20.5 28.5t-7.5 49.5t7.5 49.5t20.5 28.5t30 13.5t37 3.5q19 0 36.5 -3.5t30.5 -13.5t20.5 -28.5t7.5 -49.5t-7.5 -49.5t-20.5 -28.5t-30.5 -13.5t-36.5 -3.5z
" />
    <glyph glyph-name="Ccaron" unicode="&#x10c;" horiz-adv-x="657" 
d="M617 56q-12 -8 -34.5 -19.5t-52.5 -22t-67 -17.5t-77 -7q-84 0 -148.5 21t-108.5 65t-66.5 113.5t-22.5 166.5t22.5 166.5t66.5 113.5t108.5 65t148.5 21q42 0 79 -7.5t67 -18t51.5 -21.5t33.5 -19l-76 -187q-20 9 -42.5 15.5t-44.5 11t-41.5 6.5t-32.5 2q-29 0 -51 -4.5
t-38 -19.5t-24 -44.5t-8 -79.5t8 -79t24 -44.5t38 -20t51 -4.5q13 0 32.5 2t41.5 6.5t44.5 11t42.5 15.5zM374 750l-187 59l61 129l126 -75l126 75l61 -129z" />
    <glyph glyph-name="ccaron" unicode="&#x10d;" horiz-adv-x="552" 
d="M512 42q-18 -11 -37 -20.5t-41.5 -16t-50.5 -10t-64 -3.5q-74 0 -127 16.5t-87 50t-49.5 85.5t-15.5 123t16 123t50 85.5t87 49.5t127 16q40 0 69.5 -4.5t52 -11t39 -15.5t31.5 -18l-67 -164q-19 8 -34 13.5t-28.5 8.5t-26 4t-27.5 1q-33 0 -53 -5t-30 -16t-13 -27.5
t-3 -39.5t3 -39.5t13 -27.5t30 -16t53 -5q15 0 27.5 1t26 4t28.5 8.5t34 13.5zM307 570l-187 59l61 129l126 -75l126 75l61 -129z" />
    <glyph glyph-name="Dcaron" unicode="&#x10e;" horiz-adv-x="710" 
d="M313 208q27 0 52.5 4.5t44.5 19.5t30.5 44.5t11.5 79.5t-11.5 79t-31.5 44t-47 19t-57 4h-36v-294h44zM50 0v710h255q91 0 159.5 -19t114 -61t68.5 -109.5t23 -164.5t-21.5 -165t-65 -110.5t-110.5 -61.5t-158 -19h-265zM294 750l-187 59l61 129l126 -75l126 75l61 -129z
" />
    <glyph glyph-name="dcaron" unicode="&#x10f;" horiz-adv-x="640" 
d="M495 0l-69 45q-16 -17 -30.5 -27.5t-30 -16.5t-33 -8t-40.5 -2q-64 0 -111 15.5t-78.5 49t-47 86.5t-15.5 128q0 73 15 124t47 83.5t81 47t118 14.5q16 0 28 -1t23.5 -3t22.5 -6t25 -10v191l21 9q39 17 75.5 24t78.5 7h15v-750h-95zM356 181q17 0 26.5 6.5t13.5 17.5
t4.5 26t0.5 32t-0.5 33t-4.5 28t-13.5 19.5t-26.5 7.5h-41q-29 0 -46 -5.5t-25.5 -16t-11 -26.5t-2.5 -37t2.5 -37t11 -26.5t25.5 -16t46 -5.5h41zM638 706l30 11q20 8 38.5 17t29.5 6l11 -3l5 4q-30 7 -49 28.5t-19 69.5q0 31 8.5 51t23.5 31t34.5 15t41.5 4q26 0 46 -5
t33 -18t19.5 -35t6.5 -56q0 -39 -12 -82.5t-50 -83.5q-36 -35 -74 -55t-80 -32z" />
    <glyph glyph-name="Dcroat" unicode="&#x110;" horiz-adv-x="710" 
d="M50 0v273h-50v163h50v274h255q91 0 159.5 -19t114 -61t68.5 -109.5t23 -164.5t-21.5 -165t-65 -110.5t-110.5 -61.5t-158 -19h-265zM269 273v-65h44q27 0 52.5 4.5t44.5 19.5t30.5 44.5t11.5 79.5t-11.5 79t-31.5 44t-47 19t-57 4h-36v-66h67v-163h-67z" />
    <glyph glyph-name="dcroat" unicode="&#x111;" horiz-adv-x="640" 
d="M495 0l-69 45q-16 -17 -30.5 -27.5t-30 -16.5t-33 -8t-40.5 -2q-64 0 -111 15.5t-78.5 49t-47 86.5t-15.5 128q0 73 15 124t47 83.5t81 47t118 14.5q16 0 28 -1t23.5 -3t22.5 -6t25 -10v48h-49v123h49v20l21 9q39 17 75.5 24t78.5 7h15v-60h50v-123h-50v-567h-95z
M356 181q17 0 26.5 6.5t13.5 17.5t4.5 26t0.5 32t-0.5 33t-4.5 28t-13.5 19.5t-26.5 7.5h-41q-29 0 -46 -5.5t-25.5 -16t-11 -26.5t-2.5 -37t2.5 -37t11 -26.5t25.5 -16t46 -5.5h41z" />
    <glyph glyph-name="Emacron" unicode="&#x112;" horiz-adv-x="579" 
d="M50 0v710h479v-205h-259v-50h239v-200h-239v-50h259v-205h-479zM89 790v100h400v-100h-400z" />
    <glyph glyph-name="emacron" unicode="&#x113;" horiz-adv-x="590" 
d="M539 30q-15 -6 -38 -13t-52 -13t-63.5 -10.5t-73.5 -4.5q-135 0 -203.5 64.5t-68.5 210.5q0 73 17 125t49.5 85.5t80 49t108.5 15.5t108.5 -15.5t80 -49t49.5 -85.5t17 -125q-48 -26 -92.5 -32.5t-97.5 -6.5h-122q1 -17 7.5 -26.5t17 -14t24 -5t28.5 -0.5q24 0 44 1.5
t39.5 4t40 6.5t44.5 11zM351 305q1 21 -4 32t-13.5 16t-18 5.5t-16.5 0.5q-12 0 -24 -1.5t-20.5 -6.5t-13 -16t-2.5 -30h112zM95 610v100h400v-100h-400z" />
    <glyph glyph-name="Ebreve" unicode="&#x114;" horiz-adv-x="579" 
d="M50 0v710h479v-205h-259v-50h239v-200h-239v-50h259v-205h-479zM470 803q-9 -5 -24.5 -14t-38 -17.5t-52 -15t-66.5 -6.5t-66.5 6.5t-52 15t-38 17.5t-24.5 14l49 120q23 -10 56 -24t76 -14t76 14t56 24z" />
    <glyph glyph-name="ebreve" unicode="&#x115;" horiz-adv-x="590" 
d="M539 30q-15 -6 -38 -13t-52 -13t-63.5 -10.5t-73.5 -4.5q-135 0 -203.5 64.5t-68.5 210.5q0 73 17 125t49.5 85.5t80 49t108.5 15.5t108.5 -15.5t80 -49t49.5 -85.5t17 -125q-48 -26 -92.5 -32.5t-97.5 -6.5h-122q1 -17 7.5 -26.5t17 -14t24 -5t28.5 -0.5q24 0 44 1.5
t39.5 4t40 6.5t44.5 11zM351 305q1 21 -4 32t-13.5 16t-18 5.5t-16.5 0.5q-12 0 -24 -1.5t-20.5 -6.5t-13 -16t-2.5 -30h112zM476 623q-9 -5 -24.5 -14t-38 -17.5t-52 -15t-66.5 -6.5t-66.5 6.5t-52 15t-38 17.5t-24.5 14l49 120q23 -10 56 -24t76 -14t76 14t56 24z" />
    <glyph glyph-name="Edotaccent" unicode="&#x116;" horiz-adv-x="579" 
d="M50 0v710h479v-205h-259v-50h239v-200h-239v-50h259v-205h-479zM289 750q-20 0 -37 3.5t-30 13.5t-20.5 28.5t-7.5 49.5t7.5 49.5t20.5 28.5t30 13.5t37 3.5q19 0 36.5 -3.5t30.5 -13.5t20.5 -28.5t7.5 -49.5t-7.5 -49.5t-20.5 -28.5t-30.5 -13.5t-36.5 -3.5z" />
    <glyph glyph-name="edotaccent" unicode="&#x117;" horiz-adv-x="590" 
d="M539 30q-15 -6 -38 -13t-52 -13t-63.5 -10.5t-73.5 -4.5q-135 0 -203.5 64.5t-68.5 210.5q0 73 17 125t49.5 85.5t80 49t108.5 15.5t108.5 -15.5t80 -49t49.5 -85.5t17 -125q-48 -26 -92.5 -32.5t-97.5 -6.5h-122q1 -17 7.5 -26.5t17 -14t24 -5t28.5 -0.5q24 0 44 1.5
t39.5 4t40 6.5t44.5 11zM351 305q1 21 -4 32t-13.5 16t-18 5.5t-16.5 0.5q-12 0 -24 -1.5t-20.5 -6.5t-13 -16t-2.5 -30h112zM295 570q-20 0 -37 3.5t-30 13.5t-20.5 28.5t-7.5 49.5t7.5 49.5t20.5 28.5t30 13.5t37 3.5q19 0 36.5 -3.5t30.5 -13.5t20.5 -28.5t7.5 -49.5
t-7.5 -49.5t-20.5 -28.5t-30.5 -13.5t-36.5 -3.5z" />
    <glyph glyph-name="Eogonek" unicode="&#x118;" horiz-adv-x="579" 
d="M525 -220q-14 -9 -31 -14.5t-46 -5.5q-60 0 -86 26.5t-26 83.5q0 28 7 46.5t21 31t35 21.5t49 20q6 2 14 4t17 7h-429v710h479v-205h-259v-50h239v-200h-239v-50h259v-211q0 -26 -10.5 -42.5t-36.5 -25.5l-30 -11q-26 -9 -33 -18t-7 -27q0 -19 6.5 -27t33.5 -8q11 0 21 2
t25 8z" />
    <glyph glyph-name="eogonek" unicode="&#x119;" horiz-adv-x="590" 
d="M498 -215q-14 -9 -31 -14.5t-46 -5.5q-60 0 -86 26t-26 82q0 28 6.5 46.5t20.5 31.5t35 23t50 21q21 8 16 8t-26 -3t-53 -7t-66 -4q-57 0 -103.5 15.5t-79.5 49.5t-51 86.5t-18 127.5q0 143 67 207t189 64q61 0 108 -15.5t79.5 -49t49.5 -85.5t17 -125
q-48 -26 -92.5 -32.5t-97.5 -6.5h-122q1 -17 7.5 -26.5t17 -14t24 -5t28.5 -0.5q24 0 44 1.5t39.5 4t40 6.5t44.5 11l64 -200q-11 -7 -27 -17.5t-33.5 -22t-34 -22.5t-27.5 -19q-14 -10 -22 -17t-12 -12t-5 -10t-1 -12q0 -15 6.5 -22.5t33.5 -7.5q11 0 21 2t25 8zM351 305
q1 21 -4 32t-13.5 16t-18 5.5t-16.5 0.5q-13 0 -24.5 -1.5t-20.5 -6.5t-13 -16t-2 -30h112z" />
    <glyph glyph-name="Ecaron" unicode="&#x11a;" horiz-adv-x="579" 
d="M50 0v710h479v-205h-259v-50h239v-200h-239v-50h259v-205h-479zM289 750l-187 59l61 129l126 -75l126 75l61 -129z" />
    <glyph glyph-name="ecaron" unicode="&#x11b;" horiz-adv-x="590" 
d="M539 30q-15 -6 -38 -13t-52 -13t-63.5 -10.5t-73.5 -4.5q-135 0 -203.5 64.5t-68.5 210.5q0 73 17 125t49.5 85.5t80 49t108.5 15.5t108.5 -15.5t80 -49t49.5 -85.5t17 -125q-48 -26 -92.5 -32.5t-97.5 -6.5h-122q1 -17 7.5 -26.5t17 -14t24 -5t28.5 -0.5q24 0 44 1.5
t39.5 4t40 6.5t44.5 11zM351 305q1 21 -4 32t-13.5 16t-18 5.5t-16.5 0.5q-12 0 -24 -1.5t-20.5 -6.5t-13 -16t-2.5 -30h112zM295 570l-187 59l61 129l126 -75l126 75l61 -129z" />
    <glyph glyph-name="Gcircumflex" unicode="&#x11c;" horiz-adv-x="714" 
d="M662 55q-13 -8 -38.5 -19.5t-60 -21.5t-75 -16.5t-82.5 -6.5q-92 0 -160.5 21t-114 65t-68.5 113.5t-23 166.5t23 166t69.5 113.5t116 65t163.5 20.5q42 0 79 -7.5t67 -18t51.5 -21.5t33.5 -19l-76 -187q-20 9 -42.5 15.5t-44.5 11t-41.5 6.5t-32.5 2q-31 0 -57.5 -4
t-46.5 -19t-31.5 -44.5t-11.5 -79.5t11.5 -79t31.5 -44t46.5 -19.5t57.5 -4.5v-2q10 0 25 1t33 3v58h-58v170h258v-384zM377 825l-126 -75l-61 129l187 59l187 -59l-61 -129z" />
    <glyph glyph-name="gcircumflex" unicode="&#x11d;" horiz-adv-x="640" 
d="M155 -16q18 -8 40.5 -13t45 -8t42 -4.5t30.5 -1.5q49 0 66.5 14.5t19.5 48.5q-27 -12 -47 -15.5t-51 -3.5q-69 0 -118 13t-81 43.5t-47 80t-15 122.5q0 75 15.5 128t47 86.5t78.5 49t111 15.5q23 0 40.5 -2.5t33 -8.5t30 -16.5t30.5 -26.5l69 45h95v-486
q0 -143 -62.5 -208.5t-200.5 -65.5q-36 0 -71.5 4t-67.5 11t-58 16t-42 19zM356 179q17 0 26.5 7.5t13.5 19.5t4.5 28t0.5 33t-0.5 32t-4.5 26t-13.5 17.5t-26.5 6.5h-41q-29 0 -46 -2.5t-25.5 -11t-11 -25.5t-2.5 -46t2.5 -46t11 -25.5t25.5 -11t46 -2.5h41zM320 645
l-126 -75l-61 129l187 59l187 -59l-61 -129z" />
    <glyph glyph-name="Gbreve" unicode="&#x11e;" horiz-adv-x="714" 
d="M662 55q-13 -8 -38.5 -19.5t-60 -21.5t-75 -16.5t-82.5 -6.5q-92 0 -160.5 21t-114 65t-68.5 113.5t-23 166.5t23 166t69.5 113.5t116 65t163.5 20.5q42 0 79 -7.5t67 -18t51.5 -21.5t33.5 -19l-76 -187q-20 9 -42.5 15.5t-44.5 11t-41.5 6.5t-32.5 2q-31 0 -57.5 -4
t-46.5 -19t-31.5 -44.5t-11.5 -79.5t11.5 -79t31.5 -44t46.5 -19.5t57.5 -4.5v-2q10 0 25 1t33 3v58h-58v170h258v-384zM573 803q-9 -5 -24.5 -14t-38 -17.5t-52 -15t-66.5 -6.5t-66.5 6.5t-52 15t-38 17.5t-24.5 14l49 120q23 -10 56 -24t76 -14t76 14t56 24z" />
    <glyph glyph-name="gbreve" unicode="&#x11f;" horiz-adv-x="640" 
d="M155 -16q18 -8 40.5 -13t45 -8t42 -4.5t30.5 -1.5q49 0 66.5 14.5t19.5 48.5q-27 -12 -47 -15.5t-51 -3.5q-69 0 -118 13t-81 43.5t-47 80t-15 122.5q0 75 15.5 128t47 86.5t78.5 49t111 15.5q23 0 40.5 -2.5t33 -8.5t30 -16.5t30.5 -26.5l69 45h95v-486
q0 -143 -62.5 -208.5t-200.5 -65.5q-36 0 -71.5 4t-67.5 11t-58 16t-42 19zM356 179q17 0 26.5 7.5t13.5 19.5t4.5 28t0.5 33t-0.5 32t-4.5 26t-13.5 17.5t-26.5 6.5h-41q-29 0 -46 -2.5t-25.5 -11t-11 -25.5t-2.5 -46t2.5 -46t11 -25.5t25.5 -11t46 -2.5h41zM501 623
q-9 -5 -24.5 -14t-38 -17.5t-52 -15t-66.5 -6.5t-66.5 6.5t-52 15t-38 17.5t-24.5 14l49 120q23 -10 56 -24t76 -14t76 14t56 24z" />
    <glyph glyph-name="Gdotaccent" unicode="&#x120;" horiz-adv-x="714" 
d="M662 55q-13 -8 -38.5 -19.5t-60 -21.5t-75 -16.5t-82.5 -6.5q-92 0 -160.5 21t-114 65t-68.5 113.5t-23 166.5t23 166t69.5 113.5t116 65t163.5 20.5q42 0 79 -7.5t67 -18t51.5 -21.5t33.5 -19l-76 -187q-20 9 -42.5 15.5t-44.5 11t-41.5 6.5t-32.5 2q-31 0 -57.5 -4
t-46.5 -19t-31.5 -44.5t-11.5 -79.5t11.5 -79t31.5 -44t46.5 -19.5t57.5 -4.5v-2q10 0 25 1t33 3v58h-58v170h258v-384zM376 750q-20 0 -37 3.5t-30 13.5t-20.5 28.5t-7.5 49.5t7.5 49.5t20.5 28.5t30 13.5t37 3.5q19 0 36.5 -3.5t30.5 -13.5t20.5 -28.5t7.5 -49.5
t-7.5 -49.5t-20.5 -28.5t-30.5 -13.5t-36.5 -3.5z" />
    <glyph glyph-name="gdotaccent" unicode="&#x121;" horiz-adv-x="640" 
d="M155 -16q18 -8 40.5 -13t45 -8t42 -4.5t30.5 -1.5q49 0 66.5 14.5t19.5 48.5q-27 -12 -47 -15.5t-51 -3.5q-69 0 -118 13t-81 43.5t-47 80t-15 122.5q0 75 15.5 128t47 86.5t78.5 49t111 15.5q23 0 40.5 -2.5t33 -8.5t30 -16.5t30.5 -26.5l69 45h95v-486
q0 -143 -62.5 -208.5t-200.5 -65.5q-36 0 -71.5 4t-67.5 11t-58 16t-42 19zM356 179q17 0 26.5 7.5t13.5 19.5t4.5 28t0.5 33t-0.5 32t-4.5 26t-13.5 17.5t-26.5 6.5h-41q-29 0 -46 -2.5t-25.5 -11t-11 -25.5t-2.5 -46t2.5 -46t11 -25.5t25.5 -11t46 -2.5h41zM320 570
q-20 0 -37 3.5t-30 13.5t-20.5 28.5t-7.5 49.5t7.5 49.5t20.5 28.5t30 13.5t37 3.5q19 0 36.5 -3.5t30.5 -13.5t20.5 -28.5t7.5 -49.5t-7.5 -49.5t-20.5 -28.5t-30.5 -13.5t-36.5 -3.5z" />
    <glyph glyph-name="Hcircumflex" unicode="&#x124;" horiz-adv-x="728" 
d="M458 0v250h-188v-250h-220v710h220v-250h188v250h220v-710h-220zM364 825l-126 -75l-61 129l187 59l187 -59l-61 -129z" />
    <glyph glyph-name="hcircumflex" unicode="&#x125;" horiz-adv-x="620" 
d="M390 0v266q0 21 -2.5 37t-11 26.5t-25.5 16t-46 5.5h-21q-17 0 -26.5 -7.5t-13.5 -19.5t-4.5 -28t-0.5 -33v-263h-189v710l21 9q39 17 75.5 24t78.5 7h15v-231q28 12 45 16t34 4q69 0 118 -14.5t81 -47t47 -83.5t15 -124v-270h-190zM460 645l-126 -75l-61 129l187 59
l187 -59l-61 -129z" />
    <glyph glyph-name="Itilde" unicode="&#x128;" horiz-adv-x="320" 
d="M50 0v710h220v-710h-220zM298 803q-13 -18 -35 -28.5t-46 -10.5q-15 0 -33.5 5t-41.5 16q-11 5 -19.5 9t-13.5 4q-4 0 -7.5 -3t-6.5 -7l-29 -35l-70 86l29 40q13 17 34 28t47 11q22 0 40.5 -6.5t34.5 -14.5q11 -5 20 -9t13 -4q3 0 7 3t7 7l29 35l69 -86z" />
    <glyph glyph-name="itilde" unicode="&#x129;" horiz-adv-x="290" 
d="M50 0v490l21 9q39 17 75.5 24t78.5 7h15v-530h-190zM283 623q-13 -18 -35 -28.5t-46 -10.5q-15 0 -33.5 5t-41.5 16q-11 5 -19.5 9t-13.5 4q-4 0 -7.5 -3t-6.5 -7l-29 -35l-70 86l29 40q13 17 34 28t47 11q22 0 40.5 -6.5t34.5 -14.5q11 -5 20 -9t13 -4q3 0 7 3t7 7
l29 35l69 -86z" />
    <glyph glyph-name="Imacron" unicode="&#x12a;" horiz-adv-x="320" 
d="M50 0v710h220v-710h-220zM-39 790v100h400v-100h-400z" />
    <glyph glyph-name="imacron" unicode="&#x12b;" horiz-adv-x="290" 
d="M50 0v490l21 9q39 17 75.5 24t78.5 7h15v-530h-190zM-54 610v100h400v-100h-400z" />
    <glyph glyph-name="Ibreve" unicode="&#x12c;" horiz-adv-x="320" 
d="M50 0v710h220v-710h-220zM342 803q-9 -5 -24.5 -14t-38 -17.5t-52 -15t-66.5 -6.5t-66.5 6.5t-52 15t-38 17.5t-24.5 14l49 120q23 -10 56 -24t76 -14t76 14t56 24z" />
    <glyph glyph-name="ibreve" unicode="&#x12d;" horiz-adv-x="290" 
d="M50 0v490l21 9q39 17 75.5 24t78.5 7h15v-530h-190zM327 623q-9 -5 -24.5 -14t-38 -17.5t-52 -15t-66.5 -6.5t-66.5 6.5t-52 15t-38 17.5t-24.5 14l49 120q23 -10 56 -24t76 -14t76 14t56 24z" />
    <glyph glyph-name="Iogonek" unicode="&#x12e;" horiz-adv-x="320" 
d="M266 -220q-14 -9 -31 -14.5t-46 -5.5q-60 0 -86 26.5t-26 83.5q0 28 7 46.5t21 31t35 21.5t49 20q6 2 14 4t17 7h-170v710h220v-716q0 -26 -10.5 -42.5t-36.5 -25.5l-30 -11q-26 -9 -33 -18t-7 -27q0 -19 6.5 -27t33.5 -8q11 0 21 2t25 8z" />
    <glyph glyph-name="iogonek" unicode="&#x12f;" horiz-adv-x="290" 
d="M238 -220q-14 -9 -31 -14.5t-46 -5.5q-60 0 -86 26.5t-26 83.5q0 28 7 46.5t21 31t35 21.5t49 20q6 2 14 4t17 7h-142v490l21 9q39 17 75.5 24t78.5 7h15v-536q0 -26 -9.5 -42.5t-35.5 -25.5l-30 -11q-26 -9 -33 -18t-7 -27q0 -19 6.5 -27t33.5 -8q11 0 21 2t25 8z
M145 550q-20 0 -37 3.5t-30 13.5t-20.5 28.5t-7.5 49.5t7.5 49.5t20.5 28.5t30 13.5t37 3.5q19 0 36.5 -3.5t30.5 -13.5t20.5 -28.5t7.5 -49.5t-7.5 -49.5t-20.5 -28.5t-30.5 -13.5t-36.5 -3.5z" />
    <glyph glyph-name="Idotaccent" unicode="&#x130;" horiz-adv-x="320" 
d="M50 0v710h220v-710h-220zM160 750q-20 0 -37 3.5t-30 13.5t-20.5 28.5t-7.5 49.5t7.5 49.5t20.5 28.5t30 13.5t37 3.5q19 0 36.5 -3.5t30.5 -13.5t20.5 -28.5t7.5 -49.5t-7.5 -49.5t-20.5 -28.5t-30.5 -13.5t-36.5 -3.5z" />
    <glyph glyph-name="dotlessi" unicode="&#x131;" horiz-adv-x="290" 
d="M50 0v490l21 9q39 17 75.5 24t78.5 7h15v-530h-190z" />
    <glyph glyph-name="IJ" unicode="&#x132;" horiz-adv-x="802" 
d="M50 0v710h220v-710h-220zM532 710h220v-491q0 -68 -20 -112.5t-51.5 -70.5t-70.5 -36.5t-77 -10.5q-72 0 -119.5 13.5t-83.5 36.5l69 188q37 -17 62 -22t54 -5q10 0 13.5 5t3.5 10v495z" />
    <glyph glyph-name="ij" unicode="&#x133;" horiz-adv-x="557" 
d="M50 0v490l21 9q39 17 75.5 24t78.5 7h15v-530h-190zM145 550q-20 0 -37 3.5t-30 13.5t-20.5 28.5t-7.5 49.5t7.5 49.5t20.5 28.5t30 13.5t37 3.5q19 0 36.5 -3.5t30.5 -13.5t20.5 -28.5t7.5 -49.5t-7.5 -49.5t-20.5 -28.5t-30.5 -13.5t-36.5 -3.5zM242 -29q14 -7 21.5 -9
t20.5 -2q10 0 16.5 1.5t10.5 7t5.5 16.5t1.5 30v475l21 9q39 17 75.5 24t78.5 7h15v-515q0 -73 -12.5 -120.5t-37 -75t-62 -38.5t-86.5 -11q-37 0 -66.5 7t-68.5 30zM413 550q-20 0 -37 3.5t-30 13.5t-20.5 28.5t-7.5 49.5t7.5 49.5t20.5 28.5t30 13.5t37 3.5
q19 0 36.5 -3.5t30.5 -13.5t20.5 -28.5t7.5 -49.5t-7.5 -49.5t-20.5 -28.5t-30.5 -13.5t-36.5 -3.5z" />
    <glyph glyph-name="Jcircumflex" unicode="&#x134;" horiz-adv-x="482" 
d="M212 710h220v-491q0 -68 -20 -112.5t-51.5 -70.5t-70.5 -36.5t-77 -10.5q-72 0 -119.5 13.5t-83.5 36.5l69 188q37 -17 62 -22t54 -5q10 0 13.5 5t3.5 10v495zM297 825l-126 -75l-61 129l187 59l187 -59l-61 -129z" />
    <glyph glyph-name="jcircumflex" unicode="&#x135;" horiz-adv-x="357" 
d="M42 -29q14 -7 21.5 -9t20.5 -2q10 0 16.5 1.5t10.5 7t5.5 16.5t1.5 30v475l21 9q39 17 75.5 24t78.5 7h15v-515q0 -73 -12.5 -120.5t-37 -75t-62 -38.5t-86.5 -11q-37 0 -66.5 7t-68.5 30zM213 645l-126 -75l-61 129l187 59l187 -59l-61 -129z" />
    <glyph glyph-name="kgreenlandic" unicode="&#x138;" horiz-adv-x="611" 
d="M365 0l-105 175h-20v-175h-190v530h190v-174h20l107 174h229l-184 -265l184 -265h-231z" />
    <glyph glyph-name="Lacute" unicode="&#x139;" horiz-adv-x="498" 
d="M50 0v710h220v-500h218v-210h-438zM150 750l-30 64l196 124l61 -129z" />
    <glyph glyph-name="lacute" unicode="&#x13a;" horiz-adv-x="383" 
d="M383 27q-39 -23 -68.5 -30t-66.5 -7q-50 0 -87 11t-61.5 38.5t-37 75t-12.5 120.5v475l21 9q39 17 75.5 24t78.5 7h15v-515q0 -19 1.5 -30t5.5 -16.5t10.5 -7t16.5 -1.5q13 0 20.5 2t21.5 9zM136 771l-30 64l196 124l61 -129z" />
    <glyph glyph-name="Lcaron" unicode="&#x13d;" horiz-adv-x="498" 
d="M50 0v710h220v-500h218v-210h-438zM296 706l30 11q20 8 38.5 17t29.5 6l11 -3l5 4q-30 7 -49 28.5t-19 69.5q0 31 8.5 51t23.5 31t34.5 15t41.5 4q26 0 46 -5t33 -18t19.5 -35t6.5 -56q0 -39 -12 -82.5t-50 -83.5q-36 -35 -74 -55t-80 -32z" />
    <glyph glyph-name="lcaron" unicode="&#x13e;" horiz-adv-x="383" 
d="M383 27q-39 -23 -68.5 -30t-66.5 -7q-50 0 -87 11t-61.5 38.5t-37 75t-12.5 120.5v475l21 9q39 17 75.5 24t78.5 7h15v-515q0 -19 1.5 -30t5.5 -16.5t10.5 -7t16.5 -1.5q13 0 20.5 2t21.5 9zM296 706l30 11q20 8 38.5 17t29.5 6l11 -3l5 4q-30 7 -49 28.5t-19 69.5
q0 31 8.5 51t23.5 31t34.5 15t41.5 4q26 0 46 -5t33 -18t19.5 -35t6.5 -56q0 -39 -12 -82.5t-50 -83.5q-36 -35 -74 -55t-80 -32z" />
    <glyph glyph-name="Lslash" unicode="&#x141;" horiz-adv-x="589" 
d="M141 0v232l-70 -40l-61 106l131 75v337h220v-210l98 57l61 -106l-159 -92v-149h218v-210h-438z" />
    <glyph glyph-name="lslash" unicode="&#x142;" horiz-adv-x="425" 
d="M425 27q-39 -23 -68.5 -30t-66.5 -7q-50 0 -87 11t-61.5 38.5t-37 75t-12.5 120.5v21l-50 -28l-61 106l111 63v313l21 9q39 17 75.5 24t78.5 7h15v-244l88 51l61 -106l-149 -86v-130q0 -19 1.5 -30t5.5 -16.5t10.5 -7t16.5 -1.5q13 0 20.5 2t21.5 9z" />
    <glyph glyph-name="Nacute" unicode="&#x143;" horiz-adv-x="722" 
d="M501 0l-251 364l10 -85q5 -42 7.5 -79.5t2.5 -79.5v-120h-220v710h171l251 -367l-10 88q-5 42 -7.5 79.5t-2.5 79.5v120h220v-710h-171zM262 750l-30 64l196 124l61 -129z" />
    <glyph glyph-name="nacute" unicode="&#x144;" horiz-adv-x="620" 
d="M390 0v266q0 29 -2.5 46t-11 25.5t-25.5 11t-46 2.5h-21q-17 0 -26.5 -7.5t-13.5 -19.5t-4.5 -28t-0.5 -33v-263h-189v530h95l69 -45q16 17 29 28t26 17t28.5 8.5t37.5 2.5q60 0 106 -15t76.5 -48t46.5 -85.5t16 -126.5v-266h-190zM211 570l-30 64l196 124l61 -129z" />
    <glyph glyph-name="Ncaron" unicode="&#x147;" horiz-adv-x="722" 
d="M501 0l-251 364l10 -85q5 -42 7.5 -79.5t2.5 -79.5v-120h-220v710h171l251 -367l-10 88q-5 42 -7.5 79.5t-2.5 79.5v120h220v-710h-171zM361 750l-187 59l61 129l126 -75l126 75l61 -129z" />
    <glyph glyph-name="ncaron" unicode="&#x148;" horiz-adv-x="620" 
d="M390 0v266q0 29 -2.5 46t-11 25.5t-25.5 11t-46 2.5h-21q-17 0 -26.5 -7.5t-13.5 -19.5t-4.5 -28t-0.5 -33v-263h-189v530h95l69 -45q16 17 29 28t26 17t28.5 8.5t37.5 2.5q60 0 106 -15t76.5 -48t46.5 -85.5t16 -126.5v-266h-190zM310 570l-187 59l61 129l126 -75
l126 75l61 -129z" />
    <glyph glyph-name="Omacron" unicode="&#x14c;" horiz-adv-x="771" 
d="M386 -10q-84 0 -148.5 21t-108.5 65t-66.5 113.5t-22.5 166.5t22.5 166.5t66.5 113.5t108.5 65t148.5 21t148 -21t108 -65t66.5 -113.5t22.5 -166.5t-22.5 -166.5t-66.5 -113.5t-108 -65t-148 -21zM386 209q30 0 54 4.5t40 19.5t24.5 44t8.5 79t-8.5 79.5t-24.5 44.5
t-40 19t-54 4q-31 0 -54.5 -4t-39.5 -19t-24.5 -44.5t-8.5 -79.5t8.5 -79t24.5 -44t39.5 -19.5t54.5 -4.5zM185 790v100h400v-100h-400z" />
    <glyph glyph-name="omacron" unicode="&#x14d;" 
d="M315 -11q-137 0 -206 64.5t-69 210.5t69 210.5t206 64.5t206 -64.5t69 -210.5t-69 -210.5t-206 -64.5zM400 264q0 29 -6.5 46t-18 25.5t-27 11t-33.5 2.5t-33.5 -2.5t-27 -11t-18 -25.5t-6.5 -46t6.5 -46t18 -25.5t27 -11t33.5 -2.5t33.5 2.5t27 11t18 25.5t6.5 46z
M115 610v100h400v-100h-400z" />
    <glyph glyph-name="Obreve" unicode="&#x14e;" horiz-adv-x="771" 
d="M386 -10q-84 0 -148.5 21t-108.5 65t-66.5 113.5t-22.5 166.5t22.5 166.5t66.5 113.5t108.5 65t148.5 21t148 -21t108 -65t66.5 -113.5t22.5 -166.5t-22.5 -166.5t-66.5 -113.5t-108 -65t-148 -21zM386 209q30 0 54 4.5t40 19.5t24.5 44t8.5 79t-8.5 79.5t-24.5 44.5
t-40 19t-54 4q-31 0 -54.5 -4t-39.5 -19t-24.5 -44.5t-8.5 -79.5t8.5 -79t24.5 -44t39.5 -19.5t54.5 -4.5zM566 803q-9 -5 -24.5 -14t-38 -17.5t-52 -15t-66.5 -6.5t-66.5 6.5t-52 15t-38 17.5t-24.5 14l49 120q23 -10 56 -24t76 -14t76 14t56 24z" />
    <glyph glyph-name="obreve" unicode="&#x14f;" 
d="M315 -11q-137 0 -206 64.5t-69 210.5t69 210.5t206 64.5t206 -64.5t69 -210.5t-69 -210.5t-206 -64.5zM400 264q0 29 -6.5 46t-18 25.5t-27 11t-33.5 2.5t-33.5 -2.5t-27 -11t-18 -25.5t-6.5 -46t6.5 -46t18 -25.5t27 -11t33.5 -2.5t33.5 2.5t27 11t18 25.5t6.5 46z
M496 623q-9 -5 -24.5 -14t-38 -17.5t-52 -15t-66.5 -6.5t-66.5 6.5t-52 15t-38 17.5t-24.5 14l49 120q23 -10 56 -24t76 -14t76 14t56 24z" />
    <glyph glyph-name="Ohungarumlaut" unicode="&#x150;" horiz-adv-x="771" 
d="M386 -10q-84 0 -148.5 21t-108.5 65t-66.5 113.5t-22.5 166.5t22.5 166.5t66.5 113.5t108.5 65t148.5 21t148 -21t108 -65t66.5 -113.5t22.5 -166.5t-22.5 -166.5t-66.5 -113.5t-108 -65t-148 -21zM386 209q30 0 54 4.5t40 19.5t24.5 44t8.5 79t-8.5 79.5t-24.5 44.5
t-40 19t-54 4q-31 0 -54.5 -4t-39.5 -19t-24.5 -44.5t-8.5 -79.5t8.5 -79t24.5 -44t39.5 -19.5t54.5 -4.5zM151 750l-30 64l196 124l61 -129zM423 750l-30 64l196 124l61 -129z" />
    <glyph glyph-name="ohungarumlaut" unicode="&#x151;" 
d="M315 -11q-137 0 -206 64.5t-69 210.5t69 210.5t206 64.5t206 -64.5t69 -210.5t-69 -210.5t-206 -64.5zM400 264q0 29 -6.5 46t-18 25.5t-27 11t-33.5 2.5t-33.5 -2.5t-27 -11t-18 -25.5t-6.5 -46t6.5 -46t18 -25.5t27 -11t33.5 -2.5t33.5 2.5t27 11t18 25.5t6.5 46z
M80 570l-30 64l196 124l61 -129zM352 570l-30 64l196 124l61 -129z" />
    <glyph glyph-name="OE" unicode="&#x152;" horiz-adv-x="1033" 
d="M504 0v2q-54 -12 -118 -12q-84 0 -148.5 21t-108.5 65t-66.5 113.5t-22.5 166.5t22.5 166.5t66.5 113.5t108.5 65t148.5 21q66 0 118 -13v1h479v-205h-259v-50h239v-200h-239v-50h259v-205h-479zM386 209q30 0 54 4.5t40 19.5t24.5 44t8.5 79t-8.5 79.5t-24.5 44.5
t-40 19t-54 4q-31 0 -54.5 -4t-39.5 -19t-24.5 -44.5t-8.5 -79.5t8.5 -79t24.5 -44t39.5 -19.5t54.5 -4.5z" />
    <glyph glyph-name="oe" unicode="&#x153;" horiz-adv-x="940" 
d="M889 30q-15 -6 -38 -13t-52 -13t-63.5 -10.5t-73.5 -4.5q-54 0 -97 9.5t-76 30.5q-33 -21 -76.5 -30.5t-97.5 -9.5q-137 0 -206 64.5t-69 210.5t69 210.5t206 64.5q109 0 173 -39q30 20 69.5 29.5t87.5 9.5q61 0 108.5 -15.5t80 -49t49.5 -85.5t17 -125
q-48 -26 -92.5 -32.5t-97.5 -6.5h-122q2 -17 8.5 -26.5t17 -14t23.5 -5t28 -0.5q24 0 44 1.5t39.5 4t40 6.5t44.5 11zM400 264q0 29 -6.5 46t-18 25.5t-27 11t-33.5 2.5t-33.5 -2.5t-27 -11t-18 -25.5t-6.5 -46t6.5 -46t18 -25.5t27 -11t33.5 -2.5t33.5 2.5t27 11t18 25.5
t6.5 46zM700 305q1 21 -4 32t-13.5 16t-18 5.5t-16.5 0.5q-12 0 -24 -1.5t-20.5 -6.5t-13 -16t-2.5 -30h112z" />
    <glyph glyph-name="Racute" unicode="&#x154;" horiz-adv-x="685" 
d="M411 0l-84 225h-57v-225h-220v710h342q45 0 87.5 -4.5t76 -28t54 -73t20.5 -139.5q0 -82 -24.5 -130t-62.5 -74l102 -261h-234zM360 415q10 0 19.5 1t16 6t10.5 15t4 28t-4 28t-10.5 15t-16 6t-19.5 1h-90v-100h90zM244 750l-30 64l196 124l61 -129z" />
    <glyph glyph-name="racute" unicode="&#x155;" horiz-adv-x="390" 
d="M50 0v530h95l69 -45q17 20 48 37t72 17q17 0 27 -3t19 -6l-30 -181h-65q-17 0 -26.5 -6.5t-13.5 -17.5t-4.5 -26t-0.5 -32v-267h-190zM164 570l-30 64l196 124l61 -129z" />
    <glyph glyph-name="Rcaron" unicode="&#x158;" horiz-adv-x="685" 
d="M411 0l-84 225h-57v-225h-220v710h342q45 0 87.5 -4.5t76 -28t54 -73t20.5 -139.5q0 -82 -24.5 -130t-62.5 -74l102 -261h-234zM360 415q10 0 19.5 1t16 6t10.5 15t4 28t-4 28t-10.5 15t-16 6t-19.5 1h-90v-100h90zM342 750l-187 59l61 129l126 -75l126 75l61 -129z" />
    <glyph glyph-name="rcaron" unicode="&#x159;" horiz-adv-x="390" 
d="M50 0v530h95l69 -45q17 20 48 37t72 17q17 0 27 -3t19 -6l-30 -181h-65q-17 0 -26.5 -6.5t-13.5 -17.5t-4.5 -26t-0.5 -32v-267h-190zM196 570l-187 59l61 129l126 -75l126 75l61 -129z" />
    <glyph glyph-name="Sacute" unicode="&#x15a;" horiz-adv-x="629" 
d="M116 234q19 -9 48 -15.5t58.5 -11t55.5 -6.5t39 -2q26 0 32.5 7.5t6.5 15.5q0 14 -7 21t-18 11q-16 6 -42.5 7.5t-56.5 6.5t-60.5 16.5t-55.5 35.5t-40.5 63.5t-15.5 102.5q0 52 13 95.5t44 75t81.5 48.5t124.5 17q41 0 81 -5t74.5 -13t60.5 -17.5t40 -18.5l-66 -187
q-19 9 -46.5 15.5t-56 11t-55 5.5t-44.5 -2q-17 -3 -22.5 -9t-5.5 -15q0 -12 7 -17.5t18 -8.5q16 -4 43.5 -6t58.5 -7.5t63 -18t58 -37.5t42 -65t16 -102q0 -53 -14 -96.5t-45.5 -75t-82.5 -48.5t-125 -17q-46 0 -91 6t-83.5 15t-66.5 19.5t-41 18.5zM236 750l-30 64
l196 124l61 -129z" />
    <glyph glyph-name="sacute" unicode="&#x15b;" horiz-adv-x="520" 
d="M93 186q11 -2 28.5 -7t40 -9.5t47.5 -8t51 -3.5q19 0 25.5 2.5t6.5 7.5t-3.5 10t-6.5 6q-54 13 -97.5 22t-73.5 25.5t-46 46t-16 84.5q0 51 14 85.5t41 55t66.5 29t89.5 8.5q36 0 71 -3.5t65 -9t53 -12.5t35 -14l-53 -153q-16 7 -42.5 12.5t-53.5 9t-50.5 4t-33.5 -1.5
q-8 -2 -10.5 -5.5t-2.5 -5.5q0 -4 4 -7.5t7 -4.5q54 -12 98 -22t76 -27.5t49.5 -48t17.5 -85.5q0 -51 -15 -84.5t-43 -54t-67.5 -29t-88.5 -8.5q-40 0 -79 4.5t-72.5 11t-58.5 14t-36 13.5zM161 570l-30 64l196 124l61 -129z" />
    <glyph glyph-name="Scircumflex" unicode="&#x15c;" horiz-adv-x="629" 
d="M116 234q19 -9 48 -15.5t58.5 -11t55.5 -6.5t39 -2q26 0 32.5 7.5t6.5 15.5q0 14 -7 21t-18 11q-16 6 -42.5 7.5t-56.5 6.5t-60.5 16.5t-55.5 35.5t-40.5 63.5t-15.5 102.5q0 52 13 95.5t44 75t81.5 48.5t124.5 17q41 0 81 -5t74.5 -13t60.5 -17.5t40 -18.5l-66 -187
q-19 9 -46.5 15.5t-56 11t-55 5.5t-44.5 -2q-17 -3 -22.5 -9t-5.5 -15q0 -12 7 -17.5t18 -8.5q16 -4 43.5 -6t58.5 -7.5t63 -18t58 -37.5t42 -65t16 -102q0 -53 -14 -96.5t-45.5 -75t-82.5 -48.5t-125 -17q-46 0 -91 6t-83.5 15t-66.5 19.5t-41 18.5zM329 825l-126 -75
l-61 129l187 59l187 -59l-61 -129z" />
    <glyph glyph-name="scircumflex" unicode="&#x15d;" horiz-adv-x="520" 
d="M93 186q11 -2 28.5 -7t40 -9.5t47.5 -8t51 -3.5q19 0 25.5 2.5t6.5 7.5t-3.5 10t-6.5 6q-54 13 -97.5 22t-73.5 25.5t-46 46t-16 84.5q0 51 14 85.5t41 55t66.5 29t89.5 8.5q36 0 71 -3.5t65 -9t53 -12.5t35 -14l-53 -153q-16 7 -42.5 12.5t-53.5 9t-50.5 4t-33.5 -1.5
q-8 -2 -10.5 -5.5t-2.5 -5.5q0 -4 4 -7.5t7 -4.5q54 -12 98 -22t76 -27.5t49.5 -48t17.5 -85.5q0 -51 -15 -84.5t-43 -54t-67.5 -29t-88.5 -8.5q-40 0 -79 4.5t-72.5 11t-58.5 14t-36 13.5zM267 645l-126 -75l-61 129l187 59l187 -59l-61 -129z" />
    <glyph glyph-name="Scedilla" unicode="&#x15e;" horiz-adv-x="629" 
d="M276 -156q15 -6 25 -8t22 -2q26 0 32.5 3t6.5 22q0 18 -6.5 21.5t-32.5 3.5h-7h-23.5t-17.5 4.5t-9.5 15t0.5 30.5l7 56q-40 3 -77 9.5t-68 14.5t-54 17t-34 16l76 187q19 -9 48 -15.5t58.5 -11t55.5 -6.5t39 -2q26 0 32.5 7.5t6.5 15.5q0 14 -7 21t-18 11
q-16 6 -42.5 7.5t-56.5 6.5t-60.5 16.5t-55.5 35.5t-40.5 63.5t-15.5 102.5q0 52 13 95.5t44 75t81.5 48.5t124.5 17q41 0 81 -5t74.5 -13t60.5 -17.5t40 -18.5l-66 -187q-19 9 -46.5 15.5t-56 11t-55 5.5t-44.5 -2q-17 -3 -22.5 -9t-5.5 -15q0 -12 7 -17.5t18 -8.5
q16 -4 43.5 -6t58.5 -7.5t63 -18t58 -37.5t42 -65t16 -102q0 -51 -13 -93t-42 -72.5t-75 -49t-113 -21.5l-4 -31q51 -4 73.5 -25t22.5 -74q0 -57 -25.5 -78.5t-85.5 -21.5q-29 0 -46 5.5t-31 14.5z" />
    <glyph glyph-name="scedilla" unicode="&#x15f;" horiz-adv-x="520" 
d="M215 -156q15 -6 25 -8t22 -2q26 0 32.5 3t6.5 22q0 18 -6.5 21.5t-32.5 3.5h-7h-23.5t-17.5 4.5t-9.5 15t0.5 30.5l7 59q-31 3 -60 7.5t-53 10t-42 11.5t-27 11l63 153q11 -2 28.5 -7t40 -9.5t47.5 -8t51 -3.5q19 0 25.5 2.5t6.5 7.5t-3.5 10t-6.5 6q-54 13 -97.5 22
t-73.5 25.5t-46 46t-16 84.5q0 51 14 85.5t41 55t66.5 29t89.5 8.5q36 0 71 -3.5t65 -9t53 -12.5t35 -14l-53 -153q-16 7 -42.5 12.5t-53.5 9t-50.5 4t-33.5 -1.5q-8 -2 -10.5 -5.5t-2.5 -5.5q0 -4 4 -7.5t7 -4.5q54 -12 98 -22t76 -27.5t49.5 -48t17.5 -85.5
q0 -50 -14.5 -83t-41 -53.5t-64.5 -29.5t-85 -10l-4 -32q51 -4 73.5 -25t22.5 -74q0 -57 -25.5 -78.5t-85.5 -21.5q-29 0 -46 5.5t-31 14.5z" />
    <glyph glyph-name="Scaron" unicode="&#x160;" horiz-adv-x="629" 
d="M116 234q19 -9 48 -15.5t58.5 -11t55.5 -6.5t39 -2q26 0 32.5 7.5t6.5 15.5q0 14 -7 21t-18 11q-16 6 -42.5 7.5t-56.5 6.5t-60.5 16.5t-55.5 35.5t-40.5 63.5t-15.5 102.5q0 52 13 95.5t44 75t81.5 48.5t124.5 17q41 0 81 -5t74.5 -13t60.5 -17.5t40 -18.5l-66 -187
q-19 9 -46.5 15.5t-56 11t-55 5.5t-44.5 -2q-17 -3 -22.5 -9t-5.5 -15q0 -12 7 -17.5t18 -8.5q16 -4 43.5 -6t58.5 -7.5t63 -18t58 -37.5t42 -65t16 -102q0 -53 -14 -96.5t-45.5 -75t-82.5 -48.5t-125 -17q-46 0 -91 6t-83.5 15t-66.5 19.5t-41 18.5zM314 750l-187 59
l61 129l126 -75l126 75l61 -129z" />
    <glyph glyph-name="scaron" unicode="&#x161;" horiz-adv-x="520" 
d="M93 186q11 -2 28.5 -7t40 -9.5t47.5 -8t51 -3.5q19 0 25.5 2.5t6.5 7.5t-3.5 10t-6.5 6q-54 13 -97.5 22t-73.5 25.5t-46 46t-16 84.5q0 51 14 85.5t41 55t66.5 29t89.5 8.5q36 0 71 -3.5t65 -9t53 -12.5t35 -14l-53 -153q-16 7 -42.5 12.5t-53.5 9t-50.5 4t-33.5 -1.5
q-8 -2 -10.5 -5.5t-2.5 -5.5q0 -4 4 -7.5t7 -4.5q54 -12 98 -22t76 -27.5t49.5 -48t17.5 -85.5q0 -51 -15 -84.5t-43 -54t-67.5 -29t-88.5 -8.5q-40 0 -79 4.5t-72.5 11t-58.5 14t-36 13.5zM260 570l-187 59l61 129l126 -75l126 75l61 -129z" />
    <glyph glyph-name="uni0162" unicode="&#x162;" horiz-adv-x="558" 
d="M240 -156q15 -6 25 -8t22 -2q26 0 32.5 3t6.5 22q0 18 -6.5 21.5t-32.5 3.5h-7h-23.5t-17.5 4.5t-9.5 15t0.5 30.5l8 66h-69v500h-159v210h538v-210h-159v-500h-77l-6 -42q51 -4 73.5 -25t22.5 -74q0 -57 -25.5 -78.5t-85.5 -21.5q-29 0 -46 5.5t-31 14.5z" />
    <glyph glyph-name="uni0163" unicode="&#x163;" horiz-adv-x="447" 
d="M175 -156q15 -6 25 -8t22 -2q26 0 32.5 3t6.5 22q0 18 -6.5 21.5t-32.5 3.5h-7h-23.5t-17.5 4.5t-9.5 15t0.5 30.5l10 78q-51 24 -76 85t-25 173v90h-64v170h64v84l21 9q39 17 75.5 24t78.5 7h15v-124h142v-170h-142v-94q0 -26 1 -41.5t5 -24.5t11.5 -12t20.5 -3
q17 0 30.5 5t37.5 16l67 -164q-38 -21 -78.5 -34t-91.5 -13h-10.5t-10.5 1l-5 -38q51 -4 73.5 -25t22.5 -74q0 -57 -25.5 -78.5t-85.5 -21.5q-29 0 -46 5.5t-31 14.5z" />
    <glyph glyph-name="Tcaron" unicode="&#x164;" horiz-adv-x="558" 
d="M169 0v500h-159v210h538v-210h-159v-500h-220zM279 750l-187 59l61 129l126 -75l126 75l61 -129z" />
    <glyph glyph-name="tcaron" unicode="&#x165;" horiz-adv-x="447" 
d="M437 42q-38 -21 -78.5 -34t-91.5 -13q-48 0 -84 14t-60 46t-36.5 85t-12.5 130v90h-64v170h64v84l21 9q39 17 75.5 24t78.5 7h15v-124h142v-170h-142v-94q0 -26 1 -41.5t5 -24.5t11.5 -12t20.5 -3q17 0 30.5 5t37.5 16zM286 709l30 11q20 8 38.5 17t29.5 6l11 -3l5 4
q-30 7 -49 28.5t-19 69.5q0 31 8.5 51t23.5 31t34.5 15t41.5 4q26 0 46 -5t33 -18t19.5 -35t6.5 -56q0 -39 -12 -82.5t-50 -83.5q-36 -35 -74 -55t-80 -32z" />
    <glyph glyph-name="Utilde" unicode="&#x168;" horiz-adv-x="738" 
d="M460 710h218v-419q0 -90 -24.5 -148.5t-67 -92.5t-98.5 -47.5t-119 -13.5t-119.5 13.5t-98.5 47.5t-66.5 92.5t-24.5 148.5v419h218v-412q0 -37 5.5 -57.5t17 -30t28 -11t39.5 -1.5q22 0 39.5 1.5t29 11t17.5 30t6 57.5v412zM506 803q-13 -18 -35 -28.5t-46 -10.5
q-15 0 -33.5 5t-41.5 16q-11 5 -19.5 9t-13.5 4q-4 0 -7.5 -3t-6.5 -7l-29 -35l-70 86l29 40q13 17 34 28t47 11q22 0 40.5 -6.5t34.5 -14.5q11 -5 20 -9t13 -4q3 0 7 3t7 7l29 35l69 -86z" />
    <glyph glyph-name="utilde" unicode="&#x169;" 
d="M485 0l-69 45q-15 -17 -28 -27.5t-26 -17t-27 -9t-32 -2.5q-65 0 -112.5 15.5t-78.5 48.5t-46.5 85t-15.5 126v266h190v-266q0 -29 2.5 -46t11 -25.5t25.5 -11t46 -2.5h21q17 0 26.5 7.5t13.5 19.5t4.5 28t0.5 33v263h189v-530h-95zM452 623q-13 -18 -35 -28.5t-46 -10.5
q-15 0 -33.5 5t-41.5 16q-11 5 -19.5 9t-13.5 4q-4 0 -7.5 -3t-6.5 -7l-29 -35l-70 86l29 40q13 17 34 28t47 11q22 0 40.5 -6.5t34.5 -14.5q11 -5 20 -9t13 -4q3 0 7 3t7 7l29 35l69 -86z" />
    <glyph glyph-name="Umacron" unicode="&#x16a;" horiz-adv-x="738" 
d="M460 710h218v-419q0 -90 -24.5 -148.5t-67 -92.5t-98.5 -47.5t-119 -13.5t-119.5 13.5t-98.5 47.5t-66.5 92.5t-24.5 148.5v419h218v-412q0 -37 5.5 -57.5t17 -30t28 -11t39.5 -1.5q22 0 39.5 1.5t29 11t17.5 30t6 57.5v412zM169 790v100h400v-100h-400z" />
    <glyph glyph-name="umacron" unicode="&#x16b;" 
d="M485 0l-69 45q-15 -17 -28 -27.5t-26 -17t-27 -9t-32 -2.5q-65 0 -112.5 15.5t-78.5 48.5t-46.5 85t-15.5 126v266h190v-266q0 -29 2.5 -46t11 -25.5t25.5 -11t46 -2.5h21q17 0 26.5 7.5t13.5 19.5t4.5 28t0.5 33v263h189v-530h-95zM115 610v100h400v-100h-400z" />
    <glyph glyph-name="Ubreve" unicode="&#x16c;" horiz-adv-x="738" 
d="M460 710h218v-419q0 -90 -24.5 -148.5t-67 -92.5t-98.5 -47.5t-119 -13.5t-119.5 13.5t-98.5 47.5t-66.5 92.5t-24.5 148.5v419h218v-412q0 -37 5.5 -57.5t17 -30t28 -11t39.5 -1.5q22 0 39.5 1.5t29 11t17.5 30t6 57.5v412zM550 803q-9 -5 -24.5 -14t-38 -17.5t-52 -15
t-66.5 -6.5t-66.5 6.5t-52 15t-38 17.5t-24.5 14l49 120q23 -10 56 -24t76 -14t76 14t56 24z" />
    <glyph glyph-name="ubreve" unicode="&#x16d;" 
d="M485 0l-69 45q-15 -17 -28 -27.5t-26 -17t-27 -9t-32 -2.5q-65 0 -112.5 15.5t-78.5 48.5t-46.5 85t-15.5 126v266h190v-266q0 -29 2.5 -46t11 -25.5t25.5 -11t46 -2.5h21q17 0 26.5 7.5t13.5 19.5t4.5 28t0.5 33v263h189v-530h-95zM496 623q-9 -5 -24.5 -14t-38 -17.5
t-52 -15t-66.5 -6.5t-66.5 6.5t-52 15t-38 17.5t-24.5 14l49 120q23 -10 56 -24t76 -14t76 14t56 24z" />
    <glyph glyph-name="Uring" unicode="&#x16e;" horiz-adv-x="738" 
d="M460 710h218v-419q0 -90 -24.5 -148.5t-67 -92.5t-98.5 -47.5t-119 -13.5t-119.5 13.5t-98.5 47.5t-66.5 92.5t-24.5 148.5v419h218v-412q0 -37 5.5 -57.5t17 -30t28 -11t39.5 -1.5q22 0 39.5 1.5t29 11t17.5 30t6 57.5v412zM369 749q-16 0 -29.5 2.5t-24 10.5t-16.5 23
t-6 40t6 40t16.5 23t24 10.5t29.5 2.5t29.5 -2.5t24 -10.5t16.5 -23t6 -40t-6 -40t-16.5 -23t-24 -10.5t-29.5 -2.5zM369 779q19 0 32.5 8t13.5 38t-13.5 38t-32.5 8t-32.5 -8t-13.5 -38t13.5 -38t32.5 -8z" />
    <glyph glyph-name="uring" unicode="&#x16f;" 
d="M485 0l-69 45q-15 -17 -28 -27.5t-26 -17t-27 -9t-32 -2.5q-65 0 -112.5 15.5t-78.5 48.5t-46.5 85t-15.5 126v266h190v-266q0 -29 2.5 -46t11 -25.5t25.5 -11t46 -2.5h21q17 0 26.5 7.5t13.5 19.5t4.5 28t0.5 33v263h189v-530h-95zM315 569q-16 0 -29.5 2.5t-24 10.5
t-16.5 23t-6 40t6 40t16.5 23t24 10.5t29.5 2.5t29.5 -2.5t24 -10.5t16.5 -23t6 -40t-6 -40t-16.5 -23t-24 -10.5t-29.5 -2.5zM315 599q19 0 32.5 8t13.5 38t-13.5 38t-32.5 8t-32.5 -8t-13.5 -38t13.5 -38t32.5 -8z" />
    <glyph glyph-name="Uhungarumlaut" unicode="&#x170;" horiz-adv-x="738" 
d="M460 710h218v-419q0 -90 -24.5 -148.5t-67 -92.5t-98.5 -47.5t-119 -13.5t-119.5 13.5t-98.5 47.5t-66.5 92.5t-24.5 148.5v419h218v-412q0 -37 5.5 -57.5t17 -30t28 -11t39.5 -1.5q22 0 39.5 1.5t29 11t17.5 30t6 57.5v412zM134 750l-30 64l196 124l61 -129zM406 750
l-30 64l196 124l61 -129z" />
    <glyph glyph-name="uhungarumlaut" unicode="&#x171;" 
d="M485 0l-69 45q-15 -17 -28 -27.5t-26 -17t-27 -9t-32 -2.5q-65 0 -112.5 15.5t-78.5 48.5t-46.5 85t-15.5 126v266h190v-266q0 -29 2.5 -46t11 -25.5t25.5 -11t46 -2.5h21q17 0 26.5 7.5t13.5 19.5t4.5 28t0.5 33v263h189v-530h-95zM80 570l-30 64l196 124l61 -129z
M352 570l-30 64l196 124l61 -129z" />
    <glyph glyph-name="Wcircumflex" unicode="&#x174;" horiz-adv-x="888" 
d="M532 0l-29 92q-15 51 -26.5 96.5t-21.5 97.5l-12 122l-12 -122q-9 -52 -20.5 -97.5t-26.5 -96.5l-28 -92h-209l-114 494q-12 51 -17.5 97.5t-5.5 99.5v19h199l17 -81q11 -52 18.5 -98.5t14.5 -98.5l10 -134l14 135q10 52 21.5 97.5t25.5 96.5l25 83h175l26 -84
q15 -51 26.5 -96.5t21.5 -97.5l15 -134l10 133q7 52 14.5 98.5t18.5 98.5l16 82h200v-19q0 -53 -5.5 -99.5t-17.5 -97.5l-115 -494h-208zM444 825l-126 -75l-61 129l187 59l187 -59l-61 -129z" />
    <glyph glyph-name="wcircumflex" unicode="&#x175;" horiz-adv-x="791" 
d="M462 0l-22 67q-11 38 -19.5 72.5t-16.5 72.5l-9 92l-9 -92q-7 -38 -15.5 -72.5t-19.5 -72.5l-21 -67h-187l-115 368q-9 38 -13.5 73.5t-4.5 74.5v14h180l12 -60q8 -39 14 -74t11 -74l8 -101l10 102q8 38 16 72.5t19 72.5l19 62h191l20 -63q11 -38 19.5 -72t16.5 -73
l11 -101l8 100q5 39 10.5 74t13.5 74l12 61h180v-14q0 -39 -4 -74.5t-13 -73.5l-116 -368h-186zM395 645l-126 -75l-61 129l187 59l187 -59l-61 -129z" />
    <glyph glyph-name="Ycircumflex" unicode="&#x176;" horiz-adv-x="614" 
d="M197 0v221l-129 269q-11 24 -21.5 45.5t-18.5 43t-13 44.5t-5 49v38h179l39 -88q22 -49 36 -93.5t26 -95.5l17 -83l17 83q12 51 26.5 96t35.5 93l38 88h180v-39q0 -26 -4.5 -49t-12.5 -44.5t-18.5 -43t-22.5 -45.5l-129 -268v-221h-220zM307 825l-126 -75l-61 129l187 59
l187 -59l-61 -129z" />
    <glyph glyph-name="ycircumflex" unicode="&#x177;" horiz-adv-x="558" 
d="M77 -50q10 -5 16 -5.5t17 -2.5q7 -1 12.5 -0.5t10 4t9 11t9.5 21.5l30 77l-128 271q-23 48 -33 93t-10 98v13h157l65 -139q23 -48 33.5 -93t12.5 -98h2q2 53 12.5 98t33.5 93l65 139h157v-13q0 -53 -10 -98t-32 -93l-167 -361q-20 -43 -38 -77t-40.5 -58t-52.5 -36.5
t-74 -12.5q-24 0 -52 5t-57 22zM279 645l-126 -75l-61 129l187 59l187 -59l-61 -129z" />
    <glyph glyph-name="Ydieresis" unicode="&#x178;" horiz-adv-x="634" 
d="M207 0v221l-129 269q-11 24 -21.5 45.5t-18.5 43t-13 44.5t-5 49v38h179l39 -88q22 -49 36 -93.5t26 -95.5l17 -83l17 83q12 51 26.5 96t35.5 93l38 88h180v-39q0 -26 -4.5 -49t-12.5 -44.5t-18.5 -43t-22.5 -45.5l-129 -268v-221h-220zM420 748q-19 0 -35.5 3t-29 12.5
t-19.5 27.5t-7 48t7 48t19.5 27.5t29 12.5t35.5 3t35.5 -3t29 -12.5t19.5 -27.5t7 -48t-7 -48t-19.5 -27.5t-29 -12.5t-35.5 -3zM213 748q-19 0 -35.5 3t-29 12.5t-19.5 27.5t-7 48t7 48t19.5 27.5t29 12.5t35.5 3t35.5 -3t29 -12.5t19.5 -27.5t7 -48t-7 -48t-19.5 -27.5
t-29 -12.5t-35.5 -3z" />
    <glyph glyph-name="Zacute" unicode="&#x179;" horiz-adv-x="666" 
d="M50 0v48q0 53 14 95.5t44 85.5l195 271h-245v210h542v-49q0 -53 -13.5 -95.5t-44.5 -85.5l-194 -270h268v-210h-566zM254 750l-30 64l196 124l61 -129z" />
    <glyph glyph-name="zacute" unicode="&#x17a;" horiz-adv-x="537" 
d="M40 0v85q0 19 8 34t19 29l176 212h-203v170h457v-85q0 -19 -8 -34t-19 -29l-176 -212h203v-170h-457zM170 570l-30 64l196 124l61 -129z" />
    <glyph glyph-name="Zdotaccent" unicode="&#x17b;" horiz-adv-x="666" 
d="M50 0v48q0 53 14 95.5t44 85.5l195 271h-245v210h542v-49q0 -53 -13.5 -95.5t-44.5 -85.5l-194 -270h268v-210h-566zM333 750q-20 0 -37 3.5t-30 13.5t-20.5 28.5t-7.5 49.5t7.5 49.5t20.5 28.5t30 13.5t37 3.5q19 0 36.5 -3.5t30.5 -13.5t20.5 -28.5t7.5 -49.5
t-7.5 -49.5t-20.5 -28.5t-30.5 -13.5t-36.5 -3.5z" />
    <glyph glyph-name="zdotaccent" unicode="&#x17c;" horiz-adv-x="537" 
d="M40 0v85q0 19 8 34t19 29l176 212h-203v170h457v-85q0 -19 -8 -34t-19 -29l-176 -212h203v-170h-457zM268 570q-20 0 -37 3.5t-30 13.5t-20.5 28.5t-7.5 49.5t7.5 49.5t20.5 28.5t30 13.5t37 3.5q19 0 36.5 -3.5t30.5 -13.5t20.5 -28.5t7.5 -49.5t-7.5 -49.5t-20.5 -28.5
t-30.5 -13.5t-36.5 -3.5z" />
    <glyph glyph-name="Zcaron" unicode="&#x17d;" horiz-adv-x="666" 
d="M50 0v48q0 53 14 95.5t44 85.5l195 271h-245v210h542v-49q0 -53 -13.5 -95.5t-44.5 -85.5l-194 -270h268v-210h-566zM333 750l-187 59l61 129l126 -75l126 75l61 -129z" />
    <glyph glyph-name="zcaron" unicode="&#x17e;" horiz-adv-x="537" 
d="M40 0v85q0 19 8 34t19 29l176 212h-203v170h457v-85q0 -19 -8 -34t-19 -29l-176 -212h203v-170h-457zM268 570l-187 59l61 129l126 -75l126 75l61 -129z" />
    <glyph glyph-name="uni018E" unicode="&#x18e;" horiz-adv-x="579" 
d="M50 0v205h259v50h-239v200h239v50h-259v205h479v-710h-479z" />
    <glyph glyph-name="uni018F" unicode="&#x18f;" horiz-adv-x="771" 
d="M505 431q-6 24 -16.5 38.5t-25.5 22t-34.5 10t-42.5 2.5q-13 0 -39 -2t-55.5 -6.5t-58.5 -11t-48 -15.5l-76 187q12 8 41 19.5t66.5 22t80 17.5t83.5 7q86 0 151.5 -20.5t110 -65t67 -113.5t22.5 -166t-22.5 -166.5t-66.5 -113.5t-108 -65t-148 -21q-83 0 -147 20.5
t-108 64t-67 111.5t-24 164q0 21 11 36t28.5 25t39 14.5t42.5 4.5h344zM265 286q6 -26 16.5 -41t25.5 -22.5t35 -10t44 -2.5t43.5 2.5t34.5 10t25.5 22.5t16.5 41h-241z" />
    <glyph glyph-name="uni0190" unicode="&#x190;" horiz-adv-x="629" 
d="M599 47q-14 -8 -41 -18.5t-65.5 -19.5t-85.5 -15t-99 -6q-65 0 -113.5 11.5t-80.5 37t-48 67t-16 102.5q0 29 5 55.5t19 47t39 34t66 16.5v4q-38 3 -61.5 15t-36.5 30.5t-17 42.5t-4 52q0 61 15 103t46 67.5t79 37t113 11.5q48 0 90 -5t76.5 -13t59.5 -17.5t40 -18.5
l-66 -187q-19 9 -46.5 15.5t-56 11t-55 5.5t-44.5 -2t-23 -10t-5 -15q0 -11 9 -17.5t39 -7.5l71 -1v-206h-71q-18 0 -28 -2.5t-14.5 -7t-5 -10t-0.5 -12.5q0 -8 6.5 -15.5t32.5 -7.5q13 0 39 2t55.5 6.5t58 11t48.5 15.5z" />
    <glyph glyph-name="Ohorn" unicode="&#x1a0;" horiz-adv-x="771" 
d="M661 637q19 0 27 6.5t8 33.5q0 11 -2 21t-8 25l65 27q9 -14 14.5 -31t5.5 -46q0 -51 -19 -77.5t-60 -32.5q39 -81 39 -207q0 -97 -22.5 -166.5t-66.5 -113.5t-108 -65t-148 -21t-148.5 21t-108.5 65t-66.5 113.5t-22.5 166.5t22.5 166.5t66.5 113.5t108.5 65t148.5 21
t147 -20.5t108 -64.5h20zM386 209q30 0 54 4.5t40 19.5t24.5 44t8.5 79t-8.5 79.5t-24.5 44.5t-40 19t-54 4q-31 0 -54.5 -4t-39.5 -19t-24.5 -44.5t-8.5 -79.5t8.5 -79t24.5 -44t39.5 -19.5t54.5 -4.5z" />
    <glyph glyph-name="ohorn" unicode="&#x1a1;" 
d="M630 555q9 -14 14.5 -31t5.5 -46q0 -49 -17.5 -75t-54.5 -34q12 -45 12 -105q0 -146 -69 -210.5t-206 -64.5t-206 64.5t-69 210.5t69 210.5t206 64.5q84 0 142 -23t91 -74q14 1 20.5 8.5t6.5 31.5q0 11 -2 21t-8 25zM400 264q0 29 -6.5 46t-18 25.5t-27 11t-33.5 2.5
t-33.5 -2.5t-27 -11t-18 -25.5t-6.5 -46t6.5 -46t18 -25.5t27 -11t33.5 -2.5t33.5 2.5t27 11t18 25.5t6.5 46z" />
    <glyph glyph-name="uni01A7" unicode="&#x1a7;" horiz-adv-x="629" 
d="M589 47q-13 -8 -41 -18.5t-66.5 -19.5t-83.5 -15t-91 -6q-74 0 -125 17t-82.5 48.5t-45.5 75t-14 96.5q0 62 16 102t42 65t58 37.5t63 18t58 7.5t44 6q11 3 18 8.5t7 17.5q0 9 -5.5 15t-22.5 9q-18 3 -44.5 2t-55 -5.5t-56 -11t-46.5 -15.5l-66 187q14 9 40 18.5
t60.5 17.5t74.5 13t81 5q74 0 124.5 -17t81 -48.5t44 -75t13.5 -95.5q0 -63 -15.5 -102.5t-40.5 -63.5t-55.5 -35.5t-60.5 -16.5t-56.5 -7t-42.5 -7q-11 -4 -18 -11t-7 -21q0 -8 6.5 -15.5t32.5 -7.5q13 0 39 2t55.5 6.5t58 11t48.5 15.5z" />
    <glyph glyph-name="uni01A8" unicode="&#x1a8;" horiz-adv-x="520" 
d="M490 33q-11 -6 -36 -13.5t-58.5 -14t-72.5 -11t-79 -4.5q-49 0 -88.5 8.5t-67.5 29t-43 54t-15 84.5q0 55 17.5 85.5t49.5 48t76 27.5t98 22q3 1 7 4.5t4 7.5q0 2 -2.5 5.5t-10.5 5.5q-10 2 -33.5 1.5t-50.5 -4t-53.5 -9t-42.5 -12.5l-53 153q12 7 35 14t53 12.5t65 9
t71 3.5q50 0 89.5 -8.5t66.5 -29t41 -55t14 -85.5q0 -55 -16 -84.5t-46 -46t-73.5 -25.5t-97.5 -22q-3 -1 -6.5 -6t-3.5 -10t6.5 -7.5t25.5 -2.5q26 0 51 3.5t47.5 8t40 9.5t28.5 7z" />
    <glyph glyph-name="Uhorn" unicode="&#x1af;" horiz-adv-x="738" 
d="M460 710h218v-72q19 0 27 6.5t8 33.5q0 11 -2 21t-8 25l65 27q9 -14 14.5 -31t5.5 -46q0 -60 -26.5 -86t-83.5 -26v-271q0 -90 -24.5 -148.5t-67 -92.5t-98.5 -47.5t-119 -13.5t-119.5 13.5t-98.5 47.5t-66.5 92.5t-24.5 148.5v419h218v-412q0 -37 5.5 -57.5t17 -30
t28 -11t39.5 -1.5q22 0 39.5 1.5t29 11t17.5 30t6 57.5v412z" />
    <glyph glyph-name="uhorn" unicode="&#x1b0;" 
d="M485 0l-69 45q-15 -17 -28 -27.5t-26 -17t-27 -9t-32 -2.5q-65 0 -112.5 15.5t-78.5 48.5t-46.5 85t-15.5 126v266h190v-266q0 -29 2.5 -46t11 -25.5t25.5 -11t46 -2.5h21q17 0 26.5 7.5t13.5 19.5t4.5 28t0.5 33v263h189v-65q19 0 27 6.5t8 33.5q0 11 -2 21t-8 25l65 27
q9 -14 14.5 -31t5.5 -46q0 -60 -26.5 -86t-83.5 -26v-389h-95z" />
    <glyph glyph-name="uni01C7" unicode="&#x1c7;" horiz-adv-x="980" 
d="M50 0v710h220v-500h218v-210h-438zM710 710h220v-491q0 -68 -20 -112.5t-51.5 -70.5t-70.5 -36.5t-77 -10.5q-72 0 -119.5 13.5t-83.5 36.5l69 188q37 -17 62 -22t54 -5q10 0 13.5 5t3.5 10v495z" />
    <glyph glyph-name="uni01C8" unicode="&#x1c8;" horiz-adv-x="855" 
d="M50 0v710h220v-500h218v-210h-438zM540 -29q14 -7 21.5 -9t20.5 -2q10 0 16.5 1.5t10.5 7t5.5 16.5t1.5 30v475l21 9q39 17 75.5 24t78.5 7h15v-515q0 -73 -12.5 -120.5t-37 -75t-62 -38.5t-86.5 -11q-37 0 -66.5 7t-68.5 30zM711 550q-20 0 -37 3.5t-30 13.5t-20.5 28.5
t-7.5 49.5t7.5 49.5t20.5 28.5t30 13.5t37 3.5q19 0 36.5 -3.5t30.5 -13.5t20.5 -28.5t7.5 -49.5t-7.5 -49.5t-20.5 -28.5t-30.5 -13.5t-36.5 -3.5z" />
    <glyph glyph-name="uni01C9" unicode="&#x1c9;" horiz-adv-x="740" 
d="M383 27q-39 -23 -68.5 -30t-66.5 -7q-50 0 -87 11t-61.5 38.5t-37 75t-12.5 120.5v475l21 9q39 17 75.5 24t78.5 7h15v-515q0 -19 1.5 -30t5.5 -16.5t10.5 -7t16.5 -1.5q13 0 20.5 2t21.5 9zM425 -29q14 -7 21.5 -9t20.5 -2q10 0 16.5 1.5t10.5 7t5.5 16.5t1.5 30v475
l21 9q39 17 75.5 24t78.5 7h15v-515q0 -73 -12.5 -120.5t-37 -75t-62 -38.5t-86.5 -11q-37 0 -66.5 7t-68.5 30zM596 550q-20 0 -37 3.5t-30 13.5t-20.5 28.5t-7.5 49.5t7.5 49.5t20.5 28.5t30 13.5t37 3.5q19 0 36.5 -3.5t30.5 -13.5t20.5 -28.5t7.5 -49.5t-7.5 -49.5
t-20.5 -28.5t-30.5 -13.5t-36.5 -3.5z" />
    <glyph glyph-name="uni01CA" unicode="&#x1ca;" horiz-adv-x="1204" 
d="M501 0l-251 364l10 -85q5 -42 7.5 -79.5t2.5 -79.5v-120h-220v710h171l251 -367l-10 88q-5 42 -7.5 79.5t-2.5 79.5v120h220v-710h-171zM934 710h220v-491q0 -68 -20 -112.5t-51.5 -70.5t-70.5 -36.5t-77 -10.5q-72 0 -119.5 13.5t-83.5 36.5l69 188q37 -17 62 -22t54 -5
q10 0 13.5 5t3.5 10v495z" />
    <glyph glyph-name="uni01CB" unicode="&#x1cb;" horiz-adv-x="1079" 
d="M501 0l-251 364l10 -85q5 -42 7.5 -79.5t2.5 -79.5v-120h-220v710h171l251 -367l-10 88q-5 42 -7.5 79.5t-2.5 79.5v120h220v-710h-171zM764 -29q14 -7 21.5 -9t20.5 -2q10 0 16.5 1.5t10.5 7t5.5 16.5t1.5 30v475l21 9q39 17 75.5 24t78.5 7h15v-515q0 -73 -12.5 -120.5
t-37 -75t-62 -38.5t-86.5 -11q-37 0 -66.5 7t-68.5 30zM935 550q-20 0 -37 3.5t-30 13.5t-20.5 28.5t-7.5 49.5t7.5 49.5t20.5 28.5t30 13.5t37 3.5q19 0 36.5 -3.5t30.5 -13.5t20.5 -28.5t7.5 -49.5t-7.5 -49.5t-20.5 -28.5t-30.5 -13.5t-36.5 -3.5z" />
    <glyph glyph-name="uni01CC" unicode="&#x1cc;" horiz-adv-x="977" 
d="M390 0v266q0 29 -2.5 46t-11 25.5t-25.5 11t-46 2.5h-21q-17 0 -26.5 -7.5t-13.5 -19.5t-4.5 -28t-0.5 -33v-263h-189v530h95l69 -45q16 17 29 28t26 17t28.5 8.5t37.5 2.5q60 0 106 -15t76.5 -48t46.5 -85.5t16 -126.5v-266h-190zM662 -29q14 -7 21.5 -9t20.5 -2
q10 0 16.5 1.5t10.5 7t5.5 16.5t1.5 30v475l21 9q39 17 75.5 24t78.5 7h15v-515q0 -73 -12.5 -120.5t-37 -75t-62 -38.5t-86.5 -11q-37 0 -66.5 7t-68.5 30zM833 550q-20 0 -37 3.5t-30 13.5t-20.5 28.5t-7.5 49.5t7.5 49.5t20.5 28.5t30 13.5t37 3.5q19 0 36.5 -3.5
t30.5 -13.5t20.5 -28.5t7.5 -49.5t-7.5 -49.5t-20.5 -28.5t-30.5 -13.5t-36.5 -3.5z" />
    <glyph glyph-name="uni01CD" unicode="&#x1cd;" horiz-adv-x="636" 
d="M447 0l-30 100h-192l-29 -100h-186v43q0 53 8 98.5t27 95.5l174 473h202l171 -472q18 -50 26 -95.5t8 -98.5v-44h-179zM356 310q-11 49 -18 100l-18 118l-19 -118q-7 -51 -18 -100h73zM318 750l-187 59l61 129l126 -75l126 75l61 -129z" />
    <glyph glyph-name="uni01CE" unicode="&#x1ce;" horiz-adv-x="563" 
d="M428 0l-69 45q-12 -17 -26 -27.5t-27.5 -17t-26 -9t-20.5 -2.5q-66 0 -110 7t-72 24t-40.5 46.5t-15.5 74.5q-3 46 6 77t30.5 50t57.5 27t88 8h122q-1 17 -7.5 26.5t-17 14t-24 5t-28.5 0.5q-24 0 -41 -1t-32.5 -3t-33 -6t-41.5 -11l-56 172q30 11 80 25t127 14
q135 0 203.5 -64.5t68.5 -210.5v-264h-95zM242 183q-19 0 -23 -8t-4 -19t4 -19t23 -8h22q12 0 24 1.5t20.5 6.5t13 16t2.5 30h-82zM281 570l-187 59l61 129l126 -75l126 75l61 -129z" />
    <glyph glyph-name="uni01CF" unicode="&#x1cf;" horiz-adv-x="320" 
d="M50 0v710h220v-710h-220zM161 750l-187 59l61 129l126 -75l126 75l61 -129z" />
    <glyph glyph-name="uni01D0" unicode="&#x1d0;" horiz-adv-x="290" 
d="M50 0v490l21 9q39 17 75.5 24t78.5 7h15v-530h-190zM146 570l-187 59l61 129l126 -75l126 75l61 -129z" />
    <glyph glyph-name="uni01D1" unicode="&#x1d1;" horiz-adv-x="771" 
d="M386 -10q-84 0 -148.5 21t-108.5 65t-66.5 113.5t-22.5 166.5t22.5 166.5t66.5 113.5t108.5 65t148.5 21t148 -21t108 -65t66.5 -113.5t22.5 -166.5t-22.5 -166.5t-66.5 -113.5t-108 -65t-148 -21zM386 209q30 0 54 4.5t40 19.5t24.5 44t8.5 79t-8.5 79.5t-24.5 44.5
t-40 19t-54 4q-31 0 -54.5 -4t-39.5 -19t-24.5 -44.5t-8.5 -79.5t8.5 -79t24.5 -44t39.5 -19.5t54.5 -4.5zM385 750l-187 59l61 129l126 -75l126 75l61 -129z" />
    <glyph glyph-name="uni01D2" unicode="&#x1d2;" 
d="M315 -11q-137 0 -206 64.5t-69 210.5t69 210.5t206 64.5t206 -64.5t69 -210.5t-69 -210.5t-206 -64.5zM400 264q0 29 -6.5 46t-18 25.5t-27 11t-33.5 2.5t-33.5 -2.5t-27 -11t-18 -25.5t-6.5 -46t6.5 -46t18 -25.5t27 -11t33.5 -2.5t33.5 2.5t27 11t18 25.5t6.5 46z
M315 570l-187 59l61 129l126 -75l126 75l61 -129z" />
    <glyph glyph-name="uni01D3" unicode="&#x1d3;" horiz-adv-x="738" 
d="M460 710h218v-419q0 -90 -24.5 -148.5t-67 -92.5t-98.5 -47.5t-119 -13.5t-119.5 13.5t-98.5 47.5t-66.5 92.5t-24.5 148.5v419h218v-412q0 -37 5.5 -57.5t17 -30t28 -11t39.5 -1.5q22 0 39.5 1.5t29 11t17.5 30t6 57.5v412zM369 750l-187 59l61 129l126 -75l126 75
l61 -129z" />
    <glyph glyph-name="uni01D4" unicode="&#x1d4;" 
d="M485 0l-69 45q-15 -17 -28 -27.5t-26 -17t-27 -9t-32 -2.5q-65 0 -112.5 15.5t-78.5 48.5t-46.5 85t-15.5 126v266h190v-266q0 -29 2.5 -46t11 -25.5t25.5 -11t46 -2.5h21q17 0 26.5 7.5t13.5 19.5t4.5 28t0.5 33v263h189v-530h-95zM315 570l-187 59l61 129l126 -75
l126 75l61 -129z" />
    <glyph glyph-name="uni01D5" unicode="&#x1d5;" horiz-adv-x="738" 
d="M460 710h218v-419q0 -90 -24.5 -148.5t-67 -92.5t-98.5 -47.5t-119 -13.5t-119.5 13.5t-98.5 47.5t-66.5 92.5t-24.5 148.5v419h218v-412q0 -37 5.5 -57.5t17 -30t28 -11t39.5 -1.5q22 0 39.5 1.5t29 11t17.5 30t6 57.5v412zM472 748q-19 0 -35.5 3t-29 12.5t-19.5 27.5
t-7 48t7 48t19.5 27.5t29 12.5t35.5 3t35.5 -3t29 -12.5t19.5 -27.5t7 -48t-7 -48t-19.5 -27.5t-29 -12.5t-35.5 -3zM265 748q-19 0 -35.5 3t-29 12.5t-19.5 27.5t-7 48t7 48t19.5 27.5t29 12.5t35.5 3t35.5 -3t29 -12.5t19.5 -27.5t7 -48t-7 -48t-19.5 -27.5t-29 -12.5
t-35.5 -3zM169 970v100h400v-100h-400z" />
    <glyph glyph-name="uni01D6" unicode="&#x1d6;" 
d="M485 0l-69 45q-15 -17 -28 -27.5t-26 -17t-27 -9t-32 -2.5q-65 0 -112.5 15.5t-78.5 48.5t-46.5 85t-15.5 126v266h190v-266q0 -29 2.5 -46t11 -25.5t25.5 -11t46 -2.5h21q17 0 26.5 7.5t13.5 19.5t4.5 28t0.5 33v263h189v-530h-95zM418 568q-19 0 -35.5 3t-29 12.5
t-19.5 27.5t-7 48t7 48t19.5 27.5t29 12.5t35.5 3t35.5 -3t29 -12.5t19.5 -27.5t7 -48t-7 -48t-19.5 -27.5t-29 -12.5t-35.5 -3zM211 568q-19 0 -35.5 3t-29 12.5t-19.5 27.5t-7 48t7 48t19.5 27.5t29 12.5t35.5 3t35.5 -3t29 -12.5t19.5 -27.5t7 -48t-7 -48t-19.5 -27.5
t-29 -12.5t-35.5 -3zM115 790v100h400v-100h-400z" />
    <glyph glyph-name="uni01D7" unicode="&#x1d7;" horiz-adv-x="738" 
d="M460 710h218v-419q0 -90 -24.5 -148.5t-67 -92.5t-98.5 -47.5t-119 -13.5t-119.5 13.5t-98.5 47.5t-66.5 92.5t-24.5 148.5v419h218v-412q0 -37 5.5 -57.5t17 -30t28 -11t39.5 -1.5q22 0 39.5 1.5t29 11t17.5 30t6 57.5v412zM472 748q-19 0 -35.5 3t-29 12.5t-19.5 27.5
t-7 48t7 48t19.5 27.5t29 12.5t35.5 3t35.5 -3t29 -12.5t19.5 -27.5t7 -48t-7 -48t-19.5 -27.5t-29 -12.5t-35.5 -3zM265 748q-19 0 -35.5 3t-29 12.5t-19.5 27.5t-7 48t7 48t19.5 27.5t29 12.5t35.5 3t35.5 -3t29 -12.5t19.5 -27.5t7 -48t-7 -48t-19.5 -27.5t-29 -12.5
t-35.5 -3zM270 970l-30 64l196 124l61 -129z" />
    <glyph glyph-name="uni01D8" unicode="&#x1d8;" 
d="M485 0l-69 45q-15 -17 -28 -27.5t-26 -17t-27 -9t-32 -2.5q-65 0 -112.5 15.5t-78.5 48.5t-46.5 85t-15.5 126v266h190v-266q0 -29 2.5 -46t11 -25.5t25.5 -11t46 -2.5h21q17 0 26.5 7.5t13.5 19.5t4.5 28t0.5 33v263h189v-530h-95zM418 568q-19 0 -35.5 3t-29 12.5
t-19.5 27.5t-7 48t7 48t19.5 27.5t29 12.5t35.5 3t35.5 -3t29 -12.5t19.5 -27.5t7 -48t-7 -48t-19.5 -27.5t-29 -12.5t-35.5 -3zM211 568q-19 0 -35.5 3t-29 12.5t-19.5 27.5t-7 48t7 48t19.5 27.5t29 12.5t35.5 3t35.5 -3t29 -12.5t19.5 -27.5t7 -48t-7 -48t-19.5 -27.5
t-29 -12.5t-35.5 -3zM266 790l-30 64l196 124l61 -129z" />
    <glyph glyph-name="uni01D9" unicode="&#x1d9;" horiz-adv-x="738" 
d="M460 710h218v-419q0 -90 -24.5 -148.5t-67 -92.5t-98.5 -47.5t-119 -13.5t-119.5 13.5t-98.5 47.5t-66.5 92.5t-24.5 148.5v419h218v-412q0 -37 5.5 -57.5t17 -30t28 -11t39.5 -1.5q22 0 39.5 1.5t29 11t17.5 30t6 57.5v412zM472 748q-19 0 -35.5 3t-29 12.5t-19.5 27.5
t-7 48t7 48t19.5 27.5t29 12.5t35.5 3t35.5 -3t29 -12.5t19.5 -27.5t7 -48t-7 -48t-19.5 -27.5t-29 -12.5t-35.5 -3zM265 748q-19 0 -35.5 3t-29 12.5t-19.5 27.5t-7 48t7 48t19.5 27.5t29 12.5t35.5 3t35.5 -3t29 -12.5t19.5 -27.5t7 -48t-7 -48t-19.5 -27.5t-29 -12.5
t-35.5 -3zM369 950l-187 59l61 129l126 -75l126 75l61 -129z" />
    <glyph glyph-name="uni01DA" unicode="&#x1da;" 
d="M485 0l-69 45q-15 -17 -28 -27.5t-26 -17t-27 -9t-32 -2.5q-65 0 -112.5 15.5t-78.5 48.5t-46.5 85t-15.5 126v266h190v-266q0 -29 2.5 -46t11 -25.5t25.5 -11t46 -2.5h21q17 0 26.5 7.5t13.5 19.5t4.5 28t0.5 33v263h189v-530h-95zM418 568q-19 0 -35.5 3t-29 12.5
t-19.5 27.5t-7 48t7 48t19.5 27.5t29 12.5t35.5 3t35.5 -3t29 -12.5t19.5 -27.5t7 -48t-7 -48t-19.5 -27.5t-29 -12.5t-35.5 -3zM211 568q-19 0 -35.5 3t-29 12.5t-19.5 27.5t-7 48t7 48t19.5 27.5t29 12.5t35.5 3t35.5 -3t29 -12.5t19.5 -27.5t7 -48t-7 -48t-19.5 -27.5
t-29 -12.5t-35.5 -3zM315 770l-187 59l61 129l126 -75l126 75l61 -129z" />
    <glyph glyph-name="uni01DB" unicode="&#x1db;" horiz-adv-x="738" 
d="M460 710h218v-419q0 -90 -24.5 -148.5t-67 -92.5t-98.5 -47.5t-119 -13.5t-119.5 13.5t-98.5 47.5t-66.5 92.5t-24.5 148.5v419h218v-412q0 -37 5.5 -57.5t17 -30t28 -11t39.5 -1.5q22 0 39.5 1.5t29 11t17.5 30t6 57.5v412zM472 748q-19 0 -35.5 3t-29 12.5t-19.5 27.5
t-7 48t7 48t19.5 27.5t29 12.5t35.5 3t35.5 -3t29 -12.5t19.5 -27.5t7 -48t-7 -48t-19.5 -27.5t-29 -12.5t-35.5 -3zM265 748q-19 0 -35.5 3t-29 12.5t-19.5 27.5t-7 48t7 48t19.5 27.5t29 12.5t35.5 3t35.5 -3t29 -12.5t19.5 -27.5t7 -48t-7 -48t-19.5 -27.5t-29 -12.5
t-35.5 -3zM187 1029l61 129l196 -124l-30 -64z" />
    <glyph glyph-name="uni01DC" unicode="&#x1dc;" 
d="M485 0l-69 45q-15 -17 -28 -27.5t-26 -17t-27 -9t-32 -2.5q-65 0 -112.5 15.5t-78.5 48.5t-46.5 85t-15.5 126v266h190v-266q0 -29 2.5 -46t11 -25.5t25.5 -11t46 -2.5h21q17 0 26.5 7.5t13.5 19.5t4.5 28t0.5 33v263h189v-530h-95zM418 568q-19 0 -35.5 3t-29 12.5
t-19.5 27.5t-7 48t7 48t19.5 27.5t29 12.5t35.5 3t35.5 -3t29 -12.5t19.5 -27.5t7 -48t-7 -48t-19.5 -27.5t-29 -12.5t-35.5 -3zM211 568q-19 0 -35.5 3t-29 12.5t-19.5 27.5t-7 48t7 48t19.5 27.5t29 12.5t35.5 3t35.5 -3t29 -12.5t19.5 -27.5t7 -48t-7 -48t-19.5 -27.5
t-29 -12.5t-35.5 -3zM145 849l61 129l196 -124l-30 -64z" />
    <glyph glyph-name="uni01DD" unicode="&#x1dd;" horiz-adv-x="590" 
d="M352 303q-1 17 -7.5 26.5t-17 14t-24 5t-28.5 0.5q-24 0 -44 -1.5t-39.5 -4t-40 -6.5t-44.5 -11l-56 172q15 6 38 13t52 13t63.5 10.5t73.5 4.5q135 0 203.5 -64.5t68.5 -210.5q0 -73 -17 -125t-49.5 -85.5t-80 -49t-108.5 -15.5t-108.5 15.5t-80 49t-49.5 85.5t-17 125
q48 26 92.5 32.5t97.5 6.5h122zM239 223q-2 -21 3.5 -32t14 -16t18 -5.5t16.5 -0.5q12 0 24 1.5t20.5 6.5t13 16t2.5 30h-112z" />
    <glyph glyph-name="uni01DE" unicode="&#x1de;" horiz-adv-x="636" 
d="M447 0l-30 100h-192l-29 -100h-186v43q0 53 8 98.5t27 95.5l174 473h202l171 -472q18 -50 26 -95.5t8 -98.5v-44h-179zM356 310q-11 49 -18 100l-18 118l-19 -118q-7 -51 -18 -100h73zM421 748q-19 0 -35.5 3t-29 12.5t-19.5 27.5t-7 48t7 48t19.5 27.5t29 12.5t35.5 3
t35.5 -3t29 -12.5t19.5 -27.5t7 -48t-7 -48t-19.5 -27.5t-29 -12.5t-35.5 -3zM214 748q-19 0 -35.5 3t-29 12.5t-19.5 27.5t-7 48t7 48t19.5 27.5t29 12.5t35.5 3t35.5 -3t29 -12.5t19.5 -27.5t7 -48t-7 -48t-19.5 -27.5t-29 -12.5t-35.5 -3zM118 970v100h400v-100h-400z
" />
    <glyph glyph-name="uni01DF" unicode="&#x1df;" horiz-adv-x="603" 
d="M458 0l-69 45q-12 -17 -26 -27.5t-27.5 -17t-26 -9t-20.5 -2.5q-66 0 -110 7t-72 24t-40.5 46.5t-15.5 74.5q-3 46 6 77t30.5 50t57.5 27t88 8h122q-1 17 -7.5 26.5t-17 14t-24 5t-28.5 0.5q-24 0 -41 -1t-32.5 -3t-33 -6t-41.5 -11l-56 172q30 11 80 25t127 14
q135 0 203.5 -64.5t68.5 -210.5v-264h-95zM272 183q-19 0 -23 -8t-4 -19t4 -19t23 -8h22q12 0 24 1.5t20.5 6.5t13 16t2.5 30h-82zM405 568q-19 0 -35.5 3t-29 12.5t-19.5 27.5t-7 48t7 48t19.5 27.5t29 12.5t35.5 3t35.5 -3t29 -12.5t19.5 -27.5t7 -48t-7 -48t-19.5 -27.5
t-29 -12.5t-35.5 -3zM198 568q-19 0 -35.5 3t-29 12.5t-19.5 27.5t-7 48t7 48t19.5 27.5t29 12.5t35.5 3t35.5 -3t29 -12.5t19.5 -27.5t7 -48t-7 -48t-19.5 -27.5t-29 -12.5t-35.5 -3zM101 790v100h400v-100h-400z" />
    <glyph glyph-name="uni01E0" unicode="&#x1e0;" horiz-adv-x="636" 
d="M447 0l-30 100h-192l-29 -100h-186v43q0 53 8 98.5t27 95.5l174 473h202l171 -472q18 -50 26 -95.5t8 -98.5v-44h-179zM356 310q-11 49 -18 100l-18 118l-19 -118q-7 -51 -18 -100h73zM318 750q-20 0 -37 3.5t-30 13.5t-20.5 28.5t-7.5 49.5t7.5 49.5t20.5 28.5t30 13.5
t37 3.5q19 0 36.5 -3.5t30.5 -13.5t20.5 -28.5t7.5 -49.5t-7.5 -49.5t-20.5 -28.5t-30.5 -13.5t-36.5 -3.5zM118 970v100h400v-100h-400z" />
    <glyph glyph-name="uni01E1" unicode="&#x1e1;" horiz-adv-x="563" 
d="M428 0l-69 45q-12 -17 -26 -27.5t-27.5 -17t-26 -9t-20.5 -2.5q-66 0 -110 7t-72 24t-40.5 46.5t-15.5 74.5q-3 46 6 77t30.5 50t57.5 27t88 8h122q-1 17 -7.5 26.5t-17 14t-24 5t-28.5 0.5q-24 0 -41 -1t-32.5 -3t-33 -6t-41.5 -11l-56 172q30 11 80 25t127 14
q135 0 203.5 -64.5t68.5 -210.5v-264h-95zM242 183q-19 0 -23 -8t-4 -19t4 -19t23 -8h22q12 0 24 1.5t20.5 6.5t13 16t2.5 30h-82zM281 570q-20 0 -37 3.5t-30 13.5t-20.5 28.5t-7.5 49.5t7.5 49.5t20.5 28.5t30 13.5t37 3.5q19 0 36.5 -3.5t30.5 -13.5t20.5 -28.5
t7.5 -49.5t-7.5 -49.5t-20.5 -28.5t-30.5 -13.5t-36.5 -3.5zM81 790v100h400v-100h-400z" />
    <glyph glyph-name="uni01E2" unicode="&#x1e2;" horiz-adv-x="801" 
d="M322 0v100h-97l-29 -100h-186v43q0 53 8 98.5t27 95.5l174 473h542v-205h-219v-50h199v-200h-199v-50h219v-205h-439zM322 515l-2 13l-19 -118q-7 -51 -18 -100h39v205zM200 790v100h400v-100h-400z" />
    <glyph glyph-name="uni01E3" unicode="&#x1e3;" horiz-adv-x="895" 
d="M844 30q-15 -6 -38 -13t-52 -13t-63.5 -10.5t-73.5 -4.5q-55 0 -102 11h-67l-69 45q-12 -17 -26 -27.5t-27.5 -17t-26 -9t-20.5 -2.5q-66 0 -110 7t-72 24t-40.5 46.5t-15.5 74.5q-3 46 6 77t30.5 50t57.5 27t88 8h122q-1 17 -7.5 26.5t-17 14t-24 5t-28.5 0.5
q-24 0 -44 -1.5t-39.5 -4t-40 -6.5t-44.5 -11l-56 172q15 6 38 13t52 13t63.5 10.5t73.5 4.5q107 0 171 -39q31 20 70.5 29.5t87.5 9.5q61 0 108.5 -15.5t80 -49t49.5 -85.5t17 -125q-48 -26 -92.5 -32.5t-97.5 -6.5h-122q1 -17 7.5 -26.5t17 -14t24 -5t28.5 -0.5
q24 0 44 1.5t39.5 4t40 6.5t44.5 11zM656 305q1 21 -4 32t-13.5 16t-18 5.5t-16.5 0.5q-12 0 -24 -1.5t-20.5 -6.5t-13 -16t-2.5 -30h112zM262 183q-19 0 -23 -8t-4 -19t4 -19t23 -8h22q12 0 24 1.5t20.5 6.5t13 16t2.5 30h-82zM247 610v100h400v-100h-400z" />
    <glyph glyph-name="Gcaron" unicode="&#x1e6;" horiz-adv-x="714" 
d="M662 55q-13 -8 -38.5 -19.5t-60 -21.5t-75 -16.5t-82.5 -6.5q-92 0 -160.5 21t-114 65t-68.5 113.5t-23 166.5t23 166t69.5 113.5t116 65t163.5 20.5q42 0 79 -7.5t67 -18t51.5 -21.5t33.5 -19l-76 -187q-20 9 -42.5 15.5t-44.5 11t-41.5 6.5t-32.5 2q-31 0 -57.5 -4
t-46.5 -19t-31.5 -44.5t-11.5 -79.5t11.5 -79t31.5 -44t46.5 -19.5t57.5 -4.5v-2q10 0 25 1t33 3v58h-58v170h258v-384zM357 750l-187 59l61 129l126 -75l126 75l61 -129z" />
    <glyph glyph-name="gcaron" unicode="&#x1e7;" horiz-adv-x="640" 
d="M155 -16q18 -8 40.5 -13t45 -8t42 -4.5t30.5 -1.5q49 0 66.5 14.5t19.5 48.5q-27 -12 -47 -15.5t-51 -3.5q-69 0 -118 13t-81 43.5t-47 80t-15 122.5q0 75 15.5 128t47 86.5t78.5 49t111 15.5q23 0 40.5 -2.5t33 -8.5t30 -16.5t30.5 -26.5l69 45h95v-486
q0 -143 -62.5 -208.5t-200.5 -65.5q-36 0 -71.5 4t-67.5 11t-58 16t-42 19zM356 179q17 0 26.5 7.5t13.5 19.5t4.5 28t0.5 33t-0.5 32t-4.5 26t-13.5 17.5t-26.5 6.5h-41q-29 0 -46 -2.5t-25.5 -11t-11 -25.5t-2.5 -46t2.5 -46t11 -25.5t25.5 -11t46 -2.5h41zM320 570
l-187 59l61 129l126 -75l126 75l61 -129z" />
    <glyph glyph-name="uni01E8" unicode="&#x1e8;" horiz-adv-x="685" 
d="M441 0l-118 250h-53v-250h-220v710h220v-250h53l118 250h234l-168 -356l168 -354h-234zM342 750l-187 59l61 129l126 -75l126 75l61 -129z" />
    <glyph glyph-name="uni01E9" unicode="&#x1e9;" horiz-adv-x="611" 
d="M365 0l-105 175h-20v-175h-190v710l21 9q39 17 75.5 24t78.5 7h15v-394h20l107 174h229l-184 -265l184 -265h-231zM469 570l-187 59l61 129l126 -75l126 75l61 -129z" />
    <glyph glyph-name="uni01EA" unicode="&#x1ea;" horiz-adv-x="771" 
d="M460 -220q-14 -9 -31 -14.5t-46 -5.5q-60 0 -86 26.5t-26 83.5q0 28 7 46.5t21 31t35 21.5t49 20q0 1 1 1q-83 0 -147 21t-108 65t-66.5 113.5t-22.5 166.5t22.5 166.5t66.5 113.5t108.5 65t148.5 21t148 -21t108 -65t66.5 -113.5t22.5 -166.5q0 -93 -27.5 -164.5
t-74 -124.5t-109.5 -90t-133 -62q-26 -9 -33 -18t-7 -27q0 -19 6.5 -27t33.5 -8q11 0 21 2t25 8zM386 209q30 0 54 4.5t40 19.5t24.5 44t8.5 79t-8.5 79.5t-24.5 44.5t-40 19t-54 4q-31 0 -54.5 -4t-39.5 -19t-24.5 -44.5t-8.5 -79.5t8.5 -79t24.5 -44t39.5 -19.5t54.5 -4.5
z" />
    <glyph glyph-name="uni01EB" unicode="&#x1eb;" 
d="M377 -220q-14 -9 -31 -14.5t-46 -5.5q-60 0 -86 26.5t-26 83.5q0 28 7 46.5t21 31t35 21.5t49 20q-130 4 -195 68t-65 207q0 146 69 210.5t206 64.5t206 -64.5t69 -210.5q0 -69 -23 -124t-62 -98.5t-91 -74.5t-110 -52q-26 -9 -33 -18t-7 -27q0 -19 6.5 -27t33.5 -8
q11 0 21 2t25 8zM400 264q0 29 -6.5 46t-18 25.5t-27 11t-33.5 2.5t-33.5 -2.5t-27 -11t-18 -25.5t-6.5 -46t6.5 -46t18 -25.5t27 -11t33.5 -2.5t33.5 2.5t27 11t18 25.5t6.5 46z" />
    <glyph glyph-name="uni01EC" unicode="&#x1ec;" horiz-adv-x="771" 
d="M460 -220q-14 -9 -31 -14.5t-46 -5.5q-60 0 -86 26.5t-26 83.5q0 28 7 46.5t21 31t35 21.5t49 20q0 1 1 1q-83 0 -147 21t-108 65t-66.5 113.5t-22.5 166.5t22.5 166.5t66.5 113.5t108.5 65t148.5 21t148 -21t108 -65t66.5 -113.5t22.5 -166.5q0 -93 -27.5 -164.5
t-74 -124.5t-109.5 -90t-133 -62q-26 -9 -33 -18t-7 -27q0 -19 6.5 -27t33.5 -8q11 0 21 2t25 8zM386 209q30 0 54 4.5t40 19.5t24.5 44t8.5 79t-8.5 79.5t-24.5 44.5t-40 19t-54 4q-31 0 -54.5 -4t-39.5 -19t-24.5 -44.5t-8.5 -79.5t8.5 -79t24.5 -44t39.5 -19.5t54.5 -4.5
zM185 790v100h400v-100h-400z" />
    <glyph glyph-name="uni01ED" unicode="&#x1ed;" 
d="M377 -220q-14 -9 -31 -14.5t-46 -5.5q-60 0 -86 26.5t-26 83.5q0 28 7 46.5t21 31t35 21.5t49 20q-130 4 -195 68t-65 207q0 146 69 210.5t206 64.5t206 -64.5t69 -210.5q0 -69 -23 -124t-62 -98.5t-91 -74.5t-110 -52q-26 -9 -33 -18t-7 -27q0 -19 6.5 -27t33.5 -8
q11 0 21 2t25 8zM400 264q0 29 -6.5 46t-18 25.5t-27 11t-33.5 2.5t-33.5 -2.5t-27 -11t-18 -25.5t-6.5 -46t6.5 -46t18 -25.5t27 -11t33.5 -2.5t33.5 2.5t27 11t18 25.5t6.5 46zM115 610v100h400v-100h-400z" />
    <glyph glyph-name="uni01F0" unicode="&#x1f0;" horiz-adv-x="357" 
d="M42 -29q14 -7 21.5 -9t20.5 -2q10 0 16.5 1.5t10.5 7t5.5 16.5t1.5 30v475l21 9q39 17 75.5 24t78.5 7h15v-515q0 -73 -12.5 -120.5t-37 -75t-62 -38.5t-86.5 -11q-37 0 -66.5 7t-68.5 30zM217 570l-187 59l61 129l126 -75l126 75l61 -129z" />
    <glyph glyph-name="uni01F4" unicode="&#x1f4;" horiz-adv-x="714" 
d="M662 55q-13 -8 -38.5 -19.5t-60 -21.5t-75 -16.5t-82.5 -6.5q-92 0 -160.5 21t-114 65t-68.5 113.5t-23 166.5t23 166t69.5 113.5t116 65t163.5 20.5q42 0 79 -7.5t67 -18t51.5 -21.5t33.5 -19l-76 -187q-20 9 -42.5 15.5t-44.5 11t-41.5 6.5t-32.5 2q-31 0 -57.5 -4
t-46.5 -19t-31.5 -44.5t-11.5 -79.5t11.5 -79t31.5 -44t46.5 -19.5t57.5 -4.5v-2q10 0 25 1t33 3v58h-58v170h258v-384zM258 750l-30 64l196 124l61 -129z" />
    <glyph glyph-name="uni01F5" unicode="&#x1f5;" horiz-adv-x="640" 
d="M155 -16q18 -8 40.5 -13t45 -8t42 -4.5t30.5 -1.5q49 0 66.5 14.5t19.5 48.5q-27 -12 -47 -15.5t-51 -3.5q-69 0 -118 13t-81 43.5t-47 80t-15 122.5q0 75 15.5 128t47 86.5t78.5 49t111 15.5q23 0 40.5 -2.5t33 -8.5t30 -16.5t30.5 -26.5l69 45h95v-486
q0 -143 -62.5 -208.5t-200.5 -65.5q-36 0 -71.5 4t-67.5 11t-58 16t-42 19zM356 179q17 0 26.5 7.5t13.5 19.5t4.5 28t0.5 33t-0.5 32t-4.5 26t-13.5 17.5t-26.5 6.5h-41q-29 0 -46 -2.5t-25.5 -11t-11 -25.5t-2.5 -46t2.5 -46t11 -25.5t25.5 -11t46 -2.5h41zM221 570
l-30 64l196 124l61 -129z" />
    <glyph glyph-name="uni01F8" unicode="&#x1f8;" horiz-adv-x="722" 
d="M501 0l-251 364l10 -85q5 -42 7.5 -79.5t2.5 -79.5v-120h-220v710h171l251 -367l-10 88q-5 42 -7.5 79.5t-2.5 79.5v120h220v-710h-171zM232 809l61 129l196 -124l-30 -64z" />
    <glyph glyph-name="uni01F9" unicode="&#x1f9;" horiz-adv-x="620" 
d="M390 0v266q0 29 -2.5 46t-11 25.5t-25.5 11t-46 2.5h-21q-17 0 -26.5 -7.5t-13.5 -19.5t-4.5 -28t-0.5 -33v-263h-189v530h95l69 -45q16 17 29 28t26 17t28.5 8.5t37.5 2.5q60 0 106 -15t76.5 -48t46.5 -85.5t16 -126.5v-266h-190zM181 629l61 129l196 -124l-30 -64z" />
    <glyph glyph-name="Aringacute" unicode="&#x1fa;" horiz-adv-x="636" 
d="M447 0l-30 100h-192l-29 -100h-186v43q0 53 8 98.5t27 95.5l174 473h202l171 -472q18 -50 26 -95.5t8 -98.5v-44h-179zM356 310q-11 49 -18 100l-18 118l-19 -118q-7 -51 -18 -100h73zM318 749q-16 0 -29.5 2.5t-24 10.5t-16.5 23t-6 40t6 40t16.5 23t24 10.5t29.5 2.5
t29.5 -2.5t24 -10.5t16.5 -23t6 -40t-6 -40t-16.5 -23t-24 -10.5t-29.5 -2.5zM318 779q19 0 32.5 8t13.5 38t-13.5 38t-32.5 8t-32.5 -8t-13.5 -38t13.5 -38t32.5 -8zM219 930l-30 64l196 124l61 -129z" />
    <glyph glyph-name="aringacute" unicode="&#x1fb;" horiz-adv-x="563" 
d="M428 0l-69 45q-12 -17 -26 -27.5t-27.5 -17t-26 -9t-20.5 -2.5q-66 0 -110 7t-72 24t-40.5 46.5t-15.5 74.5q-3 46 6 77t30.5 50t57.5 27t88 8h122q-1 17 -7.5 26.5t-17 14t-24 5t-28.5 0.5q-24 0 -41 -1t-32.5 -3t-33 -6t-41.5 -11l-56 172q30 11 80 25t127 14
q135 0 203.5 -64.5t68.5 -210.5v-264h-95zM242 183q-19 0 -23 -8t-4 -19t4 -19t23 -8h22q12 0 24 1.5t20.5 6.5t13 16t2.5 30h-82zM281 569q-16 0 -29.5 2.5t-24 10.5t-16.5 23t-6 40t6 40t16.5 23t24 10.5t29.5 2.5t29.5 -2.5t24 -10.5t16.5 -23t6 -40t-6 -40t-16.5 -23
t-24 -10.5t-29.5 -2.5zM281 599q19 0 32.5 8t13.5 38t-13.5 38t-32.5 8t-32.5 -8t-13.5 -38t13.5 -38t32.5 -8zM183 750l-30 64l196 124l61 -129z" />
    <glyph glyph-name="AEacute" unicode="&#x1fc;" horiz-adv-x="801" 
d="M322 0v100h-97l-29 -100h-186v43q0 53 8 98.5t27 95.5l174 473h542v-205h-219v-50h199v-200h-199v-50h219v-205h-439zM322 515l-2 13l-19 -118q-7 -51 -18 -100h39v205zM302 750l-30 64l196 124l61 -129z" />
    <glyph glyph-name="aeacute" unicode="&#x1fd;" horiz-adv-x="895" 
d="M844 30q-15 -6 -38 -13t-52 -13t-63.5 -10.5t-73.5 -4.5q-55 0 -102 11h-67l-69 45q-12 -17 -26 -27.5t-27.5 -17t-26 -9t-20.5 -2.5q-66 0 -110 7t-72 24t-40.5 46.5t-15.5 74.5q-3 46 6 77t30.5 50t57.5 27t88 8h122q-1 17 -7.5 26.5t-17 14t-24 5t-28.5 0.5
q-24 0 -44 -1.5t-39.5 -4t-40 -6.5t-44.5 -11l-56 172q15 6 38 13t52 13t63.5 10.5t73.5 4.5q107 0 171 -39q31 20 70.5 29.5t87.5 9.5q61 0 108.5 -15.5t80 -49t49.5 -85.5t17 -125q-48 -26 -92.5 -32.5t-97.5 -6.5h-122q1 -17 7.5 -26.5t17 -14t24 -5t28.5 -0.5
q24 0 44 1.5t39.5 4t40 6.5t44.5 11zM656 305q1 21 -4 32t-13.5 16t-18 5.5t-16.5 0.5q-12 0 -24 -1.5t-20.5 -6.5t-13 -16t-2.5 -30h112zM262 183q-19 0 -23 -8t-4 -19t4 -19t23 -8h22q12 0 24 1.5t20.5 6.5t13 16t2.5 30h-82zM349 570l-30 64l196 124l61 -129z" />
    <glyph glyph-name="Oslashacute" unicode="&#x1fe;" horiz-adv-x="771" 
d="M16 64l66 78q-42 82 -42 214q0 97 22.5 166.5t66.5 113.5t108.5 65t148.5 21q47 0 86.5 -6t74.5 -20l61 73l146 -123l-65 -77q42 -83 42 -213q0 -97 -22.5 -166.5t-66.5 -113.5t-108 -65t-148 -21q-94 0 -162 25l-62 -74zM386 209q30 0 54 4.5t40 19.5t24.5 44t8.5 79
t-8.5 79.5t-24.5 44.5t-40 19t-54 4q-31 0 -54.5 -4t-39.5 -19t-24.5 -44.5t-8.5 -79.5t8.5 -79t24.5 -44t39.5 -19.5t54.5 -4.5zM287 750l-30 64l196 124l61 -129z" />
    <glyph glyph-name="oslashacute" unicode="&#x1ff;" 
d="M400 264q0 29 -6.5 46t-18 25.5t-27 11t-33.5 2.5t-33.5 -2.5t-27 -11t-18 -25.5t-6.5 -46t6.5 -46t18 -25.5t27 -11t33.5 -2.5t33.5 2.5t27 11t18 25.5t6.5 46zM580 365q10 -43 10 -101q0 -146 -69 -210.5t-206 -64.5q-85 0 -145 24l-66 -66l-135 135l81 81
q-10 43 -10 101q0 146 69 210.5t206 64.5q85 0 145 -24l66 66l135 -135zM216 570l-30 64l196 124l61 -129z" />
    <glyph glyph-name="uni0200" unicode="&#x200;" horiz-adv-x="636" 
d="M447 0l-30 100h-192l-29 -100h-186v43q0 53 8 98.5t27 95.5l174 473h202l171 -472q18 -50 26 -95.5t8 -98.5v-44h-179zM356 310q-11 49 -18 100l-18 118l-19 -118q-7 -51 -18 -100h73zM498.005 750l29.998 64l-195.988 124l-60.9961 -129zM226.021 750l29.998 64
l-195.988 124l-60.9961 -129z" />
    <glyph glyph-name="uni0201" unicode="&#x201;" horiz-adv-x="563" 
d="M428 0l-69 45q-12 -17 -26 -27.5t-27.5 -17t-26 -9t-20.5 -2.5q-66 0 -110 7t-72 24t-40.5 46.5t-15.5 74.5q-3 46 6 77t30.5 50t57.5 27t88 8h122q-1 17 -7.5 26.5t-17 14t-24 5t-28.5 0.5q-24 0 -41 -1t-32.5 -3t-33 -6t-41.5 -11l-56 172q30 11 80 25t127 14
q135 0 203.5 -64.5t68.5 -210.5v-264h-95zM242 183q-19 0 -23 -8t-4 -19t4 -19t23 -8h22q12 0 24 1.5t20.5 6.5t13 16t2.5 30h-82zM498.005 570l29.998 64l-195.988 124l-60.9961 -129zM226.021 570l29.998 64l-195.988 124l-60.9961 -129z" />
    <glyph glyph-name="uni0202" unicode="&#x202;" horiz-adv-x="636" 
d="M447 0l-30 100h-192l-29 -100h-186v43q0 53 8 98.5t27 95.5l174 473h202l171 -472q18 -50 26 -95.5t8 -98.5v-44h-179zM356 310q-11 49 -18 100l-18 118l-19 -118q-7 -51 -18 -100h73zM450 750q-23 10 -56 24t-76 14t-76 -14t-56 -24l-49 120q9 5 24.5 14t38 17.5t52 15
t66.5 6.5t66.5 -6.5t52 -15t38 -17.5t24.5 -14z" />
    <glyph glyph-name="uni0203" unicode="&#x203;" horiz-adv-x="563" 
d="M428 0l-69 45q-12 -17 -26 -27.5t-27.5 -17t-26 -9t-20.5 -2.5q-66 0 -110 7t-72 24t-40.5 46.5t-15.5 74.5q-3 46 6 77t30.5 50t57.5 27t88 8h122q-1 17 -7.5 26.5t-17 14t-24 5t-28.5 0.5q-24 0 -41 -1t-32.5 -3t-33 -6t-41.5 -11l-56 172q30 11 80 25t127 14
q135 0 203.5 -64.5t68.5 -210.5v-264h-95zM242 183q-19 0 -23 -8t-4 -19t4 -19t23 -8h22q12 0 24 1.5t20.5 6.5t13 16t2.5 30h-82zM413 570q-23 10 -56 24t-76 14t-76 -14t-56 -24l-49 120q9 5 24.5 14t38 17.5t52 15t66.5 6.5t66.5 -6.5t52 -15t38 -17.5t24.5 -14z" />
    <glyph glyph-name="uni0204" unicode="&#x204;" horiz-adv-x="579" 
d="M50 0v710h479v-205h-259v-50h239v-200h-239v-50h259v-205h-479zM498.005 750l29.998 64l-195.988 124l-60.9961 -129zM226.021 750l29.998 64l-195.988 124l-60.9961 -129z" />
    <glyph glyph-name="uni0205" unicode="&#x205;" horiz-adv-x="590" 
d="M539 30q-15 -6 -38 -13t-52 -13t-63.5 -10.5t-73.5 -4.5q-135 0 -203.5 64.5t-68.5 210.5q0 73 17 125t49.5 85.5t80 49t108.5 15.5t108.5 -15.5t80 -49t49.5 -85.5t17 -125q-48 -26 -92.5 -32.5t-97.5 -6.5h-122q1 -17 7.5 -26.5t17 -14t24 -5t28.5 -0.5q24 0 44 1.5
t39.5 4t40 6.5t44.5 11zM351 305q1 21 -4 32t-13.5 16t-18 5.5t-16.5 0.5q-12 0 -24 -1.5t-20.5 -6.5t-13 -16t-2.5 -30h112zM499.005 570l29.998 64l-195.988 124l-60.9961 -129zM227.021 570l29.998 64l-195.988 124l-60.9961 -129z" />
    <glyph glyph-name="uni0206" unicode="&#x206;" horiz-adv-x="579" 
d="M50 0v710h479v-205h-259v-50h239v-200h-239v-50h259v-205h-479zM421 750q-23 10 -56 24t-76 14t-76 -14t-56 -24l-49 120q9 5 24.5 14t38 17.5t52 15t66.5 6.5t66.5 -6.5t52 -15t38 -17.5t24.5 -14z" />
    <glyph glyph-name="uni0207" unicode="&#x207;" horiz-adv-x="590" 
d="M539 30q-15 -6 -38 -13t-52 -13t-63.5 -10.5t-73.5 -4.5q-135 0 -203.5 64.5t-68.5 210.5q0 73 17 125t49.5 85.5t80 49t108.5 15.5t108.5 -15.5t80 -49t49.5 -85.5t17 -125q-48 -26 -92.5 -32.5t-97.5 -6.5h-122q1 -17 7.5 -26.5t17 -14t24 -5t28.5 -0.5q24 0 44 1.5
t39.5 4t40 6.5t44.5 11zM351 305q1 21 -4 32t-13.5 16t-18 5.5t-16.5 0.5q-12 0 -24 -1.5t-20.5 -6.5t-13 -16t-2.5 -30h112zM427 570q-23 10 -56 24t-76 14t-76 -14t-56 -24l-49 120q9 5 24.5 14t38 17.5t52 15t66.5 6.5t66.5 -6.5t52 -15t38 -17.5t24.5 -14z" />
    <glyph glyph-name="uni0208" unicode="&#x208;" horiz-adv-x="320" 
d="M50 0v710h220v-710h-220zM394.005 750l29.998 64l-195.988 124l-60.9961 -129zM122.021 750l29.998 64l-195.988 124l-60.9961 -129z" />
    <glyph glyph-name="uni0209" unicode="&#x209;" horiz-adv-x="290" 
d="M50 0v490l21 9q39 17 75.5 24t78.5 7h15v-530h-190zM379.005 570l29.998 64l-195.988 124l-60.9961 -129zM107.021 570l29.998 64l-195.988 124l-60.9961 -129z" />
    <glyph glyph-name="uni020A" unicode="&#x20a;" horiz-adv-x="320" 
d="M50 0v710h220v-710h-220zM293 750q-23 10 -56 24t-76 14t-76 -14t-56 -24l-49 120q9 5 24.5 14t38 17.5t52 15t66.5 6.5t66.5 -6.5t52 -15t38 -17.5t24.5 -14z" />
    <glyph glyph-name="uni020B" unicode="&#x20b;" horiz-adv-x="290" 
d="M50 0v490l21 9q39 17 75.5 24t78.5 7h15v-530h-190zM278 570q-23 10 -56 24t-76 14t-76 -14t-56 -24l-49 120q9 5 24.5 14t38 17.5t52 15t66.5 6.5t66.5 -6.5t52 -15t38 -17.5t24.5 -14z" />
    <glyph glyph-name="uni020C" unicode="&#x20c;" horiz-adv-x="771" 
d="M386 -10q-84 0 -148.5 21t-108.5 65t-66.5 113.5t-22.5 166.5t22.5 166.5t66.5 113.5t108.5 65t148.5 21t148 -21t108 -65t66.5 -113.5t22.5 -166.5t-22.5 -166.5t-66.5 -113.5t-108 -65t-148 -21zM386 209q30 0 54 4.5t40 19.5t24.5 44t8.5 79t-8.5 79.5t-24.5 44.5
t-40 19t-54 4q-31 0 -54.5 -4t-39.5 -19t-24.5 -44.5t-8.5 -79.5t8.5 -79t24.5 -44t39.5 -19.5t54.5 -4.5zM605.005 750l29.998 64l-195.988 124l-60.9961 -129zM333.021 750l29.998 64l-195.988 124l-60.9961 -129z" />
    <glyph glyph-name="uni020D" unicode="&#x20d;" 
d="M315 -11q-137 0 -206 64.5t-69 210.5t69 210.5t206 64.5t206 -64.5t69 -210.5t-69 -210.5t-206 -64.5zM400 264q0 29 -6.5 46t-18 25.5t-27 11t-33.5 2.5t-33.5 -2.5t-27 -11t-18 -25.5t-6.5 -46t6.5 -46t18 -25.5t27 -11t33.5 -2.5t33.5 2.5t27 11t18 25.5t6.5 46z
M529.005 570l29.998 64l-195.988 124l-60.9961 -129zM257.021 570l29.998 64l-195.988 124l-60.9961 -129z" />
    <glyph glyph-name="uni020E" unicode="&#x20e;" horiz-adv-x="771" 
d="M386 -10q-84 0 -148.5 21t-108.5 65t-66.5 113.5t-22.5 166.5t22.5 166.5t66.5 113.5t108.5 65t148.5 21t148 -21t108 -65t66.5 -113.5t22.5 -166.5t-22.5 -166.5t-66.5 -113.5t-108 -65t-148 -21zM386 209q30 0 54 4.5t40 19.5t24.5 44t8.5 79t-8.5 79.5t-24.5 44.5
t-40 19t-54 4q-31 0 -54.5 -4t-39.5 -19t-24.5 -44.5t-8.5 -79.5t8.5 -79t24.5 -44t39.5 -19.5t54.5 -4.5zM517 750q-23 10 -56 24t-76 14t-76 -14t-56 -24l-49 120q9 5 24.5 14t38 17.5t52 15t66.5 6.5t66.5 -6.5t52 -15t38 -17.5t24.5 -14z" />
    <glyph glyph-name="uni020F" unicode="&#x20f;" 
d="M315 -11q-137 0 -206 64.5t-69 210.5t69 210.5t206 64.5t206 -64.5t69 -210.5t-69 -210.5t-206 -64.5zM400 264q0 29 -6.5 46t-18 25.5t-27 11t-33.5 2.5t-33.5 -2.5t-27 -11t-18 -25.5t-6.5 -46t6.5 -46t18 -25.5t27 -11t33.5 -2.5t33.5 2.5t27 11t18 25.5t6.5 46z
M447 570q-23 10 -56 24t-76 14t-76 -14t-56 -24l-49 120q9 5 24.5 14t38 17.5t52 15t66.5 6.5t66.5 -6.5t52 -15t38 -17.5t24.5 -14z" />
    <glyph glyph-name="uni0210" unicode="&#x210;" horiz-adv-x="685" 
d="M411 0l-84 225h-57v-225h-220v710h342q45 0 87.5 -4.5t76 -28t54 -73t20.5 -139.5q0 -82 -24.5 -130t-62.5 -74l102 -261h-234zM360 415q10 0 19.5 1t16 6t10.5 15t4 28t-4 28t-10.5 15t-16 6t-19.5 1h-90v-100h90zM549.005 750l29.998 64l-195.988 124l-60.9961 -129z
M277.021 750l29.998 64l-195.988 124l-60.9961 -129z" />
    <glyph glyph-name="uni0211" unicode="&#x211;" horiz-adv-x="390" 
d="M50 0v530h95l69 -45q17 20 48 37t72 17q17 0 27 -3t19 -6l-30 -181h-65q-17 0 -26.5 -6.5t-13.5 -17.5t-4.5 -26t-0.5 -32v-267h-190zM446.005 570l29.998 64l-195.988 124l-60.9961 -129zM174.021 570l29.998 64l-195.988 124l-60.9961 -129z" />
    <glyph glyph-name="uni0212" unicode="&#x212;" horiz-adv-x="685" 
d="M411 0l-84 225h-57v-225h-220v710h342q45 0 87.5 -4.5t76 -28t54 -73t20.5 -139.5q0 -82 -24.5 -130t-62.5 -74l102 -261h-234zM360 415q10 0 19.5 1t16 6t10.5 15t4 28t-4 28t-10.5 15t-16 6t-19.5 1h-90v-100h90zM474 750q-23 10 -56 24t-76 14t-76 -14t-56 -24
l-49 120q9 5 24.5 14t38 17.5t52 15t66.5 6.5t66.5 -6.5t52 -15t38 -17.5t24.5 -14z" />
    <glyph glyph-name="uni0213" unicode="&#x213;" horiz-adv-x="390" 
d="M50 0v530h95l69 -45q17 20 48 37t72 17q17 0 27 -3t19 -6l-30 -181h-65q-17 0 -26.5 -6.5t-13.5 -17.5t-4.5 -26t-0.5 -32v-267h-190zM328 570q-23 10 -56 24t-76 14t-76 -14t-56 -24l-49 120q9 5 24.5 14t38 17.5t52 15t66.5 6.5t66.5 -6.5t52 -15t38 -17.5t24.5 -14z
" />
    <glyph glyph-name="uni0214" unicode="&#x214;" horiz-adv-x="738" 
d="M460 710h218v-419q0 -90 -24.5 -148.5t-67 -92.5t-98.5 -47.5t-119 -13.5t-119.5 13.5t-98.5 47.5t-66.5 92.5t-24.5 148.5v419h218v-412q0 -37 5.5 -57.5t17 -30t28 -11t39.5 -1.5q22 0 39.5 1.5t29 11t17.5 30t6 57.5v412zM591.005 750l29.998 64l-195.988 124
l-60.9961 -129zM319.021 750l29.998 64l-195.988 124l-60.9961 -129z" />
    <glyph glyph-name="uni0215" unicode="&#x215;" 
d="M485 0l-69 45q-15 -17 -28 -27.5t-26 -17t-27 -9t-32 -2.5q-65 0 -112.5 15.5t-78.5 48.5t-46.5 85t-15.5 126v266h190v-266q0 -29 2.5 -46t11 -25.5t25.5 -11t46 -2.5h21q17 0 26.5 7.5t13.5 19.5t4.5 28t0.5 33v263h189v-530h-95zM500.005 570l29.998 64l-195.988 124
l-60.9961 -129zM228.021 570l29.998 64l-195.988 124l-60.9961 -129z" />
    <glyph glyph-name="uni0216" unicode="&#x216;" horiz-adv-x="738" 
d="M460 710h218v-419q0 -90 -24.5 -148.5t-67 -92.5t-98.5 -47.5t-119 -13.5t-119.5 13.5t-98.5 47.5t-66.5 92.5t-24.5 148.5v419h218v-412q0 -37 5.5 -57.5t17 -30t28 -11t39.5 -1.5q22 0 39.5 1.5t29 11t17.5 30t6 57.5v412zM501 750q-23 10 -56 24t-76 14t-76 -14
t-56 -24l-49 120q9 5 24.5 14t38 17.5t52 15t66.5 6.5t66.5 -6.5t52 -15t38 -17.5t24.5 -14z" />
    <glyph glyph-name="uni0217" unicode="&#x217;" 
d="M485 0l-69 45q-15 -17 -28 -27.5t-26 -17t-27 -9t-32 -2.5q-65 0 -112.5 15.5t-78.5 48.5t-46.5 85t-15.5 126v266h190v-266q0 -29 2.5 -46t11 -25.5t25.5 -11t46 -2.5h21q17 0 26.5 7.5t13.5 19.5t4.5 28t0.5 33v263h189v-530h-95zM447 570q-23 10 -56 24t-76 14
t-76 -14t-56 -24l-49 120q9 5 24.5 14t38 17.5t52 15t66.5 6.5t66.5 -6.5t52 -15t38 -17.5t24.5 -14z" />
    <glyph glyph-name="uni0218" unicode="&#x218;" horiz-adv-x="629" 
d="M116 234q19 -9 48 -15.5t58.5 -11t55.5 -6.5t39 -2q26 0 32.5 7.5t6.5 15.5q0 14 -7 21t-18 11q-16 6 -42.5 7.5t-56.5 6.5t-60.5 16.5t-55.5 35.5t-40.5 63.5t-15.5 102.5q0 52 13 95.5t44 75t81.5 48.5t124.5 17q41 0 81 -5t74.5 -13t60.5 -17.5t40 -18.5l-66 -187
q-19 9 -46.5 15.5t-56 11t-55 5.5t-44.5 -2q-17 -3 -22.5 -9t-5.5 -15q0 -12 7 -17.5t18 -8.5q16 -4 43.5 -6t58.5 -7.5t63 -18t58 -37.5t42 -65t16 -102q0 -53 -14 -96.5t-45.5 -75t-82.5 -48.5t-125 -17q-46 0 -91 6t-83.5 15t-66.5 19.5t-41 18.5zM185 -282l30 11
q20 8 38.5 17t29.5 6l11 -3l5 4q-30 7 -49 28.5t-19 69.5q0 31 8.5 51t23.5 31t34.5 15t41.5 4q26 0 46 -5t33 -18t19.5 -35t6.5 -56q0 -39 -12 -82.5t-50 -83.5q-36 -35 -74 -55t-80 -32z" />
    <glyph glyph-name="uni0219" unicode="&#x219;" horiz-adv-x="520" 
d="M93 186q11 -2 28.5 -7t40 -9.5t47.5 -8t51 -3.5q19 0 25.5 2.5t6.5 7.5t-3.5 10t-6.5 6q-54 13 -97.5 22t-73.5 25.5t-46 46t-16 84.5q0 51 14 85.5t41 55t66.5 29t89.5 8.5q36 0 71 -3.5t65 -9t53 -12.5t35 -14l-53 -153q-16 7 -42.5 12.5t-53.5 9t-50.5 4t-33.5 -1.5
q-8 -2 -10.5 -5.5t-2.5 -5.5q0 -4 4 -7.5t7 -4.5q54 -12 98 -22t76 -27.5t49.5 -48t17.5 -85.5q0 -51 -15 -84.5t-43 -54t-67.5 -29t-88.5 -8.5q-40 0 -79 4.5t-72.5 11t-58.5 14t-36 13.5zM131 -276l30 11q20 8 38.5 17t29.5 6l11 -3l5 4q-30 7 -49 28.5t-19 69.5
q0 31 8.5 51t23.5 31t34.5 15t41.5 4q26 0 46 -5t33 -18t19.5 -35t6.5 -56q0 -39 -12 -82.5t-50 -83.5q-36 -35 -74 -55t-80 -32z" />
    <glyph glyph-name="uni021A" unicode="&#x21a;" horiz-adv-x="558" 
d="M169 0v500h-159v210h538v-210h-159v-500h-220zM125 -269l30 11q20 8 38.5 17t29.5 6l11 -3l5 4q-30 7 -49 28.5t-19 69.5q0 31 8.5 51t23.5 31t34.5 15t41.5 4q26 0 46 -5t33 -18t19.5 -35t6.5 -56q0 -39 -12 -82.5t-50 -83.5q-36 -35 -74 -55t-80 -32z" />
    <glyph glyph-name="uni021B" unicode="&#x21b;" horiz-adv-x="447" 
d="M437 42q-38 -21 -78.5 -34t-91.5 -13q-48 0 -84 14t-60 46t-36.5 85t-12.5 130v90h-64v170h64v84l21 9q39 17 75.5 24t78.5 7h15v-124h142v-170h-142v-94q0 -26 1 -41.5t5 -24.5t11.5 -12t20.5 -3q17 0 30.5 5t37.5 16zM94 -279l30 11q20 8 38.5 17t29.5 6l11 -3l5 4
q-30 7 -49 28.5t-19 69.5q0 31 8.5 51t23.5 31t34.5 15t41.5 4q26 0 46 -5t33 -18t19.5 -35t6.5 -56q0 -39 -12 -82.5t-50 -83.5q-36 -35 -74 -55t-80 -32z" />
    <glyph glyph-name="uni021E" unicode="&#x21e;" horiz-adv-x="728" 
d="M458 0v250h-188v-250h-220v710h220v-250h188v250h220v-710h-220zM364 750l-187 59l61 129l126 -75l126 75l61 -129z" />
    <glyph glyph-name="uni021F" unicode="&#x21f;" horiz-adv-x="620" 
d="M390 0v266q0 21 -2.5 37t-11 26.5t-25.5 16t-46 5.5h-21q-17 0 -26.5 -7.5t-13.5 -19.5t-4.5 -28t-0.5 -33v-263h-189v710l21 9q39 17 75.5 24t78.5 7h15v-231q28 12 45 16t34 4q69 0 118 -14.5t81 -47t47 -83.5t15 -124v-270h-190zM456 570l-187 59l61 129l126 -75
l126 75l61 -129z" />
    <glyph glyph-name="uni0220" unicode="&#x220;" horiz-adv-x="620" 
d="M390 -222v488q0 29 -2.5 46t-11 25.5t-25.5 11t-46 2.5h-21q-17 0 -26.5 -7.5t-13.5 -19.5t-4.5 -28t-0.5 -33v-263h-189v530h95l69 -45q16 17 29 28t26 17t28.5 8.5t37.5 2.5q60 0 106 -15t76.5 -48t46.5 -85.5t16 -126.5v-488h-190z" />
    <glyph glyph-name="uni0226" unicode="&#x226;" horiz-adv-x="636" 
d="M447 0l-30 100h-192l-29 -100h-186v43q0 53 8 98.5t27 95.5l174 473h202l171 -472q18 -50 26 -95.5t8 -98.5v-44h-179zM356 310q-11 49 -18 100l-18 118l-19 -118q-7 -51 -18 -100h73zM318 750q-20 0 -37 3.5t-30 13.5t-20.5 28.5t-7.5 49.5t7.5 49.5t20.5 28.5t30 13.5
t37 3.5q19 0 36.5 -3.5t30.5 -13.5t20.5 -28.5t7.5 -49.5t-7.5 -49.5t-20.5 -28.5t-30.5 -13.5t-36.5 -3.5z" />
    <glyph glyph-name="uni0227" unicode="&#x227;" horiz-adv-x="563" 
d="M428 0l-69 45q-12 -17 -26 -27.5t-27.5 -17t-26 -9t-20.5 -2.5q-66 0 -110 7t-72 24t-40.5 46.5t-15.5 74.5q-3 46 6 77t30.5 50t57.5 27t88 8h122q-1 17 -7.5 26.5t-17 14t-24 5t-28.5 0.5q-24 0 -41 -1t-32.5 -3t-33 -6t-41.5 -11l-56 172q30 11 80 25t127 14
q135 0 203.5 -64.5t68.5 -210.5v-264h-95zM242 183q-19 0 -23 -8t-4 -19t4 -19t23 -8h22q12 0 24 1.5t20.5 6.5t13 16t2.5 30h-82zM281 570q-20 0 -37 3.5t-30 13.5t-20.5 28.5t-7.5 49.5t7.5 49.5t20.5 28.5t30 13.5t37 3.5q19 0 36.5 -3.5t30.5 -13.5t20.5 -28.5
t7.5 -49.5t-7.5 -49.5t-20.5 -28.5t-30.5 -13.5t-36.5 -3.5z" />
    <glyph glyph-name="uni0228" unicode="&#x228;" horiz-adv-x="579" 
d="M293 0l-6 -42q51 -4 73.5 -25t22.5 -74q0 -57 -25.5 -78.5t-85.5 -21.5q-29 0 -46 5.5t-31 14.5l26 65q15 -6 25 -8t22 -2q26 0 32.5 3t6.5 22q0 18 -6.5 21.5t-32.5 3.5h-7h-23.5t-17.5 4.5t-9.5 15t0.5 30.5l8 66h-169v710h479v-205h-259v-50h239v-200h-239v-50h259
v-205h-236z" />
    <glyph glyph-name="uni0229" unicode="&#x229;" horiz-adv-x="590" 
d="M257 -156q15 -6 25 -8t22 -2q26 0 32.5 3t6.5 22q0 18 -6.5 21.5t-32.5 3.5h-7h-23.5t-17.5 4.5t-9.5 15t0.5 30.5l7 58q-107 12 -160.5 77t-53.5 195q0 73 17 125t49.5 85.5t80 49t108.5 15.5t108.5 -15.5t80 -49t49.5 -85.5t17 -125q-48 -26 -92.5 -32.5t-97.5 -6.5
h-122q1 -17 7.5 -26.5t17 -14t24 -5t28.5 -0.5q24 0 44 1.5t39.5 4t40 6.5t44.5 11l56 -172q-29 -11 -84.5 -25t-127.5 -16l-4 -31q51 -4 73.5 -25t22.5 -74q0 -57 -25.5 -78.5t-85.5 -21.5q-29 0 -46 5.5t-31 14.5zM351 305q1 21 -4 32t-13.5 16t-18 5.5t-16.5 0.5
q-12 0 -24 -1.5t-20.5 -6.5t-13 -16t-2.5 -30h112z" />
    <glyph glyph-name="uni022A" unicode="&#x22a;" horiz-adv-x="791" 
d="M396 -10q-84 0 -148.5 21t-108.5 65t-66.5 113.5t-22.5 166.5t22.5 166.5t66.5 113.5t108.5 65t148.5 21t148 -21t108 -65t66.5 -113.5t22.5 -166.5t-22.5 -166.5t-66.5 -113.5t-108 -65t-148 -21zM396 209q30 0 54 4.5t40 19.5t24.5 44t8.5 79t-8.5 79.5t-24.5 44.5
t-40 19t-54 4q-31 0 -54.5 -4t-39.5 -19t-24.5 -44.5t-8.5 -79.5t8.5 -79t24.5 -44t39.5 -19.5t54.5 -4.5zM499 748q-19 0 -35.5 3t-29 12.5t-19.5 27.5t-7 48t7 48t19.5 27.5t29 12.5t35.5 3t35.5 -3t29 -12.5t19.5 -27.5t7 -48t-7 -48t-19.5 -27.5t-29 -12.5t-35.5 -3z
M292 748q-19 0 -35.5 3t-29 12.5t-19.5 27.5t-7 48t7 48t19.5 27.5t29 12.5t35.5 3t35.5 -3t29 -12.5t19.5 -27.5t7 -48t-7 -48t-19.5 -27.5t-29 -12.5t-35.5 -3zM195 970v100h400v-100h-400z" />
    <glyph glyph-name="uni022B" unicode="&#x22b;" 
d="M315 -11q-137 0 -206 64.5t-69 210.5t69 210.5t206 64.5t206 -64.5t69 -210.5t-69 -210.5t-206 -64.5zM400 264q0 29 -6.5 46t-18 25.5t-27 11t-33.5 2.5t-33.5 -2.5t-27 -11t-18 -25.5t-6.5 -46t6.5 -46t18 -25.5t27 -11t33.5 -2.5t33.5 2.5t27 11t18 25.5t6.5 46z
M418 568q-19 0 -35.5 3t-29 12.5t-19.5 27.5t-7 48t7 48t19.5 27.5t29 12.5t35.5 3t35.5 -3t29 -12.5t19.5 -27.5t7 -48t-7 -48t-19.5 -27.5t-29 -12.5t-35.5 -3zM211 568q-19 0 -35.5 3t-29 12.5t-19.5 27.5t-7 48t7 48t19.5 27.5t29 12.5t35.5 3t35.5 -3t29 -12.5
t19.5 -27.5t7 -48t-7 -48t-19.5 -27.5t-29 -12.5t-35.5 -3zM115 790v100h400v-100h-400z" />
    <glyph glyph-name="uni022C" unicode="&#x22c;" horiz-adv-x="771" 
d="M386 -10q-84 0 -148.5 21t-108.5 65t-66.5 113.5t-22.5 166.5t22.5 166.5t66.5 113.5t108.5 65t148.5 21t148 -21t108 -65t66.5 -113.5t22.5 -166.5t-22.5 -166.5t-66.5 -113.5t-108 -65t-148 -21zM386 209q30 0 54 4.5t40 19.5t24.5 44t8.5 79t-8.5 79.5t-24.5 44.5
t-40 19t-54 4q-31 0 -54.5 -4t-39.5 -19t-24.5 -44.5t-8.5 -79.5t8.5 -79t24.5 -44t39.5 -19.5t54.5 -4.5zM522 803q-13 -18 -35 -28.5t-46 -10.5q-15 0 -33.5 5t-41.5 16q-11 5 -19.5 9t-13.5 4q-4 0 -7.5 -3t-6.5 -7l-29 -35l-70 86l29 40q13 17 34 28t47 11
q22 0 40.5 -6.5t34.5 -14.5q11 -5 20 -9t13 -4q3 0 7 3t7 7l29 35l69 -86zM185 970v100h400v-100h-400z" />
    <glyph glyph-name="uni022D" unicode="&#x22d;" 
d="M315 -11q-137 0 -206 64.5t-69 210.5t69 210.5t206 64.5t206 -64.5t69 -210.5t-69 -210.5t-206 -64.5zM400 264q0 29 -6.5 46t-18 25.5t-27 11t-33.5 2.5t-33.5 -2.5t-27 -11t-18 -25.5t-6.5 -46t6.5 -46t18 -25.5t27 -11t33.5 -2.5t33.5 2.5t27 11t18 25.5t6.5 46z
M452 623q-13 -18 -35 -28.5t-46 -10.5q-15 0 -33.5 5t-41.5 16q-11 5 -19.5 9t-13.5 4q-4 0 -7.5 -3t-6.5 -7l-29 -35l-70 86l29 40q13 17 34 28t47 11q22 0 40.5 -6.5t34.5 -14.5q11 -5 20 -9t13 -4q3 0 7 3t7 7l29 35l69 -86zM115 790v100h400v-100h-400z" />
    <glyph glyph-name="uni022E" unicode="&#x22e;" horiz-adv-x="771" 
d="M386 -10q-84 0 -148.5 21t-108.5 65t-66.5 113.5t-22.5 166.5t22.5 166.5t66.5 113.5t108.5 65t148.5 21t148 -21t108 -65t66.5 -113.5t22.5 -166.5t-22.5 -166.5t-66.5 -113.5t-108 -65t-148 -21zM386 209q30 0 54 4.5t40 19.5t24.5 44t8.5 79t-8.5 79.5t-24.5 44.5
t-40 19t-54 4q-31 0 -54.5 -4t-39.5 -19t-24.5 -44.5t-8.5 -79.5t8.5 -79t24.5 -44t39.5 -19.5t54.5 -4.5zM385 750q-20 0 -37 3.5t-30 13.5t-20.5 28.5t-7.5 49.5t7.5 49.5t20.5 28.5t30 13.5t37 3.5q19 0 36.5 -3.5t30.5 -13.5t20.5 -28.5t7.5 -49.5t-7.5 -49.5
t-20.5 -28.5t-30.5 -13.5t-36.5 -3.5z" />
    <glyph glyph-name="uni022F" unicode="&#x22f;" 
d="M315 -11q-137 0 -206 64.5t-69 210.5t69 210.5t206 64.5t206 -64.5t69 -210.5t-69 -210.5t-206 -64.5zM400 264q0 29 -6.5 46t-18 25.5t-27 11t-33.5 2.5t-33.5 -2.5t-27 -11t-18 -25.5t-6.5 -46t6.5 -46t18 -25.5t27 -11t33.5 -2.5t33.5 2.5t27 11t18 25.5t6.5 46z
M315 570q-20 0 -37 3.5t-30 13.5t-20.5 28.5t-7.5 49.5t7.5 49.5t20.5 28.5t30 13.5t37 3.5q19 0 36.5 -3.5t30.5 -13.5t20.5 -28.5t7.5 -49.5t-7.5 -49.5t-20.5 -28.5t-30.5 -13.5t-36.5 -3.5z" />
    <glyph glyph-name="uni0230" unicode="&#x230;" horiz-adv-x="771" 
d="M386 -10q-84 0 -148.5 21t-108.5 65t-66.5 113.5t-22.5 166.5t22.5 166.5t66.5 113.5t108.5 65t148.5 21t148 -21t108 -65t66.5 -113.5t22.5 -166.5t-22.5 -166.5t-66.5 -113.5t-108 -65t-148 -21zM386 209q30 0 54 4.5t40 19.5t24.5 44t8.5 79t-8.5 79.5t-24.5 44.5
t-40 19t-54 4q-31 0 -54.5 -4t-39.5 -19t-24.5 -44.5t-8.5 -79.5t8.5 -79t24.5 -44t39.5 -19.5t54.5 -4.5zM385 750q-20 0 -37 3.5t-30 13.5t-20.5 28.5t-7.5 49.5t7.5 49.5t20.5 28.5t30 13.5t37 3.5q19 0 36.5 -3.5t30.5 -13.5t20.5 -28.5t7.5 -49.5t-7.5 -49.5
t-20.5 -28.5t-30.5 -13.5t-36.5 -3.5zM185 970v100h400v-100h-400z" />
    <glyph glyph-name="uni0231" unicode="&#x231;" 
d="M315 -11q-137 0 -206 64.5t-69 210.5t69 210.5t206 64.5t206 -64.5t69 -210.5t-69 -210.5t-206 -64.5zM400 264q0 29 -6.5 46t-18 25.5t-27 11t-33.5 2.5t-33.5 -2.5t-27 -11t-18 -25.5t-6.5 -46t6.5 -46t18 -25.5t27 -11t33.5 -2.5t33.5 2.5t27 11t18 25.5t6.5 46z
M315 570q-20 0 -37 3.5t-30 13.5t-20.5 28.5t-7.5 49.5t7.5 49.5t20.5 28.5t30 13.5t37 3.5q19 0 36.5 -3.5t30.5 -13.5t20.5 -28.5t7.5 -49.5t-7.5 -49.5t-20.5 -28.5t-30.5 -13.5t-36.5 -3.5zM115 790v100h400v-100h-400z" />
    <glyph glyph-name="uni0232" unicode="&#x232;" horiz-adv-x="614" 
d="M197 0v221l-129 269q-11 24 -21.5 45.5t-18.5 43t-13 44.5t-5 49v38h179l39 -88q22 -49 36 -93.5t26 -95.5l17 -83l17 83q12 51 26.5 96t35.5 93l38 88h180v-39q0 -26 -4.5 -49t-12.5 -44.5t-18.5 -43t-22.5 -45.5l-129 -268v-221h-220zM107 790v100h400v-100h-400z" />
    <glyph glyph-name="uni0233" unicode="&#x233;" horiz-adv-x="558" 
d="M77 -50q10 -5 16 -5.5t17 -2.5q7 -1 12.5 -0.5t10 4t9 11t9.5 21.5l30 77l-128 271q-23 48 -33 93t-10 98v13h157l65 -139q23 -48 33.5 -93t12.5 -98h2q2 53 12.5 98t33.5 93l65 139h157v-13q0 -53 -10 -98t-32 -93l-167 -361q-20 -43 -38 -77t-40.5 -58t-52.5 -36.5
t-74 -12.5q-24 0 -52 5t-57 22zM79 610v100h400v-100h-400z" />
    <glyph glyph-name="dotlessj" unicode="&#x237;" horiz-adv-x="357" 
d="M42 -29q14 -7 21.5 -9t20.5 -2q10 0 16.5 1.5t10.5 7t5.5 16.5t1.5 30v475l21 9q39 17 75.5 24t78.5 7h15v-515q0 -73 -12.5 -120.5t-37 -75t-62 -38.5t-86.5 -11q-37 0 -66.5 7t-68.5 30z" />
    <glyph glyph-name="circumflex" unicode="&#x2c6;" horiz-adv-x="514" 
d="M257 645l-126 -75l-61 129l187 59l187 -59l-61 -129z" />
    <glyph glyph-name="caron" unicode="&#x2c7;" horiz-adv-x="514" 
d="M257 570l-187 59l61 129l126 -75l126 75l61 -129z" />
    <glyph glyph-name="breve" unicode="&#x2d8;" horiz-adv-x="462" 
d="M412 623q-9 -5 -24.5 -14t-38 -17.5t-52 -15t-66.5 -6.5t-66.5 6.5t-52 15t-38 17.5t-24.5 14l49 120q23 -10 56 -24t76 -14t76 14t56 24z" />
    <glyph glyph-name="dotaccent" unicode="&#x2d9;" horiz-adv-x="290" 
d="M145 570q-20 0 -37 3.5t-30 13.5t-20.5 28.5t-7.5 49.5t7.5 49.5t20.5 28.5t30 13.5t37 3.5q19 0 36.5 -3.5t30.5 -13.5t20.5 -28.5t7.5 -49.5t-7.5 -49.5t-20.5 -28.5t-30.5 -13.5t-36.5 -3.5z" />
    <glyph glyph-name="ring" unicode="&#x2da;" horiz-adv-x="290" 
d="M145 569q-16 0 -29.5 2.5t-24 10.5t-16.5 23t-6 40t6 40t16.5 23t24 10.5t29.5 2.5t29.5 -2.5t24 -10.5t16.5 -23t6 -40t-6 -40t-16.5 -23t-24 -10.5t-29.5 -2.5zM145 599q19 0 32.5 8t13.5 38t-13.5 38t-32.5 8t-32.5 -8t-13.5 -38t13.5 -38t32.5 -8z" />
    <glyph glyph-name="ogonek" unicode="&#x2db;" horiz-adv-x="293" 
d="M239 -220q-14 -9 -31 -14.5t-46 -5.5q-60 0 -86 26.5t-26 83.5q0 28 7 46.5t21 31t35 21.5t49 20q6 2 14 4t17 7l50 -6q0 -26 -10.5 -42.5t-36.5 -25.5l-30 -11q-26 -9 -33 -18t-7 -27q0 -19 6.5 -27t33.5 -8q11 0 21 2t25 8z" />
    <glyph glyph-name="tilde" unicode="&#x2dc;" horiz-adv-x="390" 
d="M332 623q-13 -18 -35 -28.5t-46 -10.5q-15 0 -33.5 5t-41.5 16q-11 5 -19.5 9t-13.5 4q-4 0 -7.5 -3t-6.5 -7l-29 -35l-70 86l29 40q13 17 34 28t47 11q22 0 40.5 -6.5t34.5 -14.5q11 -5 20 -9t13 -4q3 0 7 3t7 7l29 35l69 -86z" />
    <glyph glyph-name="hungarumlaut" unicode="&#x2dd;" horiz-adv-x="629" 
d="M80 570l-30 64l196 124l61 -129zM352 570l-30 64l196 124l61 -129z" />
    <glyph glyph-name="gravecomb" unicode="&#x300;" horiz-adv-x="357" 
d="M50 629l61 129l196 -124l-30 -64z" />
    <glyph glyph-name="acutecomb" unicode="&#x301;" horiz-adv-x="357" 
d="M80 570l-30 64l196 124l61 -129z" />
    <glyph glyph-name="uni0302" unicode="&#x302;" horiz-adv-x="514" 
d="M257 645l-126 -75l-61 129l187 59l187 -59l-61 -129z" />
    <glyph glyph-name="tildecomb" unicode="&#x303;" horiz-adv-x="390" 
d="M332 623q-13 -18 -35 -28.5t-46 -10.5q-15 0 -33.5 5t-41.5 16q-11 5 -19.5 9t-13.5 4q-4 0 -7.5 -3t-6.5 -7l-29 -35l-70 86l29 40q13 17 34 28t47 11q22 0 40.5 -6.5t34.5 -14.5q11 -5 20 -9t13 -4q3 0 7 3t7 7l29 35l69 -86z" />
    <glyph glyph-name="uni0304" unicode="&#x304;" horiz-adv-x="500" 
d="M50 610v100h400v-100h-400z" />
    <glyph glyph-name="uni0306" unicode="&#x306;" horiz-adv-x="462" 
d="M412 623q-9 -5 -24.5 -14t-38 -17.5t-52 -15t-66.5 -6.5t-66.5 6.5t-52 15t-38 17.5t-24.5 14l49 120q23 -10 56 -24t76 -14t76 14t56 24z" />
    <glyph glyph-name="uni0307" unicode="&#x307;" horiz-adv-x="290" 
d="M145 570q-20 0 -37 3.5t-30 13.5t-20.5 28.5t-7.5 49.5t7.5 49.5t20.5 28.5t30 13.5t37 3.5q19 0 36.5 -3.5t30.5 -13.5t20.5 -28.5t7.5 -49.5t-7.5 -49.5t-20.5 -28.5t-30.5 -13.5t-36.5 -3.5z" />
    <glyph glyph-name="uni0308" unicode="&#x308;" horiz-adv-x="489" 
d="M348 568q-19 0 -35.5 3t-29 12.5t-19.5 27.5t-7 48t7 48t19.5 27.5t29 12.5t35.5 3t35.5 -3t29 -12.5t19.5 -27.5t7 -48t-7 -48t-19.5 -27.5t-29 -12.5t-35.5 -3zM141 568q-19 0 -35.5 3t-29 12.5t-19.5 27.5t-7 48t7 48t19.5 27.5t29 12.5t35.5 3t35.5 -3t29 -12.5
t19.5 -27.5t7 -48t-7 -48t-19.5 -27.5t-29 -12.5t-35.5 -3z" />
    <glyph glyph-name="hookabovecomb" unicode="&#x309;" horiz-adv-x="305" 
d="M108 570q0 28 17.5 49t35.5 32q8 5 8 15q0 6 -8.5 7.5t-15.5 1.5q-16 0 -36 -3.5t-32 -8.5l-27 74q5 4 16 8t25 7t28.5 5t27.5 2q21 0 40.5 -6t34.5 -17t24 -28t9 -38q0 -26 -9.5 -41t-20.5 -25t-20 -17t-8 -17h-89z" />
    <glyph glyph-name="uni030A" unicode="&#x30a;" horiz-adv-x="290" 
d="M145 569q-16 0 -29.5 2.5t-24 10.5t-16.5 23t-6 40t6 40t16.5 23t24 10.5t29.5 2.5t29.5 -2.5t24 -10.5t16.5 -23t6 -40t-6 -40t-16.5 -23t-24 -10.5t-29.5 -2.5zM145 599q19 0 32.5 8t13.5 38t-13.5 38t-32.5 8t-32.5 -8t-13.5 -38t13.5 -38t32.5 -8z" />
    <glyph glyph-name="uni030B" unicode="&#x30b;" horiz-adv-x="629" 
d="M80 570l-30 64l196 124l61 -129zM352 570l-30 64l196 124l61 -129z" />
    <glyph glyph-name="uni030C" unicode="&#x30c;" horiz-adv-x="514" 
d="M257 570l-187 59l61 129l126 -75l126 75l61 -129z" />
    <glyph glyph-name="uni030F" unicode="&#x30f;" horiz-adv-x="629" 
d="M549.005 570l29.998 64l-195.988 124l-60.9961 -129zM277.021 570l29.998 64l-195.988 124l-60.9961 -129z" />
    <glyph glyph-name="uni0310" unicode="&#x310;" horiz-adv-x="462" 
d="M412 623q-9 -5 -24.5 -14t-38 -17.5t-52 -15t-66.5 -6.5t-66.5 6.5t-52 15t-38 17.5t-24.5 14l49 120q23 -10 56 -24t76 -14t76 14t56 24zM231 750q-20 0 -37 3.5t-30 13.5t-20.5 28.5t-7.5 49.5t7.5 49.5t20.5 28.5t30 13.5t37 3.5q19 0 36.5 -3.5t30.5 -13.5
t20.5 -28.5t7.5 -49.5t-7.5 -49.5t-20.5 -28.5t-30.5 -13.5t-36.5 -3.5z" />
    <glyph glyph-name="uni0311" unicode="&#x311;" horiz-adv-x="462" 
d="M363 570q-23 10 -56 24t-76 14t-76 -14t-56 -24l-49 120q9 5 24.5 14t38 17.5t52 15t66.5 6.5t66.5 -6.5t52 -15t38 -17.5t24.5 -14z" />
    <glyph glyph-name="uni0316" unicode="&#x316;" horiz-adv-x="357" 
d="M50 -161l61 129l196 -124l-30 -64z" />
    <glyph glyph-name="uni0317" unicode="&#x317;" horiz-adv-x="357" 
d="M80 -221l-30 64l196 124l61 -129z" />
    <glyph glyph-name="dotbelowcomb" unicode="&#x323;" horiz-adv-x="290" 
d="M145 -222q-20 0 -37 3.5t-30 13.5t-20.5 28.5t-7.5 49.5t7.5 49.5t20.5 28.5t30 13.5t37 3.5q19 0 36.5 -3.5t30.5 -13.5t20.5 -28.5t7.5 -49.5t-7.5 -49.5t-20.5 -28.5t-30.5 -13.5t-36.5 -3.5z" />
    <glyph glyph-name="uni0324" unicode="&#x324;" horiz-adv-x="489" 
d="M348 -222q-19 0 -35.5 3t-29 12.5t-19.5 27.5t-7 48t7 48t19.5 27.5t29 12.5t35.5 3t35.5 -3t29 -12.5t19.5 -27.5t7 -48t-7 -48t-19.5 -27.5t-29 -12.5t-35.5 -3zM141 -222q-19 0 -35.5 3t-29 12.5t-19.5 27.5t-7 48t7 48t19.5 27.5t29 12.5t35.5 3t35.5 -3t29 -12.5
t19.5 -27.5t7 -48t-7 -48t-19.5 -27.5t-29 -12.5t-35.5 -3z" />
    <glyph glyph-name="uni0325" unicode="&#x325;" horiz-adv-x="252" 
d="M126 -222q-16 0 -29.5 2.5t-24 10.5t-16.5 23t-6 40t6 40t16.5 23t24 10.5t29.5 2.5t29.5 -2.5t24 -10.5t16.5 -23t6 -40t-6 -40t-16.5 -23t-24 -10.5t-29.5 -2.5zM126 -192q19 0 32.5 8t13.5 38t-13.5 38t-32.5 8t-32.5 -8t-13.5 -38t13.5 -38t32.5 -8z" />
    <glyph glyph-name="uni032C" unicode="&#x32c;" horiz-adv-x="514" 
d="M257 -221l-187 59l61 129l126 -75l126 75l61 -129z" />
    <glyph glyph-name="uni032D" unicode="&#x32d;" horiz-adv-x="514" 
d="M257 -146l-126 -75l-61 129l187 59l187 -59l-61 -129z" />
    <glyph glyph-name="uni032E" unicode="&#x32e;" horiz-adv-x="462" 
d="M412 -167q-9 -5 -24.5 -14t-38 -17.5t-52 -15t-66.5 -6.5t-66.5 6.5t-52 15t-38 17.5t-24.5 14l49 120q23 -10 56 -24t76 -14t76 14t56 24z" />
    <glyph glyph-name="uni032F" unicode="&#x32f;" horiz-adv-x="462" 
d="M363 -221q-23 10 -56 24t-76 14t-76 -14t-56 -24l-49 120q9 5 24.5 14t38 17.5t52 15t66.5 6.5t66.5 -6.5t52 -15t38 -17.5t24.5 -14z" />
    <glyph glyph-name="uni0330" unicode="&#x330;" horiz-adv-x="390" 
d="M332 -170q-13 -18 -35 -28.5t-46 -10.5q-15 0 -33.5 5t-41.5 16q-11 5 -19.5 9t-13.5 4q-4 0 -7.5 -3t-6.5 -7l-29 -35l-70 86l29 40q13 17 34 28t47 11q22 0 40.5 -6.5t34.5 -14.5q11 -5 20 -9t13 -4q3 0 7 3t7 7l29 35l69 -86z" />
    <glyph glyph-name="uni0331" unicode="&#x331;" horiz-adv-x="500" 
d="M50 -184v100h400v-100h-400z" />
    <glyph glyph-name="uni0400" unicode="&#x400;" horiz-adv-x="589" 
d="M60 0v710h479v-205h-259v-50h239v-200h-239v-50h259v-205h-479zM166 809l61 129l196 -124l-30 -64z" />
    <glyph glyph-name="afii10023" unicode="&#x401;" horiz-adv-x="589" 
d="M398 748q-19 0 -35.5 3t-29 12.5t-19.5 27.5t-7 48t7 48t19.5 27.5t29 12.5t35.5 3t35.5 -3t29 -12.5t19.5 -27.5t7 -48t-7 -48t-19.5 -27.5t-29 -12.5t-35.5 -3zM191 748q-19 0 -35.5 3t-29 12.5t-19.5 27.5t-7 48t7 48t19.5 27.5t29 12.5t35.5 3t35.5 -3t29 -12.5
t19.5 -27.5t7 -48t-7 -48t-19.5 -27.5t-29 -12.5t-35.5 -3zM60 0v710h479v-205h-259v-50h239v-200h-239v-50h259v-205h-479z" />
    <glyph glyph-name="afii10051" unicode="&#x402;" horiz-adv-x="783" 
d="M374 -76q7 9 23.5 29t35.5 44.5t38 50.5t31 47q20 34 24.5 55t4.5 38q0 36 -12 53t-53 17h-82v-258h-219v502h-155v208h528v-208h-154v-46h91q61 0 112 -9t88 -36.5t57.5 -78t20.5 -133.5q0 -98 -26 -167.5t-63.5 -118.5t-78.5 -81.5t-71 -54.5z" />
    <glyph glyph-name="afii10052" unicode="&#x403;" horiz-adv-x="539" 
d="M50 0v710h479v-205h-259v-505h-220zM229 750l-30 64l196 124l61 -129z" />
    <glyph glyph-name="afii10053" unicode="&#x404;" horiz-adv-x="677" 
d="M627 56q-12 -8 -34.5 -19.5t-52.5 -22t-67 -17.5t-77 -7q-84 0 -148.5 21t-108.5 65t-66.5 113.5t-22.5 166.5t22.5 166.5t66.5 113.5t108.5 65t148.5 21q42 0 79 -7.5t67 -18t51.5 -21.5t33.5 -19l-76 -187q-20 9 -42.5 15.5t-44.5 11t-41.5 6.5t-32.5 2q-38 -1 -65 -9
t-41 -40h167v-200h-166q14 -31 41 -39t64 -8q13 0 32.5 2t41.5 6.5t44.5 11t42.5 15.5z" />
    <glyph glyph-name="afii10054" unicode="&#x405;" horiz-adv-x="624" 
d="M113 234q19 -9 48 -15.5t58.5 -11t55.5 -6.5t39 -2q26 0 32.5 7.5t6.5 15.5q0 14 -7 21t-18 11q-16 6 -42.5 7.5t-56.5 6.5t-60.5 16.5t-55.5 35.5t-40.5 63.5t-15.5 102.5q0 52 13 95.5t44 75t81.5 48.5t124.5 17q41 0 81 -5t74.5 -13t60.5 -17.5t40 -18.5l-66 -187
q-19 9 -46.5 15.5t-56 11t-55 5.5t-44.5 -2q-17 -3 -22.5 -9t-5.5 -15q0 -12 7 -17.5t18 -8.5q16 -4 43.5 -6t58.5 -7.5t63 -18t58 -37.5t42 -65t16 -102q0 -53 -14 -96.5t-45.5 -75t-82.5 -48.5t-125 -17q-46 0 -91 6t-83.5 15t-66.5 19.5t-41 18.5z" />
    <glyph glyph-name="afii10055" unicode="&#x406;" horiz-adv-x="339" 
d="M60 0v710h220v-710h-220z" />
    <glyph glyph-name="afii10056" unicode="&#x407;" horiz-adv-x="320" 
d="M50 0v710h220v-710h-220zM265 748q-19 0 -35.5 3t-29 12.5t-19.5 27.5t-7 48t7 48t19.5 27.5t29 12.5t35.5 3t35.5 -3t29 -12.5t19.5 -27.5t7 -48t-7 -48t-19.5 -27.5t-29 -12.5t-35.5 -3zM58 748q-19 0 -35.5 3t-29 12.5t-19.5 27.5t-7 48t7 48t19.5 27.5t29 12.5
t35.5 3t35.5 -3t29 -12.5t19.5 -27.5t7 -48t-7 -48t-19.5 -27.5t-29 -12.5t-35.5 -3z" />
    <glyph glyph-name="afii10057" unicode="&#x408;" horiz-adv-x="503" 
d="M233 710h220v-491q0 -68 -20 -112.5t-51.5 -70.5t-70.5 -36.5t-77 -10.5q-72 0 -119.5 13.5t-83.5 36.5l69 188q37 -17 62 -22t54 -5q10 0 13.5 5t3.5 10v495z" />
    <glyph glyph-name="afii10058" unicode="&#x409;" horiz-adv-x="1062" 
d="M462 0v500h-74l-20 -266q-6 -72 -23.5 -119.5t-46.5 -75.5t-69 -39t-89 -11q-37 0 -66.5 7t-68.5 30l67 164q14 -7 21.5 -9t20.5 -2q10 0 16 1.5t9.5 7t5.5 16.5t3 30l30 436l21 9q39 17 75.5 24t78.5 7h329v-215h102q44 0 87 -5.5t76.5 -29.5t54 -74.5t20.5 -140.5
t-20.5 -139.5t-54 -73t-76 -28t-87.5 -4.5h-322zM752 195q10 0 19.5 1t16 6t10.5 15t4 28t-4 28t-10.5 15t-16 6t-19.5 1h-70v-100h70z" />
    <glyph glyph-name="afii10059" unicode="&#x40a;" horiz-adv-x="1058" 
d="M458 0v250h-188v-250h-220v710h220v-250h188v250h220v-215h102q44 0 87 -5.5t76.5 -29.5t54 -74.5t20.5 -140.5t-20.5 -139.5t-54 -73t-76 -28t-87.5 -4.5h-322zM748 195q10 0 19.5 1t16 6t10.5 15t4 28t-4 28t-10.5 15t-16 6t-19.5 1h-70v-100h70z" />
    <glyph glyph-name="afii10060" unicode="&#x40b;" horiz-adv-x="733" 
d="M474 0v195q0 20 -5 31t-14 16t-21.5 5.5t-27.5 0.5h-42v-248h-219v502h-135v208h509v-208h-155v-46h51q72 0 124.5 -12.5t86.5 -42t50.5 -78t16.5 -121.5v-202h-219z" />
    <glyph glyph-name="afii10061" unicode="&#x40c;" horiz-adv-x="685" 
d="M441 0l-118 250h-53v-250h-220v710h220v-250h53l118 250h234l-168 -356l168 -354h-234zM270 750l-30 64l196 124l61 -129z" />
    <glyph glyph-name="uni040D" unicode="&#x40d;" horiz-adv-x="722" 
d="M452 0v120q0 42 2.5 79.5t7.5 79.5l10 85l-251 -364h-171v710h220v-120q0 -42 -2.5 -79.5t-7.5 -79.5l-10 -88l251 367h171v-710h-220zM232 809l61 129l196 -124l-30 -64z" />
    <glyph glyph-name="afii10062" unicode="&#x40e;" horiz-adv-x="608" 
d="M453 219q-26 -69 -53 -114t-57.5 -70.5t-65.5 -35.5t-76 -10q-57 0 -107 14t-83 36l69 188q30 -14 58 -20t58 -7q15 0 20 3.5t-6 23.5l-148 265q-27 45 -39.5 88.5t-12.5 96.5v33h174l58 -95q27 -45 42.5 -88.5t22.5 -95.5l10 -79l8 79q5 53 16.5 98t33.5 93l39 88h184
v-26q0 -53 -11.5 -97t-30.5 -94zM485 803q-9 -5 -24.5 -14t-38 -17.5t-52 -15t-66.5 -6.5t-66.5 6.5t-52 15t-38 17.5t-24.5 14l49 120q23 -10 56 -24t76 -14t76 14t56 24z" />
    <glyph glyph-name="afii10145" unicode="&#x40f;" horiz-adv-x="724" 
d="M469 0v-166h-219v166h-200v710h218v-507h188v507h218v-710h-205z" />
    <glyph glyph-name="afii10017" unicode="&#x410;" horiz-adv-x="636" 
d="M447 0l-30 100h-192l-29 -100h-186v43q0 53 8 98.5t27 95.5l174 473h202l171 -472q18 -50 26 -95.5t8 -98.5v-44h-179zM356 310q-11 49 -18 100l-18 118l-19 -118q-7 -51 -18 -100h73z" />
    <glyph glyph-name="afii10018" unicode="&#x411;" horiz-adv-x="650" 
d="M50 0v710h519v-205h-299v-50h102q44 0 87 -5t76.5 -27.5t54 -69t20.5 -128.5q0 -83 -20.5 -128t-54 -67t-76 -26t-87.5 -4h-322zM270 255v-60h70q21 0 35.5 3t14.5 27t-14.5 27t-35.5 3h-70z" />
    <glyph glyph-name="afii10019" unicode="&#x412;" horiz-adv-x="670" 
d="M50 0v710h322h41.5t51 -4t52.5 -15t46.5 -33t33.5 -57t13 -87q0 -57 -21 -94.5t-52 -62.5v-3q49 -17 71 -59t22 -99q0 -52 -13 -87t-33.5 -57t-46.5 -33t-52.5 -15t-51 -4h-41.5h-342zM270 255v-60h70q21 0 35.5 3t14.5 27t-14.5 27t-35.5 3h-70zM270 514v-60h70
q21 0 35.5 3t14.5 27t-14.5 27t-35.5 3h-70z" />
    <glyph glyph-name="afii10020" unicode="&#x413;" horiz-adv-x="539" 
d="M50 0v710h479v-205h-259v-505h-220z" />
    <glyph glyph-name="afii10021" unicode="&#x414;" horiz-adv-x="749" 
d="M520 -141v141h-291v-141h-179l-40 344h20q25 0 41.5 5.5t27 19.5t16 37.5t8.5 59.5l24 345l21 9q39 17 75.5 24t78.5 7h329v-507h88l-40 -344h-179zM431 500h-74l-13 -176q-6 -72 -24 -122l111 1v297z" />
    <glyph glyph-name="afii10022" unicode="&#x415;" horiz-adv-x="589" 
d="M60 0v710h479v-205h-259v-50h239v-200h-239v-50h259v-205h-479z" />
    <glyph glyph-name="afii10024" unicode="&#x416;" horiz-adv-x="1010" 
d="M766 0l-118 250h-33v-250h-220v250h-33l-118 -250h-234l168 354l-168 356h234l118 -250h33v250h220v-250h33l118 250h234l-168 -356l168 -354h-234z" />
    <glyph glyph-name="afii10025" unicode="&#x417;" horiz-adv-x="629" 
d="M460 359q41 -3 66 -16.5t39 -34t19 -47t5 -55.5q0 -61 -16 -102.5t-48 -67t-80.5 -37t-113.5 -11.5q-53 0 -99.5 6t-85 15t-66 19.5t-40.5 18.5l76 187q19 -9 48 -15.5t58.5 -11t55.5 -6.5t39 -2q26 0 32.5 7.5t6.5 15.5q0 7 -1 12.5t-5.5 10t-14 7t-27.5 2.5h-71v206
l71 1q30 1 39 7.5t9 17.5q0 8 -5 15t-23 10t-44.5 2t-55 -5.5t-56 -11t-46.5 -15.5l-66 187q15 9 40 18.5t59.5 17.5t76.5 13t90 5q65 0 113 -11.5t79 -37t46 -67.5t15 -103q0 -28 -4.5 -52t-17 -42.5t-36 -30.5t-61.5 -15v-4z" />
    <glyph glyph-name="afii10026" unicode="&#x418;" horiz-adv-x="722" 
d="M452 0v120q0 42 2.5 79.5t7.5 79.5l10 85l-251 -364h-171v710h220v-120q0 -42 -2.5 -79.5t-7.5 -79.5l-10 -88l251 367h171v-710h-220z" />
    <glyph glyph-name="afii10027" unicode="&#x419;" horiz-adv-x="722" 
d="M542 803q-9 -5 -24.5 -14t-38 -17.5t-52 -15t-66.5 -6.5t-66.5 6.5t-52 15t-38 17.5t-24.5 14l49 120q23 -10 56 -24t76 -14t76 14t56 24zM452 0v120q0 42 2.5 79.5t7.5 79.5l10 85l-251 -364h-171v710h220v-120q0 -42 -2.5 -79.5t-7.5 -79.5l-10 -88l251 367h171v-710
h-220z" />
    <glyph glyph-name="afii10028" unicode="&#x41a;" horiz-adv-x="685" 
d="M441 0l-118 250h-53v-250h-220v710h220v-250h53l118 250h234l-168 -356l168 -354h-234z" />
    <glyph glyph-name="afii10029" unicode="&#x41b;" horiz-adv-x="732" 
d="M462 0v500h-74l-20 -266q-6 -72 -23.5 -119.5t-46.5 -75.5t-69 -39t-89 -11q-37 0 -66.5 7t-68.5 30l67 164q14 -7 21.5 -9t20.5 -2q10 0 16 1.5t9.5 7t5.5 16.5t3 30l30 436l21 9q39 17 75.5 24t78.5 7h329v-710h-220z" />
    <glyph glyph-name="afii10030" unicode="&#x41c;" horiz-adv-x="958" 
d="M688 0v110q0 53 4.5 99.5t13.5 98.5l12 62h-4l-155 -370h-160l-155 370h-4l12 -62q9 -52 13.5 -98.5t4.5 -99.5v-110h-220v710h232l129 -260q23 -48 37 -92.5t22 -96.5l9 -58l9 58q8 52 22 96.5t37 92.5l129 260h232v-710h-220z" />
    <glyph glyph-name="afii10031" unicode="&#x41d;" horiz-adv-x="728" 
d="M458 0v250h-188v-250h-220v710h220v-250h188v250h220v-710h-220z" />
    <glyph glyph-name="afii10032" unicode="&#x41e;" horiz-adv-x="771" 
d="M386 -10q-84 0 -148.5 21t-108.5 65t-66.5 113.5t-22.5 166.5t22.5 166.5t66.5 113.5t108.5 65t148.5 21t148 -21t108 -65t66.5 -113.5t22.5 -166.5t-22.5 -166.5t-66.5 -113.5t-108 -65t-148 -21zM386 209q30 0 54 4.5t40 19.5t24.5 44t8.5 79t-8.5 79.5t-24.5 44.5
t-40 19t-54 4q-31 0 -54.5 -4t-39.5 -19t-24.5 -44.5t-8.5 -79.5t8.5 -79t24.5 -44t39.5 -19.5t54.5 -4.5z" />
    <glyph glyph-name="afii10033" unicode="&#x41f;" horiz-adv-x="708" 
d="M438 0v500h-168v-500h-220v710h608v-710h-220z" />
    <glyph glyph-name="afii10034" unicode="&#x420;" horiz-adv-x="650" 
d="M50 0v710h322q45 0 87.5 -4.5t76 -28t54 -73t20.5 -139.5t-20.5 -140.5t-54 -74.5t-76.5 -29.5t-87 -5.5h-102v-215h-220zM340 415q10 0 19.5 1t16 6t10.5 15t4 28t-4 28t-10.5 15t-16 6t-19.5 1h-70v-100h70z" />
    <glyph glyph-name="afii10035" unicode="&#x421;" horiz-adv-x="657" 
d="M617 56q-12 -8 -34.5 -19.5t-52.5 -22t-67 -17.5t-77 -7q-84 0 -148.5 21t-108.5 65t-66.5 113.5t-22.5 166.5t22.5 166.5t66.5 113.5t108.5 65t148.5 21q42 0 79 -7.5t67 -18t51.5 -21.5t33.5 -19l-76 -187q-20 9 -42.5 15.5t-44.5 11t-41.5 6.5t-32.5 2q-29 0 -51 -4.5
t-38 -19.5t-24 -44.5t-8 -79.5t8 -79t24 -44.5t38 -20t51 -4.5q13 0 32.5 2t41.5 6.5t44.5 11t42.5 15.5z" />
    <glyph glyph-name="afii10036" unicode="&#x422;" horiz-adv-x="638" 
d="M189 0v500h-159v210h538v-210h-159v-500h-220z" />
    <glyph glyph-name="afii10037" unicode="&#x423;" horiz-adv-x="608" 
d="M453 219q-26 -69 -53 -114t-57.5 -70.5t-65.5 -35.5t-76 -10q-57 0 -107 14t-83 36l69 188q30 -14 58 -20t58 -7q15 0 20 3.5t-6 23.5l-148 265q-27 45 -39.5 88.5t-12.5 96.5v33h174l58 -95q27 -45 42.5 -88.5t22.5 -95.5l10 -79l8 79q5 53 16.5 98t33.5 93l39 88h184
v-26q0 -53 -11.5 -97t-30.5 -94z" />
    <glyph glyph-name="afii10038" unicode="&#x424;" horiz-adv-x="900" 
d="M590 315q10 0 19.5 1t16 6t10.5 15t4 28t-4 28t-10.5 15t-16 6t-19.5 1h-30v-100h30zM340 0v115h-62q-44 0 -87 5.5t-76.5 29.5t-54 74.5t-20.5 140.5t20.5 139.5t54 73t76 28t87.5 4.5h62v100h220v-100h62q45 0 87.5 -4.5t76 -28t54 -73t20.5 -139.5t-20.5 -140.5
t-54 -74.5t-76.5 -29.5t-87 -5.5h-62v-115h-220zM340 415h-30q-11 0 -20 -1t-15.5 -6t-10.5 -15t-4 -28t4 -28t10.5 -15t15.5 -6t20 -1h30v100z" />
    <glyph glyph-name="afii10039" unicode="&#x425;" horiz-adv-x="594" 
d="M390 0l-57 134q-11 24 -17 46.5t-11 48.5l-8 49l-8 -49q-5 -26 -11 -48.5t-17 -46.5l-57 -134h-194v33q0 53 12.5 96.5t39.5 88.5l84 137l-84 137q-27 45 -39.5 88.5t-12.5 96.5v33h194l57 -134q11 -24 17 -46.5t11 -48.5l8 -49l8 49q5 26 11 48.5t17 46.5l57 134h194
v-33q0 -53 -12.5 -96.5t-39.5 -88.5l-84 -137l84 -137q27 -45 39.5 -88.5t12.5 -96.5v-33h-194z" />
    <glyph glyph-name="afii10040" unicode="&#x426;" horiz-adv-x="767" 
d="M543 -141v141h-493v710h220v-507h184v507h220v-507h88l-40 -344h-179z" />
    <glyph glyph-name="afii10041" unicode="&#x427;" horiz-adv-x="680" 
d="M410 0v235q-16 -7 -35.5 -11t-39.5 -6t-39.5 -2.5t-35.5 -0.5q-41 0 -82 5.5t-74 30.5t-53.5 75t-20.5 139v245h220v-245q0 -18 4 -28t10 -15t14.5 -6t17.5 -1q13 0 29 1t32.5 3t30.5 4t22 5v282h220v-710h-220z" />
    <glyph glyph-name="afii10042" unicode="&#x428;" horiz-adv-x="1008" 
d="M50 0v710h218v-507h126v507h219v-507h126v507h219v-710h-908z" />
    <glyph glyph-name="afii10043" unicode="&#x429;" horiz-adv-x="1051" 
d="M827 -142v142h-777v710h219v-507h126v507h218v-507h126v507h219v-507h88l-40 -345h-179z" />
    <glyph glyph-name="afii10044" unicode="&#x42a;" horiz-adv-x="745" 
d="M145 0v505h-140v205h360v-215h102q44 0 87 -5.5t76.5 -29.5t54 -74.5t20.5 -140.5t-20.5 -139.5t-54 -73t-76 -28t-87.5 -4.5h-322zM435 195q10 0 19.5 1t16 6t10.5 15t4 28t-4 28t-10.5 15t-16 6t-19.5 1h-70v-100h70z" />
    <glyph glyph-name="afii10045" unicode="&#x42b;" horiz-adv-x="939" 
d="M50 0v710h220v-215h102q44 0 87 -5.5t76.5 -29.5t54 -74.5t20.5 -140.5t-20.5 -139.5t-54 -73t-76 -28t-87.5 -4.5h-322zM340 195q10 0 19.5 1t16 6t10.5 15t4 28t-4 28t-10.5 15t-16 6t-19.5 1h-70v-100h70zM669 0v710h220v-710h-220z" />
    <glyph glyph-name="afii10046" unicode="&#x42c;" horiz-adv-x="650" 
d="M50 0v710h220v-215h102q44 0 87 -5.5t76.5 -29.5t54 -74.5t20.5 -140.5t-20.5 -139.5t-54 -73t-76 -28t-87.5 -4.5h-322zM340 195q10 0 19.5 1t16 6t10.5 15t4 28t-4 28t-10.5 15t-16 6t-19.5 1h-70v-100h70z" />
    <glyph glyph-name="afii10047" unicode="&#x42d;" horiz-adv-x="677" 
d="M226 255v200h167q-14 32 -41 40t-65 9q-13 0 -32.5 -2t-41.5 -6.5t-45 -11t-42 -15.5l-76 187q12 8 33.5 19t51.5 21.5t67 18t79 7.5q84 0 148.5 -21t108.5 -65t66.5 -113.5t22.5 -166.5t-22.5 -166.5t-66.5 -113.5t-108.5 -65t-148.5 -21q-41 0 -77.5 7t-66.5 17.5
t-52.5 22t-34.5 19.5l76 187q19 -9 42 -15.5t45 -11t41.5 -6.5t32.5 -2q37 0 64 8t41 39h-166z" />
    <glyph glyph-name="afii10048" unicode="&#x42e;" horiz-adv-x="1055" 
d="M50 0v710h220v-250h61q23 138 109.5 200t229.5 62q84 0 148 -21t108 -65t66.5 -113.5t22.5 -166.5t-22.5 -166.5t-66.5 -113.5t-108 -65t-148 -21q-143 0 -229 61.5t-109 198.5h-62v-250h-220zM670 209q30 0 54 4.5t40 19.5t24.5 44t8.5 79t-8.5 79.5t-24.5 44.5t-40 19
t-54 4q-31 0 -54.5 -4t-39.5 -19t-24.5 -44.5t-8.5 -79.5t8.5 -79t24.5 -44t39.5 -19.5t54.5 -4.5z" />
    <glyph glyph-name="afii10049" unicode="&#x42f;" horiz-adv-x="695" 
d="M50 0l101 261q-38 26 -62 74t-24 130q0 90 20.5 139.5t54 73t76 28t87.5 4.5h342v-710h-220v225h-57l-84 -225h-234zM425 515h-90q-11 0 -20 -1t-15.5 -6t-10.5 -15t-4 -28t4 -28t10.5 -15t15.5 -6t20 -1h90v100z" />
    <glyph glyph-name="afii10065" unicode="&#x430;" horiz-adv-x="603" 
d="M458 0l-69 45q-12 -17 -26 -27.5t-27.5 -17t-26 -9t-20.5 -2.5q-66 0 -110 7t-72 24t-40.5 46.5t-15.5 74.5q-3 46 6 77t30.5 50t57.5 27t88 8h122q-1 17 -7.5 26.5t-17 14t-24 5t-28.5 0.5q-24 0 -41 -1t-32.5 -3t-33 -6t-41.5 -11l-56 172q30 11 80 25t127 14
q135 0 203.5 -64.5t68.5 -210.5v-264h-95zM272 183q-19 0 -23 -8t-4 -19t4 -19t23 -8h22q12 0 24 1.5t20.5 6.5t13 16t2.5 30h-82z" />
    <glyph glyph-name="afii10066" unicode="&#x431;" 
d="M556 577q-16 -10 -42 -19t-58 -16t-67.5 -11t-71.5 -4q-25 0 -41 -3.5t-25.5 -11t-14 -19.5t-5.5 -29q27 12 47 15.5t50 3.5q69 0 118.5 -12.5t81.5 -40.5t47 -73t15 -109q0 -136 -68.5 -197.5t-216.5 -61.5q-89 0 -141 20.5t-80 60t-36 97t-8 131.5q0 102 10 172
t27.5 115.5t42 70.5t53.5 37t62 15.5t68 5.5q49 3 78.5 6t48 6t31 6.5t28.5 8.5zM400 244q0 21 -6.5 34t-18 20t-27 9t-33.5 2t-33.5 -2t-27 -9t-18 -20t-6.5 -34t6.5 -34t18 -20t27 -9t33.5 -2t33.5 2t27 9t18 20t6.5 34z" />
    <glyph glyph-name="afii10067" unicode="&#x432;" horiz-adv-x="550" 
d="M50 0v530h272q31 0 61 -3.5t53 -17t36.5 -40.5t11.5 -75q-1 -17 -4 -30t-9.5 -22.5t-17 -16.5t-26.5 -13q32 -12 50.5 -26t28 -30t12 -33.5t2.5 -36.5q0 -64 -16.5 -101t-44.5 -56t-64 -24t-75 -5h-270zM299 144h14t12 3.5t8 11t3 22.5t-3 23t-8 11.5t-12 3.5h-14h-57
v-75h57zM287 346q11 0 19 3.5t8 22.5t-8 23.5t-19 4.5h-47v-54h47z" />
    <glyph glyph-name="afii10068" unicode="&#x433;" horiz-adv-x="430" 
d="M50 0v530h370v-170h-180v-360h-190z" />
    <glyph glyph-name="afii10069" unicode="&#x434;" horiz-adv-x="617" 
d="M418 -106v106h-219v-106h-159l-30 258h15q19 0 31.5 4t20.5 14.5t12 28.5t6 45l18 256l16 7q29 13 56 18t59 5h297v-378h66l-30 -258h-159zM351 375h-56l-9 -132q-4 -53 -18 -91h83v223z" />
    <glyph glyph-name="afii10070" unicode="&#x435;" horiz-adv-x="590" 
d="M539 30q-15 -6 -38 -13t-52 -13t-63.5 -10.5t-73.5 -4.5q-135 0 -203.5 64.5t-68.5 210.5q0 73 17 125t49.5 85.5t80 49t108.5 15.5t108.5 -15.5t80 -49t49.5 -85.5t17 -125q-48 -26 -92.5 -32.5t-97.5 -6.5h-122q1 -17 7.5 -26.5t17 -14t24 -5t28.5 -0.5q24 0 44 1.5
t39.5 4t40 6.5t44.5 11zM351 305q1 21 -4 32t-13.5 16t-18 5.5t-16.5 0.5q-12 0 -24 -1.5t-20.5 -6.5t-13 -16t-2.5 -30h112z" />
    <glyph glyph-name="afii10072" unicode="&#x436;" horiz-adv-x="922" 
d="M681 0l-105 175h-20v-175h-190v175h-20l-105 -175h-231l184 265l-184 265h229l107 -174h20v174h190v-174h20l107 174h229l-184 -265l184 -265h-231z" />
    <glyph glyph-name="afii10073" unicode="&#x437;" horiz-adv-x="520" 
d="M179 207l1 120h78q20 0 31.5 5t11.5 15t-13 13q-11 2 -34.5 1.5t-50.5 -4t-53 -9t-42 -12.5l-62 165q12 7 35 14t53 12.5t64 9t69 3.5q48 0 87.5 -8.5t67.5 -27.5t43.5 -50t15.5 -77q0 -22 -4.5 -39t-15.5 -30t-30.5 -22.5t-50.5 -16.5q63 -17 86.5 -45t23.5 -75
q0 -44 -16.5 -74.5t-46 -49.5t-69.5 -27t-86 -8q-38 0 -76 4.5t-71 11t-58.5 14t-36.5 13.5l71 166q11 -2 28.5 -7t40 -9.5t47.5 -8t51 -3.5q19 0 25.5 2.5t6.5 7.5q0 11 -6.5 18.5t-36.5 7.5h-78z" />
    <glyph glyph-name="afii10074" unicode="&#x438;" horiz-adv-x="616" 
d="M376 0v79q0 32 1.5 60t6.5 59l7 64l-188 -262h-153v530h190v-79q0 -32 -2 -60t-6 -59l-7 -66l188 264h153v-530h-190z" />
    <glyph glyph-name="afii10075" unicode="&#x439;" horiz-adv-x="616" 
d="M376 0v79q0 32 1.5 60t6.5 59l7 64l-188 -262h-153v530h190v-79q0 -32 -2 -60t-6 -59l-7 -66l188 264h153v-530h-190zM489 623q-9 -5 -24.5 -14t-38 -17.5t-52 -15t-66.5 -6.5t-66.5 6.5t-52 15t-38 17.5t-24.5 14l49 120q23 -10 56 -24t76 -14t76 14t56 24z" />
    <glyph glyph-name="afii10076" unicode="&#x43a;" horiz-adv-x="606" 
d="M365 0l-105 175h-20v-175h-190v530h190v-174h20l107 174h229l-184 -265l184 -265h-231z" />
    <glyph glyph-name="afii10077" unicode="&#x43b;" horiz-adv-x="600" 
d="M368 0v373h-55l-15 -198q-4 -54 -19.5 -89.5t-39.5 -56t-56.5 -29t-69.5 -8.5q-27 0 -55 5t-57 22l52 142q10 -5 16 -6.5t17 -1.5q6 0 10.5 1t7 5t4 12.5t2.5 22.5l20 306l16 7q29 13 56.5 18t59.5 5h296v-530h-190z" />
    <glyph glyph-name="afii10078" unicode="&#x43c;" horiz-adv-x="793" 
d="M553 0v82q0 40 3 75t11 74l9 46h-3l-116 -277h-120l-117 277h-3l9 -46q8 -39 11 -74t3 -75v-82h-190v530h219l77 -153q18 -35 28 -69t16 -72l7 -44l6 44q6 38 17 72t28 69l76 153h219v-530h-190z" />
    <glyph glyph-name="afii10079" unicode="&#x43d;" horiz-adv-x="603" 
d="M363 0v191h-123v-191h-190v530h190v-173h123v173h190v-530h-190z" />
    <glyph glyph-name="afii10080" unicode="&#x43e;" 
d="M315 -11q-137 0 -206 64.5t-69 210.5t69 210.5t206 64.5t206 -64.5t69 -210.5t-69 -210.5t-206 -64.5zM400 264q0 29 -6.5 46t-18 25.5t-27 11t-33.5 2.5t-33.5 -2.5t-27 -11t-18 -25.5t-6.5 -46t6.5 -46t18 -25.5t27 -11t33.5 -2.5t33.5 2.5t27 11t18 25.5t6.5 46z" />
    <glyph glyph-name="afii10081" unicode="&#x43f;" horiz-adv-x="583" 
d="M343 0v364h-103v-364h-190v530h483v-530h-190z" />
    <glyph glyph-name="afii10082" unicode="&#x440;" horiz-adv-x="640" 
d="M50 -220v750h95l69 -45q16 16 30.5 26.5t30 16.5t33 8.5t40.5 2.5q127 0 189.5 -64.5t62.5 -214.5q0 -73 -15 -124t-47 -83.5t-81 -47t-118 -14.5q-16 0 -28 1t-23.5 3t-22.5 6t-25 10v-231h-190zM325 179q29 0 46 5.5t25.5 16t11 26.5t2.5 37t-2.5 37t-11 26.5t-25.5 16
t-46 5.5h-41q-17 0 -26.5 -6.5t-13.5 -17.5t-4.5 -26t-0.5 -32t0.5 -33t4.5 -28t13.5 -19.5t26.5 -7.5h41z" />
    <glyph glyph-name="afii10083" unicode="&#x441;" horiz-adv-x="552" 
d="M512 42q-18 -11 -37 -20.5t-41.5 -16t-50.5 -10t-64 -3.5q-74 0 -127 16.5t-87 50t-49.5 85.5t-15.5 123t16 123t50 85.5t87 49.5t127 16q40 0 69.5 -4.5t52 -11t39 -15.5t31.5 -18l-67 -164q-19 8 -34 13.5t-28.5 8.5t-26 4t-27.5 1q-33 0 -53 -5t-30 -16t-13 -27.5
t-3 -39.5t3 -39.5t13 -27.5t30 -16t53 -5q15 0 27.5 1t26 4t28.5 8.5t34 13.5z" />
    <glyph glyph-name="afii10084" unicode="&#x442;" horiz-adv-x="499" 
d="M154 0v360h-144v170h479v-170h-145v-360h-190z" />
    <glyph glyph-name="afii10085" unicode="&#x443;" horiz-adv-x="558" 
d="M77 -50q10 -5 16 -5.5t17 -2.5q7 -1 12.5 -0.5t10 4t9 11t9.5 21.5l30 77l-128 271q-23 48 -33 93t-10 98v13h157l65 -139q23 -48 33.5 -93t12.5 -98h2q2 53 12.5 98t33.5 93l65 139h157v-13q0 -53 -10 -98t-32 -93l-167 -361q-20 -43 -38 -77t-40.5 -58t-52.5 -36.5
t-74 -12.5q-24 0 -52 5t-57 22z" />
    <glyph glyph-name="afii10086" unicode="&#x444;" horiz-adv-x="931" 
d="M370 -222v235q-14 -6 -25 -10t-22.5 -6t-23.5 -3t-28 -1q-122 0 -176.5 65.5t-54.5 211.5q0 73 13 124t41 83.5t72 47t105 14.5q16 0 28 -1t23.5 -3t22.5 -6t25 -10v191l21 9q39 17 75.5 24t78.5 7h16v-231q14 6 25 10t22.5 6t23.5 3t28 1q61 0 105 -14.5t72 -47
t41 -83.5t13 -124q0 -146 -54.5 -211.5t-176.5 -65.5q-16 0 -28 1t-23.5 3t-22.5 6t-25 10v-235h-191zM326 181q17 0 26.5 7.5t13.5 19.5t4.5 28t0.5 33t-0.5 32t-4.5 26t-13.5 17.5t-26.5 6.5h-11q-29 0 -46 -5.5t-25.5 -16t-11 -26.5t-2.5 -37t2.5 -37t11 -26.5t25.5 -16
t46 -5.5h11zM616 181q29 0 46 5.5t25.5 16t11 26.5t2.5 37t-2.5 37t-11 26.5t-25.5 16t-46 5.5h-11q-17 0 -26.5 -6.5t-13.5 -17.5t-4.5 -26t-0.5 -32t0.5 -33t4.5 -28t13.5 -19.5t26.5 -7.5h11z" />
    <glyph glyph-name="afii10087" unicode="&#x445;" horiz-adv-x="542" 
d="M374 0l-33 41q-25 31 -40 62t-23 70l-7 31l-7 -32q-9 -38 -24 -69t-40 -63l-33 -40h-157v29q0 40 10.5 71.5t34.5 63.5l88 119l-64 84q-24 32 -34.5 63.5t-10.5 71.5v28h160l5 -9q15 -29 26.5 -55t22.5 -55l23 -67l23 67q11 29 22.5 55t26.5 55l5 9h159v-28
q0 -40 -10.5 -71.5t-34.5 -63.5l-63 -84l88 -119q23 -32 34 -63.5t11 -71.5v-29h-158z" />
    <glyph glyph-name="afii10088" unicode="&#x446;" horiz-adv-x="633" 
d="M438 -129v129h-388v530h190v-364h103v364h190v-364h95l-30 -295h-160z" />
    <glyph glyph-name="afii10089" unicode="&#x447;" horiz-adv-x="610" 
d="M370 0v151q-14 -6 -25 -10t-22.5 -6t-23.5 -3t-28 -1q-69 0 -115 14.5t-74 47t-40 83.5t-12 124v130h190v-126q0 -21 2.5 -37t11 -26.5t25.5 -16t46 -5.5h21q17 0 26 7.5t13 19.5t4.5 28t0.5 33v123h190v-530h-190z" />
    <glyph glyph-name="afii10090" unicode="&#x448;" horiz-adv-x="836" 
d="M50 0v530h190v-364h83v364h190v-364h83v364h190v-530h-736z" />
    <glyph glyph-name="afii10091" unicode="&#x449;" horiz-adv-x="886" 
d="M691 -129v129h-641v530h190v-364h83v364h190v-364h83v364h190v-364h95l-30 -295h-160z" />
    <glyph glyph-name="afii10092" unicode="&#x44a;" horiz-adv-x="588" 
d="M108 0v363h-103v167h293v-135h50q41 0 77.5 -6t63.5 -26.5t43 -60.5t16 -107q0 -68 -16 -106.5t-43 -58.5t-63.5 -25t-77.5 -5h-240zM328 159q14 0 25 5t11 31t-11 31t-25 5h-30v-72h30z" />
    <glyph glyph-name="afii10093" unicode="&#x44b;" horiz-adv-x="760" 
d="M520 0v530h190v-530h-190zM50 0v530h190v-135h50q41 0 77.5 -6t63.5 -26.5t43 -60.5t16 -107q0 -68 -16 -106.5t-43 -58.5t-63.5 -25t-77.5 -5h-240zM270 159q14 0 25 5t11 31t-11 31t-25 5h-30v-72h30z" />
    <glyph glyph-name="afii10094" unicode="&#x44c;" horiz-adv-x="530" 
d="M50 0v530h190v-135h50q41 0 77.5 -6t63.5 -26.5t43 -60.5t16 -107q0 -68 -16 -106.5t-43 -58.5t-63.5 -25t-77.5 -5h-240zM270 159q14 0 25 5t11 31t-11 31t-25 5h-30v-72h30z" />
    <glyph glyph-name="afii10095" unicode="&#x44d;" horiz-adv-x="552" 
d="M172 218v100h144q-8 19 -28 28t-65 9q-29 0 -54 -5.5t-62 -21.5l-67 164q15 9 31.5 18t39 15.5t51.5 11t70 4.5q148 0 214 -66t66 -208q0 -71 -16 -123t-49.5 -85.5t-86.5 -50t-127 -16.5q-36 0 -64 3.5t-50.5 10t-41.5 16t-37 20.5l67 164q37 -17 62 -22t54 -5
q45 0 65.5 9.5t28.5 29.5h-145z" />
    <glyph glyph-name="afii10096" unicode="&#x44e;" horiz-adv-x="874" 
d="M50 0v530h190v-173h52q20 96 87 139t180 43q137 0 206 -64.5t69 -210.5t-69 -210.5t-206 -64.5q-119 0 -186.5 47.5t-83.5 154.5h-49v-191h-190zM644 264q0 29 -6.5 46t-18 25.5t-27 11t-33.5 2.5t-33.5 -2.5t-27 -11t-18 -25.5t-6.5 -46t6.5 -46t18 -25.5t27 -11
t33.5 -2.5t33.5 2.5t27 11t18 25.5t6.5 46z" />
    <glyph glyph-name="afii10097" unicode="&#x44f;" horiz-adv-x="540" 
d="M300 0v188l-10 -30q-8 -25 -19 -45.5t-26 -41.5l-52 -71h-143v76q0 26 7.5 47t24.5 41l45 51q-15 6 -29 11t-24.5 17t-17 34t-6.5 63q0 66 16.5 103.5t44 57t63.5 24.5t76 5h240v-530h-190zM306 371h-36q-14 0 -25 -5t-11 -31t11 -31t25 -5h36v72z" />
    <glyph glyph-name="uni0450" unicode="&#x450;" horiz-adv-x="590" 
d="M539 30q-15 -6 -38 -13t-52 -13t-63.5 -10.5t-73.5 -4.5q-135 0 -203.5 64.5t-68.5 210.5q0 73 17 125t49.5 85.5t80 49t108.5 15.5t108.5 -15.5t80 -49t49.5 -85.5t17 -125q-48 -26 -92.5 -32.5t-97.5 -6.5h-122q1 -17 7.5 -26.5t17 -14t24 -5t28.5 -0.5q24 0 44 1.5
t39.5 4t40 6.5t44.5 11zM351 305q1 21 -4 32t-13.5 16t-18 5.5t-16.5 0.5q-12 0 -24 -1.5t-20.5 -6.5t-13 -16t-2.5 -30h112zM166 629l61 129l196 -124l-30 -64z" />
    <glyph glyph-name="afii10071" unicode="&#x451;" horiz-adv-x="590" 
d="M539 30q-15 -6 -38 -13t-52 -13t-63.5 -10.5t-73.5 -4.5q-135 0 -203.5 64.5t-68.5 210.5q0 73 17 125t49.5 85.5t80 49t108.5 15.5t108.5 -15.5t80 -49t49.5 -85.5t17 -125q-48 -26 -92.5 -32.5t-97.5 -6.5h-122q1 -17 7.5 -26.5t17 -14t24 -5t28.5 -0.5q24 0 44 1.5
t39.5 4t40 6.5t44.5 11zM351 305q1 21 -4 32t-13.5 16t-18 5.5t-16.5 0.5q-12 0 -24 -1.5t-20.5 -6.5t-13 -16t-2.5 -30h112zM399 568q-19 0 -35.5 3t-29 12.5t-19.5 27.5t-7 48t7 48t19.5 27.5t29 12.5t35.5 3t35.5 -3t29 -12.5t19.5 -27.5t7 -48t-7 -48t-19.5 -27.5
t-29 -12.5t-35.5 -3zM192 568q-19 0 -35.5 3t-29 12.5t-19.5 27.5t-7 48t7 48t19.5 27.5t29 12.5t35.5 3t35.5 -3t29 -12.5t19.5 -27.5t7 -48t-7 -48t-19.5 -27.5t-29 -12.5t-35.5 -3z" />
    <glyph glyph-name="afii10099" unicode="&#x452;" horiz-adv-x="646" 
d="M313 -62q6 7 19 23t28 36t30 40.5t25 37.5q17 27 20 44t3 35q0 42 -10 58.5t-42 16.5h-65v-229h-203v432h-103v174h103v105h203v-103h170v-174h-170v-47h73q48 0 89 -11t70.5 -37t46 -70t16.5 -111q0 -78 -21 -133.5t-51 -95t-62.5 -65t-56.5 -43.5z" />
    <glyph glyph-name="afii10100" unicode="&#x453;" horiz-adv-x="430" 
d="M50 0v530h370v-170h-180v-360h-190zM192 570l-30 64l196 124l61 -129z" />
    <glyph glyph-name="afii10101" unicode="&#x454;" horiz-adv-x="552" 
d="M512 42q-18 -11 -37 -20.5t-41.5 -16t-50.5 -10t-64 -3.5q-74 0 -127 16.5t-87 50t-49.5 85.5t-15.5 123t16 123t50 85.5t87 49.5t127 16q40 0 69.5 -4.5t52 -11t39 -15.5t31.5 -18l-67 -164q-19 8 -34 13.5t-28.5 8.5t-26 4t-27.5 1q-45 0 -65 -9t-28 -28h144v-100h-145
q8 -20 28.5 -29.5t65.5 -9.5q15 0 27.5 1t26 4t28.5 8.5t34 13.5z" />
    <glyph glyph-name="afii10102" unicode="&#x455;" horiz-adv-x="540" 
d="M103 186q11 -2 28.5 -7t40 -9.5t47.5 -8t51 -3.5q19 0 25.5 2.5t6.5 7.5t-3.5 10t-6.5 6q-54 13 -97.5 22t-73.5 25.5t-46 46t-16 84.5q0 51 14 85.5t41 55t66.5 29t89.5 8.5q36 0 71 -3.5t65 -9t53 -12.5t35 -14l-53 -153q-16 7 -42.5 12.5t-53.5 9t-50.5 4t-33.5 -1.5
q-8 -2 -10.5 -5.5t-2.5 -5.5q0 -4 4 -7.5t7 -4.5q54 -12 98 -22t76 -27.5t49.5 -48t17.5 -85.5q0 -51 -15 -84.5t-43 -54t-67.5 -29t-88.5 -8.5q-40 0 -79 4.5t-72.5 11t-58.5 14t-36 13.5z" />
    <glyph glyph-name="afii10103" unicode="&#x456;" horiz-adv-x="290" 
d="M50 0v490l21 9q39 17 75.5 24t78.5 7h15v-530h-190zM145 550q-20 0 -37 3.5t-30 13.5t-20.5 28.5t-7.5 49.5t7.5 49.5t20.5 28.5t30 13.5t37 3.5q19 0 36.5 -3.5t30.5 -13.5t20.5 -28.5t7.5 -49.5t-7.5 -49.5t-20.5 -28.5t-30.5 -13.5t-36.5 -3.5z" />
    <glyph glyph-name="afii10104" unicode="&#x457;" horiz-adv-x="290" 
d="M50 0v490l21 9q39 17 75.5 24t78.5 7h15v-530h-190zM249 568q-19 0 -35.5 3t-29 12.5t-19.5 27.5t-7 48t7 48t19.5 27.5t29 12.5t35.5 3t35.5 -3t29 -12.5t19.5 -27.5t7 -48t-7 -48t-19.5 -27.5t-29 -12.5t-35.5 -3zM42 568q-19 0 -35.5 3t-29 12.5t-19.5 27.5t-7 48
t7 48t19.5 27.5t29 12.5t35.5 3t35.5 -3t29 -12.5t19.5 -27.5t7 -48t-7 -48t-19.5 -27.5t-29 -12.5t-35.5 -3z" />
    <glyph glyph-name="afii10105" unicode="&#x458;" horiz-adv-x="382" 
d="M67 -29q14 -7 21.5 -9t20.5 -2q10 0 16.5 1.5t10.5 7t5.5 16.5t1.5 30v475l21 9q39 17 75.5 24t78.5 7h15v-515q0 -73 -12.5 -120.5t-37 -75t-62 -38.5t-86.5 -11q-37 0 -66.5 7t-68.5 30zM238 550q-20 0 -37 3.5t-30 13.5t-20.5 28.5t-7.5 49.5t7.5 49.5t20.5 28.5
t30 13.5t37 3.5q19 0 36.5 -3.5t30.5 -13.5t20.5 -28.5t7.5 -49.5t-7.5 -49.5t-20.5 -28.5t-30.5 -13.5t-36.5 -3.5z" />
    <glyph glyph-name="afii10106" unicode="&#x459;" horiz-adv-x="852" 
d="M372 0v373h-55l-15 -198q-4 -54 -19.5 -89.5t-39.5 -56t-56.5 -29t-69.5 -8.5q-27 0 -55 5t-57 22l52 142q10 -5 16 -6.5t17 -1.5q6 0 10.5 1t7 5t4 12.5t2.5 22.5l20 306l16 7q29 13 56.5 18t59.5 5h296v-135h50q41 0 77.5 -6t63.5 -26.5t43 -60.5t16 -107
q0 -68 -16 -106.5t-43 -58.5t-63.5 -25t-77.5 -5h-240zM592 159q14 0 25 5t11 31t-11 31t-25 5h-30v-72h30z" />
    <glyph glyph-name="afii10107" unicode="&#x45a;" horiz-adv-x="843" 
d="M363 0v191h-123v-191h-190v530h190v-173h123v173h190v-135h50q41 0 77.5 -6t63.5 -26.5t43 -60.5t16 -107q0 -68 -16 -106.5t-43 -58.5t-63.5 -25t-77.5 -5h-240zM583 159q14 0 25 5t11 31t-11 31t-25 5h-30v-72h30z" />
    <glyph glyph-name="afii10108" unicode="&#x45b;" horiz-adv-x="636" 
d="M407 0v177q0 15 -1 26.5t-6 19t-16 11.5t-32 4t-33 -4t-17 -12t-6 -19t-1 -26v-177h-190v461h-95v155h95v134h190v-134h209v-155h-209v-81q22 11 45.5 15t46.5 4q43 0 81.5 -3.5t66.5 -23t44.5 -60t16.5 -113.5v-199h-189z" />
    <glyph glyph-name="afii10109" unicode="&#x45c;" horiz-adv-x="606" 
d="M365 0l-105 175h-20v-175h-190v530h190v-174h20l107 174h229l-184 -265l184 -265h-231zM240 570l-30 64l196 124l61 -129z" />
    <glyph glyph-name="uni045D" unicode="&#x45d;" horiz-adv-x="616" 
d="M376 0v79q0 32 1.5 60t6.5 59l7 64l-188 -262h-153v530h190v-79q0 -32 -2 -60t-6 -59l-7 -66l188 264h153v-530h-190zM179 629l61 129l196 -124l-30 -64z" />
    <glyph glyph-name="afii10110" unicode="&#x45e;" horiz-adv-x="558" 
d="M77 -50q10 -5 16 -5.5t17 -2.5q7 -1 12.5 -0.5t10 4t9 11t9.5 21.5l30 77l-128 271q-23 48 -33 93t-10 98v13h157l65 -139q23 -48 33.5 -93t12.5 -98h2q2 53 12.5 98t33.5 93l65 139h157v-13q0 -53 -10 -98t-32 -93l-167 -361q-20 -43 -38 -77t-40.5 -58t-52.5 -36.5
t-74 -12.5q-24 0 -52 5t-57 22zM460 623q-9 -5 -24.5 -14t-38 -17.5t-52 -15t-66.5 -6.5t-66.5 6.5t-52 15t-38 17.5t-24.5 14l49 120q23 -10 56 -24t76 -14t76 14t56 24z" />
    <glyph glyph-name="afii10193" unicode="&#x45f;" horiz-adv-x="576" 
d="M198 -173v173h-148v531h182v-365h112v365h182v-531h-146v-173h-182z" />
    <glyph glyph-name="uni0474" unicode="&#x474;" horiz-adv-x="636" 
d="M219 0l-174 473q-19 50 -27 95.5t-8 98.5v43h186l62 -215q15 -51 25 -97t18 -98l19 -118l18 118q8 52 18.5 98t25.5 97l65 215h179v-44q0 -53 -8 -98.5t-26 -95.5l-171 -472h-202z" />
    <glyph glyph-name="uni0475" unicode="&#x475;" horiz-adv-x="562" 
d="M188 0l-145 364q-17 38 -25 74.5t-8 78.5v13h178l49 -154q13 -40 21 -76.5t14 -78.5l9 -71l9 71q6 42 14 78.5t21 76.5l49 154h178v-13q0 -42 -8 -78.5t-25 -74.5l-145 -364h-186z" />
    <glyph glyph-name="uni0476" unicode="&#x476;" horiz-adv-x="636" 
d="M219 0l-174 473q-19 50 -27 95.5t-8 98.5v43h186l62 -215q15 -51 25 -97t18 -98l19 -118l18 118q8 52 18.5 98t25.5 97l65 215h179v-44q0 -53 -8 -98.5t-26 -95.5l-171 -472h-202zM549.005 750l29.998 64l-195.988 124l-60.9961 -129zM277.021 750l29.998 64
l-195.988 124l-60.9961 -129z" />
    <glyph glyph-name="uni0477" unicode="&#x477;" horiz-adv-x="562" 
d="M188 0l-145 364q-17 38 -25 74.5t-8 78.5v13h178l49 -154q13 -40 21 -76.5t14 -78.5l9 -71l9 71q6 42 14 78.5t21 76.5l49 154h178v-13q0 -42 -8 -78.5t-25 -74.5l-145 -364h-186zM510.005 570l29.998 64l-195.988 124l-60.9961 -129zM238.021 570l29.998 64
l-195.988 124l-60.9961 -129z" />
    <glyph glyph-name="uni048A" unicode="&#x48a;" horiz-adv-x="722" 
d="M541 -222v222h-89v120q0 42 2.5 79.5t7.5 79.5l10 85l-251 -364h-171v710h220v-120q0 -42 -2.5 -79.5t-7.5 -79.5l-10 -88l251 367h171v-507h88l-89 -425h-130zM542 803q-9 -5 -24.5 -14t-38 -17.5t-52 -15t-66.5 -6.5t-66.5 6.5t-52 15t-38 17.5t-24.5 14l49 120
q23 -10 56 -24t76 -14t76 14t56 24z" />
    <glyph glyph-name="uni048B" unicode="&#x48b;" horiz-adv-x="616" 
d="M436 -222v222h-60v79q0 32 1.5 60t6.5 59l7 64l-188 -262h-153v530h190v-79q0 -32 -2 -60t-6 -59l-7 -66l188 264h153l1 -327h88l-89 -425h-130zM489 623q-9 -5 -24.5 -14t-38 -17.5t-52 -15t-66.5 -6.5t-66.5 6.5t-52 15t-38 17.5t-24.5 14l49 120q23 -10 56 -24t76 -14
t76 14t56 24z" />
    <glyph glyph-name="afii10050" unicode="&#x490;" horiz-adv-x="539" 
d="M50 0v710h283l17 141h179v-346h-259v-505h-220z" />
    <glyph glyph-name="afii10098" unicode="&#x491;" horiz-adv-x="430" 
d="M50 0v530h200l30 150h140v-320h-180v-360h-190z" />
    <glyph glyph-name="uni0492" unicode="&#x492;" horiz-adv-x="539" 
d="M50 0v273h-90v163h90v274h479v-205h-259v-69h106v-163h-106v-273h-220z" />
    <glyph glyph-name="uni0493" unicode="&#x493;" horiz-adv-x="430" 
d="M50 0v137h-90v163h90v230h370v-170h-180v-60h104v-163h-104v-137h-190z" />
    <glyph glyph-name="uni0496" unicode="&#x496;" horiz-adv-x="1010" 
d="M832 -141v141h-66l-118 250h-33v-250h-220v250h-33l-118 -250h-234l168 354l-168 356h234l118 -250h33v250h220v-250h33l118 250h234l-168 -356l72 -152v1h147l-40 -344h-179z" />
    <glyph glyph-name="uni0497" unicode="&#x497;" horiz-adv-x="922" 
d="M739 -141v141h-58l-105 175h-20v-175h-190v175h-20l-105 -175h-231l184 265l-184 265h229l107 -174h20v174h190v-174h20l107 174h229l-184 -265l43 -62h187l-40 -344h-179z" />
    <glyph glyph-name="uni049A" unicode="&#x49a;" horiz-adv-x="685" 
d="M506 -141v141h-65l-118 250h-53v-250h-220v710h220v-250h53l118 250h234l-168 -356l71 -151h147l-40 -344h-179z" />
    <glyph glyph-name="uni049B" unicode="&#x49b;" horiz-adv-x="606" 
d="M423 -141v141h-58l-105 175h-20v-175h-190v530h190v-174h20l107 174h229l-184 -265l43 -62h187l-40 -344h-179z" />
    <glyph glyph-name="uni04A0" unicode="&#x4a0;" horiz-adv-x="685" 
d="M441 0l-118 250h-53v-250h-220v547h-70v163h290v-250h53l118 250h234l-168 -356l168 -354h-234z" />
    <glyph glyph-name="uni04A1" unicode="&#x4a1;" horiz-adv-x="606" 
d="M365 0l-105 175h-20v-175h-190v368l-71 -1v163h261v-174h20l107 174h229l-184 -265l184 -265h-231z" />
    <glyph glyph-name="uni04A2" unicode="&#x4a2;" horiz-adv-x="728" 
d="M547 -141v141h-89v250h-188v-250h-220v710h220v-250h188v250h220v-507h88l-40 -344h-179z" />
    <glyph glyph-name="uni04A3" unicode="&#x4a3;" horiz-adv-x="603" 
d="M423 -141v141h-60v191h-123v-191h-190v530h190v-173h123v173h190l1 -327h88l-40 -344h-179z" />
    <glyph glyph-name="uni04A4" unicode="&#x4a4;" horiz-adv-x="728" 
d="M458 0v250h-188v-250h-220v710h220v-250h188v250h290v-163h-70v-547h-220z" />
    <glyph glyph-name="uni04A5" unicode="&#x4a5;" horiz-adv-x="603" 
d="M363 0v191h-123v-191h-190v530h190v-173h123v173h261v-163h-70l-1 1v-368h-190z" />
    <glyph glyph-name="uni04AA" unicode="&#x4aa;" horiz-adv-x="657" 
d="M445 -220q-14 -9 -31 -14.5t-46 -5.5q-60 0 -86 26.5t-26 83.5q0 28 7 46.5t21 31t35 21.5t49 20v1q-80 2 -141 24t-102.5 66t-63 112.5t-21.5 163.5q0 97 22.5 166.5t66.5 113.5t108.5 65t148.5 21q42 0 79 -7.5t67 -18t51.5 -21.5t33.5 -19l-76 -187q-20 9 -42.5 15.5
t-44.5 11t-41.5 6.5t-32.5 2q-29 0 -51 -4.5t-38 -19.5t-24 -44.5t-8 -79.5t8 -79t24 -44.5t38 -20t51 -4.5q13 0 32.5 2t41.5 6.5t44.5 11t42.5 15.5l92 -224q-10 -7 -29.5 -13.5t-50.5 -17t-75.5 -28t-105.5 -45.5q-25 -11 -32.5 -19t-7.5 -26q0 -19 6.5 -27t33.5 -8
q11 0 21 2t25 8z" />
    <glyph glyph-name="uni04AB" unicode="&#x4ab;" horiz-adv-x="552" 
d="M397 -220q-14 -9 -31 -14.5t-46 -5.5q-60 0 -86 26.5t-26 83.5q0 28 7 46.5t21 31t35 21.5t49 20l9 3h-10q-74 0 -127 16.5t-87 50t-49.5 85.5t-15.5 123t16 123t50 85.5t87 49.5t127 16q40 0 69.5 -4.5t52 -11t39 -15.5t31.5 -18l-67 -164q-19 8 -34 13.5t-28.5 8.5
t-26 4t-27.5 1q-33 0 -53 -5t-30 -16t-13 -27.5t-3 -39.5t3 -39.5t13 -27.5t30 -16t53 -5q15 0 27.5 1t26 4t28.5 8.5t34 13.5l79 -189q-14 -8 -28.5 -15.5t-37 -18t-54.5 -26.5t-80 -42q-24 -13 -32 -20t-8 -25q0 -19 6.5 -27t33.5 -8q11 0 21 2t25 8z" />
    <glyph glyph-name="uni04AC" unicode="&#x4ac;" horiz-adv-x="558" 
d="M258 -141v141h-89v500h-159v210h538v-210h-159v-297h88l-40 -344h-179z" />
    <glyph glyph-name="uni04AD" unicode="&#x4ad;" horiz-adv-x="499" 
d="M213 -141v141h-59v360h-144v170h479v-170h-145v-157h88l-40 -344h-179z" />
    <glyph glyph-name="uni04AE" unicode="&#x4ae;" horiz-adv-x="614" 
d="M197 0v221l-129 269q-11 24 -21.5 45.5t-18.5 43t-13 44.5t-5 49v38h179l39 -88q22 -49 36 -93.5t26 -95.5l17 -83l17 83q12 51 26.5 96t35.5 93l38 88h180v-39q0 -26 -4.5 -49t-12.5 -44.5t-18.5 -43t-22.5 -45.5l-129 -268v-221h-220z" />
    <glyph glyph-name="uni04AF" unicode="&#x4af;" horiz-adv-x="584" 
d="M197 -223v264l-129 269q-11 24 -21.5 45.5t-18.5 43t-13 44.5t-5 49v38h164l39 -88q22 -49 36 -93.5t26 -95.5l17 -83l17 83q12 51 26.5 96t35.5 93l38 88h165v-39q0 -26 -4.5 -49t-12.5 -44.5t-18.5 -43t-22.5 -45.5l-129 -268v-264h-190z" />
    <glyph glyph-name="uni04B0" unicode="&#x4b0;" horiz-adv-x="614" 
d="M417 98v-98h-220v98h-149v123h149l-129 269q-11 24 -21.5 45.5t-18.5 43t-13 44.5t-5 49v38h179l39 -88q22 -49 36 -93.5t26 -95.5l17 -83l17 83q12 51 26.5 96t35.5 93l38 88h180v-39q0 -26 -4.5 -49t-12.5 -44.5t-18.5 -43t-22.5 -45.5l-129 -268h149v-123h-149z" />
    <glyph glyph-name="uni04B1" unicode="&#x4b1;" horiz-adv-x="584" 
d="M387 -83v-140h-190v140h-166v123h166v1l-129 269q-11 24 -21.5 45.5t-18.5 43t-13 44.5t-5 49v38h164l39 -88q22 -49 36 -93.5t26 -95.5l17 -83l17 83q12 51 26.5 96t35.5 93l38 88h165v-39q0 -26 -4.5 -49t-12.5 -44.5t-18.5 -43t-22.5 -45.5l-129 -268v-1h162v-123
h-162z" />
    <glyph glyph-name="uni04B2" unicode="&#x4b2;" horiz-adv-x="594" 
d="M443 -141v141h-53l-57 134q-11 24 -17 46.5t-11 48.5l-8 49l-8 -49q-5 -26 -11 -48.5t-17 -46.5l-57 -134h-194v33q0 53 12.5 96.5t39.5 88.5l84 137l-84 137q-27 45 -39.5 88.5t-12.5 96.5v33h194l57 -134q11 -24 17 -46.5t11 -48.5l8 -49l8 49q5 26 11 48.5t17 46.5
l57 134h194v-33q0 -53 -12.5 -96.5t-39.5 -88.5l-84 -137l84 -137l9 -15h121l-40 -344h-179z" />
    <glyph glyph-name="uni04B3" unicode="&#x4b3;" horiz-adv-x="542" 
d="M421 -141v141h-47l-33 41q-25 31 -40 62t-23 70l-7 31l-7 -32q-9 -38 -24 -69t-40 -63l-33 -40h-157v29q0 40 10.5 71.5t34.5 63.5l88 119l-64 84q-24 32 -34.5 63.5t-10.5 71.5v28h160l5 -9q15 -29 26.5 -55t22.5 -55l23 -67l23 67q11 29 22.5 55t26.5 55l5 9h159v-28
q0 -40 -10.5 -71.5t-34.5 -63.5l-63 -84q33 -45 51 -69.5t26 -35.5t10 -13l2 -2h94l-40 -304h-121z" />
    <glyph glyph-name="uni04B6" unicode="&#x4b6;" horiz-adv-x="680" 
d="M499 -141v141h-89v235q-16 -7 -35.5 -11t-39.5 -6t-39.5 -2.5t-35.5 -0.5q-41 0 -82 5.5t-74 30.5t-53.5 75t-20.5 139v245h220v-245q0 -18 4 -28t10 -15t14.5 -6t17.5 -1q13 0 29 1t32.5 3t30.5 4t22 5v282h220v-507h88l-40 -344h-179z" />
    <glyph glyph-name="uni04B7" unicode="&#x4b7;" horiz-adv-x="610" 
d="M429 -141v141h-59v151q-14 -6 -25 -10t-22.5 -6t-23.5 -3t-28 -1q-69 0 -115 14.5t-74 47t-40 83.5t-12 124v130h190v-126q0 -21 2.5 -37t11 -26.5t25.5 -16t46 -5.5h21q17 0 26 7.5t13 19.5t4.5 28t0.5 33v123h190v-327h88l-40 -344h-179z" />
    <glyph glyph-name="uni04BA" unicode="&#x4ba;" horiz-adv-x="680" 
d="M420 0v245q0 18 -4 28t-10 15t-14.5 6t-17.5 1q-13 0 -29 -1t-32.5 -3t-30.5 -4t-22 -5v-282h-220v710h220v-235q16 7 35.5 11t39.5 6t39.5 2.5t35.5 0.5q41 0 82 -5.5t74 -30.5t53.5 -75t20.5 -139v-245h-220z" />
    <glyph glyph-name="uni04BB" unicode="&#x4bb;" horiz-adv-x="610" 
d="M380 0v126q0 21 -2.5 37t-11 26.5t-25.5 16t-46 5.5h-21q-17 0 -26 -7.5t-13 -19.5t-4.5 -28t-0.5 -33v-123h-190v710l21 9q39 17 75.5 24t78.5 7h15v-371q14 6 25 10t22.5 6t23.5 3t28 1q69 0 115 -14.5t74 -47t40 -83.5t12 -124v-130h-190z" />
    <glyph glyph-name="uni04C0" unicode="&#x4c0;" horiz-adv-x="358" 
d="M30 0v210h39v290h-39v210h298v-210h-39v-290h39v-210h-298z" />
    <glyph glyph-name="uni04C1" unicode="&#x4c1;" horiz-adv-x="1010" 
d="M766 0l-118 250h-33v-250h-220v250h-33l-118 -250h-234l168 354l-168 356h234l118 -250h33v250h220v-250h33l118 250h234l-168 -356l168 -354h-234zM686 803q-9 -5 -24.5 -14t-38 -17.5t-52 -15t-66.5 -6.5t-66.5 6.5t-52 15t-38 17.5t-24.5 14l49 120q23 -10 56 -24
t76 -14t76 14t56 24z" />
    <glyph glyph-name="uni04C2" unicode="&#x4c2;" horiz-adv-x="922" 
d="M681 0l-105 175h-20v-175h-190v175h-20l-105 -175h-231l184 265l-184 265h229l107 -174h20v174h190v-174h20l107 174h229l-184 -265l184 -265h-231zM642 623q-9 -5 -24.5 -14t-38 -17.5t-52 -15t-66.5 -6.5t-66.5 6.5t-52 15t-38 17.5t-24.5 14l49 120q23 -10 56 -24
t76 -14t76 14t56 24z" />
    <glyph glyph-name="uni04C5" unicode="&#x4c5;" horiz-adv-x="732" 
d="M551 -222v222h-89v500h-74l-20 -266q-6 -72 -23.5 -119.5t-46.5 -75.5t-69 -39t-89 -11q-37 0 -66.5 7t-68.5 30l67 164q14 -7 21.5 -9t20.5 -2q10 0 16 1.5t9.5 7t5.5 16.5t3 30l30 436l21 9q39 17 75.5 24t78.5 7h329v-507h88l-89 -425h-130z" />
    <glyph glyph-name="uni04C6" unicode="&#x4c6;" horiz-adv-x="600" 
d="M428 -222v222h-60v373h-55l-15 -198q-4 -54 -19.5 -89.5t-39.5 -56t-56.5 -29t-69.5 -8.5q-27 0 -55 5t-57 22l52 142q10 -5 16 -6.5t17 -1.5q6 0 10.5 1t7 5t4 12.5t2.5 22.5l20 306l16 7q29 13 56.5 18t59.5 5h296l1 -327h88l-89 -425h-130z" />
    <glyph glyph-name="uni04C9" unicode="&#x4c9;" horiz-adv-x="728" 
d="M547 -222v222h-89v250h-188v-250h-220v710h220v-250h188v250h220v-507h88l-89 -425h-130z" />
    <glyph glyph-name="uni04CA" unicode="&#x4ca;" horiz-adv-x="603" 
d="M423 -222v222h-60v191h-123v-191h-190v530h190v-173h123v173h190l1 -327h88l-89 -425h-130z" />
    <glyph glyph-name="uni04CB" unicode="&#x4cb;" horiz-adv-x="680" 
d="M363 -141l-40 269h87v107q-16 -7 -35.5 -11t-39.5 -6t-39.5 -2.5t-35.5 -0.5q-41 0 -82 5.5t-74 30.5t-53.5 75t-20.5 139v245h220v-245q0 -18 4 -28t10 -15t14.5 -6t17.5 -1q13 0 29 1t32.5 3t30.5 4t22 5v282h220v-710h-88v-141h-179z" />
    <glyph glyph-name="uni04CC" unicode="&#x4cc;" horiz-adv-x="610" 
d="M323 -141l-40 214h87v78q-14 -6 -25 -10t-22.5 -6t-23.5 -3t-28 -1q-69 0 -115 14.5t-74 47t-40 83.5t-12 124v130h190v-126q0 -21 2.5 -37t11 -26.5t25.5 -16t46 -5.5h21q17 0 26 7.5t13 19.5t4.5 28t0.5 33v123h190v-530h-58v-141h-179z" />
    <glyph glyph-name="uni04CD" unicode="&#x4cd;" horiz-adv-x="958" 
d="M777 -222v222h-89v110q0 53 4.5 99.5t13.5 98.5l12 62h-4l-155 -370h-160l-155 370h-4l12 -62q9 -52 13.5 -98.5t4.5 -99.5v-110h-220v710h232l129 -260q23 -48 37 -92.5t22 -96.5l9 -58l9 58q8 52 22 96.5t37 92.5l129 260h232v-507h88l-89 -425h-130z" />
    </font>
</defs>
</svg>
